<svg width="146" height="118" viewBox="0 0 146 118" fill="none" xmlns="http://www.w3.org/2000/svg">
<path d="M39.2508 87.6458C41.0064 87.2883 41.4179 88.3058 42.0214 88.3333C42.6249 88.3608 42.8169 87.7833 42.2683 86.6832C41.6922 85.5832 39.7172 85.2257 38.7571 85.5007C31.6799 87.4808 25.2061 92.761 23.3957 99.0037C21.8596 104.311 24.4655 105.961 25.4256 106.759C26.0016 107.227 26.9617 107.474 27.9492 107.474C31.9267 107.474 36.3157 102.001 37.9616 99.6362C38.3182 99.1412 38.6474 98.6462 38.9217 98.1787C38.6748 100.159 38.0713 103.761 36.8918 106.897C30.8295 107.419 25.9468 109.784 24.3009 113.222C22.9568 116.054 25.0964 118.364 26.9343 117.952C29.3482 117.429 34.807 115.834 38.0164 110.554C38.5376 109.729 38.9765 108.767 39.388 107.722C39.8818 107.722 40.2932 107.749 40.6498 107.777C42.6523 107.942 42.8169 107.034 41.8019 106.897C41.1161 106.842 40.4029 106.814 39.7172 106.814C41.3356 102.249 42.1311 96.8036 42.2408 95.9236C42.378 94.741 40.3207 94.411 39.7995 94.136C39.4977 93.971 39.3331 94.4935 39.2234 95.3461C37.0289 98.9487 32.5302 105.796 27.7572 104.256C26.1937 103.761 25.7822 100.819 26.5228 98.8937C28.6899 93.311 33.5726 88.7458 39.2508 87.6458ZM35.4105 109.922C33.0789 113.634 27.7024 115.532 26.3857 115.614C25.0964 115.724 26.468 112.727 30.2535 110.197C32.2559 108.849 34.5053 108.217 36.4803 107.914C36.1511 108.629 35.7945 109.317 35.4105 109.922Z" fill="white"/>
<path d="M49.761 99.4987C50.1176 99.5537 50.3919 99.1687 50.1999 98.9762C49.4593 98.1512 47.978 98.1787 47.1002 98.4262C46.2498 98.6737 43.0678 100.544 42.7935 102.359C42.4918 104.174 44.3845 104.861 45.0154 104.614C45.6189 104.366 46.771 104.036 47.7585 103.459C47.2373 104.944 48.9106 105.329 49.7336 105.026C50.5565 104.751 54.4791 102.716 55.8781 101.809C57.2771 100.901 58.1275 99.5812 57.1125 99.9662C56.0701 100.324 51.1326 102.111 50.4468 102.551C49.7336 103.019 50.3919 102.166 50.8308 101.671C51.16 101.314 50.968 100.709 50.5839 100.434C50.4193 100.324 46.195 102.276 45.9481 102.331C45.9755 101.506 49.4044 99.4712 49.761 99.4987ZM50.3645 92.816C50.2273 92.7885 50.0079 92.871 50.0353 92.9535L49.8433 93.0085C49.2124 93.146 47.9506 94.411 47.3471 95.0711C46.771 95.6761 46.4967 97.1061 47.5391 97.3261C48.5815 97.5462 50.5291 96.5561 51.16 95.1811C51.8183 93.806 50.7211 92.8985 50.3645 92.816ZM49.8982 95.1261C49.3495 95.7586 48.2523 96.1986 48.362 95.8961C48.4717 95.6211 49.5416 94.6035 50.3919 93.9435C50.2822 94.4385 50.1176 94.8786 49.8982 95.1261Z" fill="white"/>
<path d="M63.1126 100.819C63.0029 99.5537 63.579 98.0137 62.7012 98.0137C62.18 98.0137 61.0553 98.7837 59.9581 99.5537C60.8907 97.8212 59.6838 98.3437 59.3272 97.7937C58.9157 97.1886 58.5591 97.4637 57.6813 98.0687C57.0778 98.5087 57.2424 98.9762 56.8858 99.8562C56.5018 100.736 53.5666 105.246 54.225 106.952C54.5267 107.722 55.1302 107.667 55.8983 107.254C57.791 106.236 57.1601 105.466 57.7361 103.981C57.9556 103.266 58.3122 102.524 58.8608 101.534C59.382 101.286 59.8758 101.066 60.0678 100.956C60.6438 100.681 61.165 100.846 61.0827 101.589C60.973 102.331 62.18 102.744 62.7012 102.744C63.2224 102.744 63.2498 102.084 63.1126 100.819Z" fill="white"/>
<path d="M78.3313 89.7084C78.4959 89.4058 78.1667 88.7733 77.7552 88.5533C76.7403 87.9758 76.3563 88.2508 76.1917 88.6633C76.0271 89.0758 75.0396 91.3859 73.8052 93.586L71.309 98.2062C71.0072 97.9037 70.5683 97.7387 69.9923 97.8762C68.511 98.2062 66.097 99.7737 64.9724 100.984C63.8203 102.194 63.7654 103.404 63.9026 103.651C64.0397 103.871 64.1494 104.751 65.2741 104.916C66.4262 105.081 68.0721 103.844 68.511 103.376C68.511 103.376 68.5933 104.339 68.7304 104.806C68.8402 105.246 69.3888 105.741 70.1568 105.851C70.9523 105.961 72.269 105.054 73.476 104.009C74.683 102.991 77.7278 101.011 76.4934 100.956C75.6979 100.929 72.9548 102.386 71.8301 102.826C72.2142 101.946 72.5708 101.011 72.8725 100.214C74.3264 96.0061 78.1667 89.9834 78.3313 89.7084ZM66.8377 102.386C66.9748 102.304 69.0322 100.324 69.8277 100.049L70.4312 99.8837L69.8277 101.011L69.5534 101.204C68.5658 101.946 67.3863 102.221 66.8377 102.386Z" fill="white"/>
<path d="M81.161 100.131C80.5301 100.434 79.762 100.846 79.0214 101.286C79.0214 100.654 79.1037 100.131 79.2957 99.6912C79.6797 98.7562 80.2283 98.2337 80.9415 98.2337C81.1884 98.2337 81.2707 98.2337 81.4079 98.0962C81.5724 97.9862 81.5724 97.3536 81.1335 97.1336C80.6672 96.8861 78.8842 96.8586 77.8418 97.9037C77.156 98.5912 76.4154 99.9112 76.9366 101.479C77.0189 101.754 77.156 102.084 77.2383 102.359C76.1685 103.101 75.4005 103.789 74.989 104.449C74.5501 105.191 74.3855 106.209 74.6324 106.401C74.8518 106.594 75.0713 107.007 75.373 107.227C76.0588 107.859 77.3206 107.942 78.2807 107.199C79.2957 106.429 79.5974 104.916 79.2682 103.349C79.2134 103.129 79.1859 102.909 79.1585 102.689C80.8044 101.534 83.0263 100.131 84.1235 99.6362C84.8642 99.3062 83.2183 99.1687 81.161 100.131ZM77.5949 105.549C77.3755 106.236 76.7172 106.512 76.2783 106.512C76.1411 106.402 76.0588 106.291 76.0314 106.126C76.0039 105.824 76.0314 104.971 77.3755 103.926C77.4029 103.899 77.4578 103.844 77.5127 103.816C77.5949 104.531 77.7321 105.109 77.5949 105.549Z" fill="white"/>
<path d="M87.6002 97.1886C86.1738 97.4912 82.7449 101.506 82.1414 102.716C81.5379 103.926 81.7574 104.834 82.1414 105.851C82.5255 106.869 83.705 107.749 84.9668 107.557C86.695 107.309 94.5128 102.744 95.3083 101.699C96.1038 100.654 95.9118 100.214 95.4181 100.544C92.7572 102.359 88.6152 104.531 86.5304 105.191C84.5279 105.824 84.1165 104.944 84.5828 103.761C85.0491 102.579 87.3533 99.8837 88.5603 99.1687C89.7673 98.4537 89.6575 99.3612 90.1239 99.3887C90.5902 99.4162 90.7548 98.9487 90.3159 98.0962C89.877 97.2436 88.3683 97.0236 87.6002 97.1886Z" fill="white"/>
<path d="M100.417 99.4987C100.774 99.5537 101.048 99.1687 100.856 98.9762C100.116 98.1512 98.6343 98.1787 97.7565 98.4262C96.9062 98.6737 93.7242 100.544 93.4499 102.359C93.1481 104.174 95.0409 104.861 95.6718 104.614C96.2753 104.366 97.4274 104.036 98.4149 103.459C97.8937 104.944 99.567 105.329 100.39 105.026C101.213 104.751 105.136 102.716 106.534 101.809C107.933 100.901 108.784 99.5812 107.769 99.9662C106.727 100.324 101.789 102.111 101.103 102.551C100.39 103.019 101.048 102.166 101.487 101.671C101.816 101.314 101.624 100.709 101.24 100.434C101.076 100.324 96.8513 102.276 96.6044 102.331C96.6319 101.506 100.061 99.4712 100.417 99.4987Z" fill="white"/>
<path d="M113.721 98.9762C112.98 99.0862 111.883 99.1687 110.758 99.2512C111.773 97.4637 113.638 94.8786 114.763 93.586C115.641 92.596 116.875 92.5685 117.012 92.1009C117.424 90.6984 115.174 89.5983 114.324 89.8459C112.815 90.2859 109.661 95.4561 107.96 98.9762C107.878 99.1137 107.823 99.2512 107.741 99.4162C107.411 99.4162 107.165 99.4437 107.055 99.4437C106.095 99.4712 106.232 99.3612 105.519 99.6362C104.833 99.9387 105.19 102.029 106.15 102.001C106.232 102.001 106.369 101.974 106.506 101.974C104.641 105.961 101.486 113.497 101.322 115.284C101.157 117.594 102.748 118.364 103.736 117.704C104.723 117.044 103.406 116.164 104.147 113.854C105.244 110.307 107.494 105.549 109.524 101.534C110.758 101.341 112.02 101.121 112.898 100.956C114.79 100.626 115.641 99.3062 115.723 99.1137C115.805 98.8937 115.476 98.7287 113.721 98.9762Z" fill="white"/>
<path d="M123.113 102.359C121.22 103.486 117.956 104.586 116.557 104.669C115.158 104.751 115.57 103.816 115.816 103.514C116.557 104.669 117.462 103.981 118.532 103.486C119.602 102.991 121.33 102.029 121.22 100.929C121.083 99.8012 119.986 98.5087 119.245 98.4537C118.669 98.3987 117.545 98.5362 116.118 99.8837C114.664 101.259 113.512 103.569 113.32 104.669C113.101 105.796 113.924 107.282 115.871 106.869C117.792 106.457 122.565 103.899 123.387 103.404C124.21 102.909 125.006 101.259 123.113 102.359ZM118.779 100.764C118.614 101.451 117.545 101.946 117.051 102.084C117.599 101.424 117.956 101.094 118.779 100.764ZM119.081 95.8686C118.505 96.3636 118.066 96.7486 118.066 97.0511C118.093 97.4362 118.752 97.4087 119.383 97.2436C119.986 97.1061 120.727 96.6386 121.659 95.6486C122.318 94.9886 122.564 94.3835 122.427 93.8885C122.153 93.036 121.275 92.816 121.166 93.091C121.138 93.1185 121.138 93.146 121.138 93.1735C120.644 94.411 119.41 95.5936 119.081 95.8686Z" fill="white"/>
<path d="M15.4384 71.9707C15.3149 72.342 15.2738 72.672 15.1092 72.9608C14.9446 73.332 14.7389 73.6208 14.492 73.8683C14.2451 74.1571 13.9571 74.3221 13.6279 74.5283C13.3399 74.7346 13.0107 74.8583 12.6815 75.0233C12.3524 75.1059 12.0232 75.2296 11.6529 75.3121C11.2414 75.3946 10.8711 75.3534 10.4596 75.3534C10.0482 75.3534 9.6367 75.3946 9.26638 75.3534C8.85491 75.2709 8.48459 75.1059 8.15542 74.9821C7.74395 74.8171 7.41478 74.6108 7.12676 74.4046C6.75644 74.1571 6.46841 73.9096 6.26268 73.6208C6.05694 73.2495 5.93351 72.9195 5.72777 72.5895C5.56319 72.2182 5.43975 71.8882 5.27516 71.517C5.15172 71.1457 4.98713 70.8157 4.90484 70.4444C4.7814 70.0732 4.69911 69.7019 4.61681 69.3306C4.57567 68.9181 4.65796 68.5468 4.61681 68.1756C4.61681 67.7631 4.53452 67.3918 4.57567 67.0205C4.57567 66.6493 4.69911 66.278 4.7814 65.8655C4.86369 65.4942 4.90484 65.123 5.02828 64.7517C5.15172 64.3804 5.43975 64.0917 5.60433 63.7204C5.76892 63.3491 5.89236 62.9779 6.13924 62.6891C6.38612 62.3591 6.71529 62.1116 7.04446 61.8641C7.37363 61.6166 7.70281 61.4103 8.07313 61.2453C8.4023 61.0803 8.81377 60.9978 9.18408 60.9153C9.59555 60.8328 9.96587 60.7503 10.3773 60.7915C10.7888 60.7915 11.1591 60.874 11.5706 60.9566C11.9409 61.0391 12.3935 61.0391 12.7638 61.2041C13.1342 61.3278 13.4633 61.6166 13.7925 61.8228C14.0805 61.9878 14.5331 62.1941 14.9446 62.4416C15.3149 62.6891 15.6852 63.0191 16.0144 63.1841C16.3847 63.3491 16.7139 63.4316 17.0019 63.3904C17.3311 63.3079 17.6191 63.1429 17.9072 62.8954C18.154 62.6891 18.4009 62.4416 18.6478 62.1116C19.0181 61.6991 19.2239 61.2866 19.2239 60.9153C19.3061 60.5028 19.1827 60.049 18.7712 59.6778C18.5244 59.4302 18.154 59.2652 17.866 59.059C17.578 58.8527 17.29 58.6465 16.9608 58.4402C16.6316 58.2752 16.3436 57.9864 16.0144 57.8627C15.6852 57.6977 15.3149 57.6564 14.9858 57.5327C14.6154 57.4089 14.2863 57.2852 13.9159 57.2027C13.5456 57.1202 13.2164 57.0376 12.8461 56.9964C12.4758 56.9139 12.1055 56.9139 11.7352 56.9139C11.3649 56.8726 10.9945 56.9551 10.6242 56.9551C10.2539 56.9551 9.88358 56.8726 9.51326 56.9139C9.14294 56.9551 8.77262 57.0376 8.44345 57.0789C8.03198 57.1614 7.70281 57.2852 7.33249 57.3677C6.92102 57.4914 6.59185 57.6152 6.22153 57.7389C5.85121 57.8627 5.48089 57.9452 5.15172 58.1102C4.7814 58.2752 4.45223 58.4815 4.1642 58.6877C3.83503 58.894 3.50586 59.1415 3.21783 59.389C2.9298 59.6365 2.72407 59.9665 2.47719 60.2553C2.18917 60.544 1.94229 60.7915 1.73655 61.1216C1.53082 61.4516 1.28394 61.7816 1.11936 62.1116C0.995915 62.5241 0.913622 62.8954 0.831329 63.3079C0.707889 63.6792 0.625596 64.0917 0.543303 64.4629C0.46101 64.8342 0.378717 65.2467 0.296423 65.618C0.255277 66.0305 0.21413 66.443 0.172984 66.8143C0.131837 67.2268 0.00839724 67.5981 0.00839724 68.0106C-0.0327493 68.4231 0.0906904 68.7944 0.0906904 69.2069C0.131837 69.6194 0.0906904 69.9906 0.131837 70.4032C0.172984 70.8157 0.255277 71.1869 0.33757 71.5995C0.46101 71.9707 0.502156 72.3832 0.625596 72.7545C0.749036 73.1258 0.913622 73.497 1.07821 73.8683C1.20165 74.2396 1.36623 74.5696 1.57197 74.8996C1.73655 75.2296 1.90114 75.5596 2.14802 75.8484C2.35375 76.1371 2.64178 76.4259 2.88866 76.6734C3.17668 76.9622 3.42356 77.2097 3.71159 77.4572C3.99962 77.7047 4.32879 77.911 4.65796 78.1172C4.94599 78.3235 5.31631 78.4472 5.64548 78.6122C5.97465 78.7772 6.30382 78.9835 6.67414 79.1073C7.04446 79.231 7.41478 79.231 7.7851 79.3135C8.15542 79.396 8.48459 79.561 8.89606 79.6023C9.26638 79.6435 9.6367 79.6435 10.0482 79.6848C10.4185 79.6848 10.7888 79.561 11.2003 79.5198C11.5706 79.4785 11.9409 79.5198 12.3524 79.4373C12.7227 79.3548 13.093 79.2723 13.4633 79.1898C13.8336 79.066 14.1628 78.8597 14.5331 78.736C14.8623 78.571 15.2326 78.4472 15.603 78.2822C15.9321 78.1172 16.2613 77.9522 16.5905 77.7047C16.9196 77.4984 17.1665 77.1684 17.4545 76.9209C17.7426 76.6734 18.0717 76.5084 18.3598 76.2196C18.6066 75.9309 18.7712 75.5596 18.977 75.2296C19.1827 74.9408 19.4296 74.6108 19.5942 74.2808C19.7588 73.9096 19.8822 73.5795 20.0468 73.2083C20.1702 72.837 20.2937 72.507 20.376 72.0945C20.4994 71.7232 20.4994 71.352 20.5405 70.9807C20.5817 70.6094 20.664 70.1969 20.664 69.8256C20.7051 69.4544 20.7051 69.0419 20.664 68.6293C20.664 68.2581 20.4994 67.8868 20.2937 67.5568C20.0879 67.268 19.841 66.9793 19.3884 66.8555C19.1004 66.7318 18.6889 66.7318 18.2363 66.7318C17.866 66.7318 17.4957 66.7318 17.1254 66.7318C16.7551 66.6905 16.4259 66.6905 16.0556 66.6905C15.6852 66.6493 15.3149 66.6493 14.9858 66.6493C14.6154 66.6493 14.2451 66.5668 13.8748 66.5668C13.5456 66.5668 13.1753 66.5255 12.805 66.5255C12.4347 66.5255 12.0643 66.5668 11.694 66.5668C11.3649 66.5668 10.9945 66.6493 10.6242 66.6493C10.2539 66.6905 9.92472 66.608 9.51326 66.6493C9.26638 66.6493 9.14294 67.0618 9.0195 67.5156C8.89606 67.8868 8.77262 68.2993 8.73147 68.5468C8.73147 68.8356 8.73147 69.2481 8.85491 69.5781C8.93721 69.9494 9.18408 70.1969 9.43096 70.4032C9.71899 70.5682 10.007 70.6919 10.3773 70.7332C10.7065 70.7744 11.0768 70.7332 11.406 70.7332C11.8175 70.7332 12.1466 70.8569 12.4758 70.8569C12.8461 70.8982 13.1753 70.9394 13.5456 70.9394C13.8748 70.9394 14.204 70.9394 14.6154 70.9394C14.9035 70.9807 15.2738 70.8982 15.6852 70.8982C15.6441 71.2694 15.5207 71.6407 15.4384 71.9707Z" fill="white"/>
<path d="M28.1925 62.1528C28.1925 62.5241 28.1102 62.8954 28.1102 63.3079C28.1102 63.6792 28.1514 64.0504 28.1514 64.4217C28.1514 64.7929 28.1514 65.2055 28.1514 65.5767C28.1514 65.948 28.1514 66.3193 28.1514 66.7318C28.1514 67.103 28.1514 67.4743 28.1514 67.8456C28.1514 68.2581 28.1925 68.6293 28.1925 68.9594C28.1925 69.3719 28.1102 69.7844 28.1102 70.1144C28.1102 70.5682 28.1102 70.9394 28.1102 71.2282C28.0691 71.6407 28.1102 72.012 28.1514 72.3832C28.1925 72.7545 28.2337 73.167 28.2748 73.5383C28.3571 73.9096 28.4805 74.2808 28.604 74.6108C28.7274 74.9821 28.8509 75.3534 29.0154 75.6834C29.18 76.0546 29.4269 76.3434 29.6738 76.6322C29.8795 76.9209 30.1264 77.2509 30.4144 77.4984C30.6613 77.7872 30.9905 77.9522 31.3197 78.1585C31.6488 78.3647 31.9369 78.6122 32.3072 78.7772C32.6363 78.9422 33.0067 78.9835 33.377 79.1073C33.7062 79.231 34.0765 79.3135 34.4057 79.396C34.776 79.4785 35.1463 79.561 35.5166 79.6023C35.8869 79.6435 36.2572 79.726 36.5864 79.726C36.9567 79.726 37.3271 79.6848 37.6974 79.6435C38.0677 79.6435 38.438 79.6023 38.8083 79.5198C39.1786 79.4373 39.549 79.3548 39.8781 79.231C40.2073 79.1073 40.5365 78.901 40.8657 78.736C41.1948 78.571 41.524 78.406 41.812 78.1997C42.1412 77.9935 42.3469 77.6634 42.635 77.4159C42.8818 77.1684 43.211 76.9622 43.4579 76.6734C43.6636 76.3846 43.7871 76.0134 43.9928 75.6834C44.1574 75.3946 44.4043 75.0646 44.5277 74.7346C44.6511 74.4046 44.7334 74.0333 44.8157 73.662C44.898 73.2908 44.9392 72.9195 44.9803 72.5483C45.0215 72.177 45.0215 71.8057 45.0215 71.4345C45.0215 71.0632 45.0215 70.6919 45.0215 70.3619C45.0215 69.9494 45.0215 69.5781 45.0215 69.2481C45.0215 68.8769 45.0626 68.5056 45.0626 68.1756C45.0626 67.7631 44.9803 67.4331 45.0215 67.103C45.0215 66.6905 45.1038 66.3193 45.1038 66.0305C45.1038 65.618 45.0626 65.2467 45.0626 64.9167C45.1038 64.5454 45.1449 64.2154 45.1449 63.8442C45.1449 63.5142 45.1861 63.1841 45.1861 62.7716C45.1861 62.4416 45.1449 62.1116 45.1449 61.6991C45.1449 61.3691 45.1449 60.9978 45.1449 60.5853C45.1449 60.2965 45.1038 59.9253 45.1038 59.5127C45.1449 59.1415 45.1038 58.729 45.0215 58.4402C44.9392 58.0277 44.7334 57.7389 44.4454 57.5739C44.1162 57.4089 43.7459 57.3677 43.3345 57.3264C42.9641 57.2852 42.5938 57.3677 42.2235 57.3677C41.6886 57.3677 41.2771 57.3264 40.948 57.4502C40.5776 57.5739 40.3308 57.8627 40.2896 58.4402C40.2485 58.6877 40.2896 59.059 40.2896 59.389C40.3308 59.719 40.3308 60.049 40.3308 60.379C40.3719 60.7503 40.3308 61.0803 40.3308 61.3691C40.3719 61.7403 40.3719 62.1116 40.3719 62.4416C40.413 62.8129 40.4953 63.1429 40.4953 63.4729C40.4953 63.8442 40.5776 64.1742 40.5776 64.5042C40.6188 64.8755 40.5776 65.2467 40.5776 65.5767C40.6188 65.948 40.6188 66.278 40.6599 66.608C40.6599 66.9793 40.6599 67.3093 40.6599 67.6806C40.6599 68.0106 40.7422 68.3818 40.7422 68.7531C40.7422 69.0831 40.7011 69.4131 40.7011 69.7844C40.7011 70.1144 40.7422 70.4857 40.7422 70.8569C40.7422 71.2694 40.5776 71.5995 40.5365 71.9707C40.4953 72.342 40.3719 72.7133 40.2485 73.0433C40.125 73.4145 40.0016 73.7445 39.7547 74.0333C39.549 74.3221 39.2609 74.5696 38.9318 74.7346C38.6437 74.9408 38.3146 75.1471 37.9443 75.2296C37.6151 75.3121 37.2036 75.3946 36.8333 75.3534C36.4218 75.3946 36.0104 75.3534 35.64 75.2709C35.2697 75.1471 34.8994 74.9821 34.6114 74.7758C34.2822 74.5696 33.9942 74.2808 33.7473 73.9921C33.5416 73.7033 33.4181 73.332 33.2535 72.9608C33.089 72.5895 32.9655 72.2595 32.8832 71.8882C32.8009 71.517 32.8421 71.1044 32.8421 70.7332C32.8009 70.3207 32.7186 69.9907 32.7186 69.6606C32.7186 69.2894 32.7186 68.9181 32.7186 68.6293C32.7186 68.2168 32.8009 67.8868 32.8009 67.5568C32.8421 67.2268 32.8009 66.8968 32.8009 66.5255C32.8009 66.1955 32.8009 65.8655 32.8009 65.453C32.8009 65.123 32.8421 64.7929 32.8421 64.3804C32.8421 64.0504 32.8832 63.6792 32.8832 63.2666C32.8421 62.8954 32.8009 62.5241 32.8009 62.1528C32.8009 61.7816 32.8832 61.3691 32.8832 60.9978C32.8832 60.6265 32.8421 60.2553 32.8009 59.884C32.8009 59.5127 32.8421 59.1002 32.8421 58.7702C32.8421 58.3164 32.7598 57.9864 32.6363 57.7802C32.4306 57.4914 32.1426 57.4089 31.7311 57.3677C31.4431 57.3264 31.1139 57.2852 30.7025 57.3264C30.3321 57.3264 29.9618 57.2439 29.6738 57.2439C29.2623 57.2439 28.9743 57.3677 28.6863 57.5327C28.4805 57.6977 28.2748 57.9039 28.1925 58.3577C28.1514 58.6465 28.1514 59.1827 28.1925 59.6778C28.1925 60.214 28.1514 60.7503 28.1514 61.0391C28.1514 61.3691 28.1925 61.7403 28.1925 62.1528Z" fill="white"/>
<path d="M57.8727 73.9921C57.8316 73.6208 57.7904 73.2495 57.7493 72.837C57.7493 72.4657 57.7904 72.0532 57.7493 71.6407C57.7493 71.2695 57.7081 70.8569 57.667 70.4857C57.667 70.0732 57.6258 69.6606 57.6258 69.2894C57.5847 68.8769 57.5435 68.5056 57.5435 68.1343C57.5435 67.6806 57.5435 67.268 57.5435 66.938C57.5435 66.2368 57.5847 65.8242 57.7081 65.8242C57.8727 65.8242 58.1196 66.1543 58.4487 66.608C58.6133 66.8968 58.8602 67.1855 59.0659 67.5156C59.2717 67.8043 59.3951 68.1756 59.6009 68.4643C59.8066 68.8356 60.0535 69.1244 60.2592 69.3719C60.4238 69.6606 60.6295 69.9494 60.8353 70.2382C61.041 70.5269 61.2056 70.8569 61.4113 71.1457C61.617 71.3932 61.9051 71.6407 62.1108 71.9295C62.3165 72.2182 62.4811 72.5482 62.6868 72.837C62.8926 73.0845 63.0983 73.3733 63.3452 73.662C63.5509 73.9508 63.839 74.1571 64.0447 74.4458C64.2504 74.7346 64.415 75.0646 64.6207 75.3534C64.8265 75.6421 65.0322 75.9309 65.2791 76.2196C65.4848 76.4672 65.7317 76.7559 65.9374 77.0447C66.1432 77.3334 66.39 77.6222 66.5958 77.8697C66.8427 78.1172 67.0895 78.406 67.3776 78.6122C67.6656 78.7772 67.9948 78.9835 68.3651 79.066C68.6531 79.1485 69.0234 79.1073 69.4349 79.1073C69.8464 79.1073 70.1755 79.1898 70.3813 79.1485C70.8339 79.066 70.9985 78.8185 71.0807 78.5297C71.1219 78.2822 71.1219 77.9935 71.163 77.5397C71.163 77.2097 71.2042 76.8384 71.2453 76.4672C71.2453 76.0959 71.2453 75.7246 71.2865 75.3534C71.2865 74.9821 71.2865 74.6108 71.3276 74.2396C71.3276 73.8683 71.2453 73.497 71.2865 73.1258C71.2865 72.7545 71.3276 72.3832 71.3688 72.012C71.3688 71.6407 71.2865 71.2694 71.2865 70.8982C71.2865 70.5269 71.3688 70.1557 71.3688 69.7844C71.3688 69.4131 71.3688 69.0419 71.3688 68.6706C71.3688 68.2993 71.4511 67.9281 71.4511 67.5568C71.4511 67.1855 71.3688 66.8143 71.4099 66.4843C71.4099 66.113 71.4511 65.7417 71.4511 65.3705C71.4511 64.9992 71.4099 64.6279 71.4511 64.2567C71.4511 63.8854 71.5334 63.5142 71.5745 63.1429C71.5745 62.7716 71.4511 62.4004 71.4511 62.0291C71.4511 61.6578 71.5334 61.2866 71.5334 60.9566C71.5334 60.544 71.5745 60.214 71.5745 59.8428C71.5745 59.389 71.5334 58.9765 71.4922 58.6465C71.4099 58.1514 71.2453 57.8214 70.9573 57.6152C70.7104 57.4502 70.3401 57.3264 69.8052 57.3264C69.476 57.3264 69.1057 57.4502 68.6531 57.4914C68.2828 57.5739 67.8713 57.5739 67.4599 57.6564C67.4187 57.9864 67.3776 58.399 67.3776 58.7702C67.3776 59.1415 67.4599 59.5127 67.4599 59.884C67.4187 60.2553 67.4187 60.5853 67.4187 60.9978C67.4187 61.3278 67.3364 61.6991 67.2953 62.0703C67.2953 62.4416 67.3776 62.8129 67.3776 63.1841C67.3776 63.5554 67.3364 63.9267 67.3364 64.2567C67.3364 64.6279 67.2953 64.9992 67.2953 65.3705C67.2953 65.7417 67.213 66.0717 67.213 66.443C67.213 66.8143 67.1718 67.1855 67.1718 67.5156C67.1718 67.9281 67.0895 68.2993 67.0895 68.6293C67.0895 69.0419 67.1307 69.4131 67.1307 69.7019C67.0895 70.4032 67.0484 70.8157 67.0072 70.7744C66.8427 70.4032 66.5958 70.0732 66.39 69.7019C66.1432 69.2894 65.8963 68.9181 65.7317 68.6706C65.526 68.3818 65.3202 68.0518 65.1145 67.7631C64.9088 67.4331 64.6619 67.1443 64.4562 66.8143C64.2504 66.5255 64.0447 66.1955 63.839 65.9067C63.6332 65.5767 63.4275 65.288 63.2218 64.958C63.016 64.6692 62.8926 64.2979 62.6868 63.9679C62.4811 63.6792 62.1931 63.3904 61.9874 63.0604C61.7816 62.7716 61.5759 62.4416 61.3702 62.1528C61.1644 61.8228 61.041 61.4516 60.8353 61.1628C60.6295 60.8328 60.4238 60.544 60.2181 60.214C60.0123 59.9253 59.8066 59.5952 59.6009 59.3065C59.3951 58.9765 59.1482 58.6877 58.9425 58.399C58.7368 58.1102 58.4899 57.9039 58.2019 57.7389C57.9138 57.5739 57.6258 57.4502 57.2966 57.3677C56.9675 57.3264 56.6383 57.2439 56.268 57.2439C55.98 57.2439 55.6096 57.3264 55.2805 57.3677C54.7044 57.3264 54.3341 57.3264 54.0872 57.3264C53.5523 57.3677 53.5935 57.4914 53.5523 58.1514C53.5523 58.4815 53.5523 58.8527 53.5523 59.224C53.5523 59.5952 53.5935 59.9665 53.5935 60.3378C53.5935 60.6678 53.5523 61.0391 53.5523 61.4103C53.5523 61.7816 53.5523 62.1528 53.5523 62.5241C53.5523 62.8954 53.47 63.2666 53.5112 63.6379C53.5112 63.9679 53.5935 64.3392 53.5935 64.7104C53.5935 65.0817 53.5523 65.453 53.5523 65.8242C53.5523 66.1955 53.5523 66.5255 53.5523 66.8968C53.5523 67.268 53.5523 67.6393 53.5523 68.0106C53.5523 68.3818 53.5523 68.7531 53.5523 69.0831C53.5523 69.4544 53.5523 69.8256 53.5523 70.1969C53.5523 70.5269 53.5523 70.8982 53.5523 71.2695C53.5523 71.6407 53.5935 71.9707 53.5523 72.342C53.5523 72.7133 53.5523 73.0845 53.5523 73.4558C53.5523 73.827 53.5935 74.1983 53.5935 74.5696C53.5935 74.9408 53.5935 75.2709 53.5935 75.6421C53.5935 76.0134 53.5935 76.3846 53.5935 76.7147C53.5935 77.0859 53.5935 77.4572 53.5935 77.8285C53.5935 78.241 53.6757 78.5297 53.8403 78.736C54.0049 78.9835 54.2929 79.066 54.6633 79.1485C54.9513 79.1898 55.2805 79.1898 55.6508 79.1898C56.0622 79.1898 56.3914 79.231 56.6794 79.1898C57.0909 79.1073 57.4612 79.0248 57.667 78.8185C57.8727 78.571 57.955 78.241 57.955 77.7872C57.955 77.4572 57.955 76.9622 57.955 76.5084C57.9138 76.0134 57.9138 75.5596 57.9138 75.1884C57.8727 74.8171 57.8727 74.4458 57.8727 73.9921Z" fill="white"/>
<path d="M80.0304 61.6578C80.0304 61.9878 79.9893 62.3591 79.9893 62.7716C79.9893 63.1429 79.9893 63.5142 79.9893 63.9267C79.9893 64.2567 80.0304 64.6279 80.0304 65.0405C80.0304 65.4117 80.0716 65.783 80.0716 66.1543C80.0716 66.5255 79.9482 66.8968 79.9893 67.268C79.9893 67.6393 80.0716 68.0518 80.0716 68.4231C80.0716 68.7944 80.0304 69.1656 80.0304 69.5369C80.0304 69.9081 80.1127 70.2794 80.1127 70.6507C80.1127 71.0219 79.9893 71.3932 79.9893 71.7645C79.9893 72.1357 80.0716 72.5482 80.0716 72.8783C80.0716 73.2908 80.0304 73.662 80.0304 73.9921C80.0304 74.4046 80.0716 74.7758 80.0716 75.1058C80.0716 75.5596 80.0716 75.9309 80.0716 76.2196C80.0716 76.6734 80.1127 77.0859 80.195 77.4159C80.2773 77.911 80.4008 78.2822 80.6065 78.4885C80.8534 78.736 81.2237 78.7772 81.7175 78.8597C82.0466 78.901 82.417 79.0247 82.8696 79.0247C83.2399 79.066 83.6102 78.9835 84.0628 79.0247C84.3508 79.0247 84.7212 79.1073 85.0915 79.1073C85.4207 79.1073 85.791 79.1073 86.1613 79.1485C86.4905 79.1485 86.8608 79.1073 87.19 79.1073C87.5603 79.1485 87.9306 79.1073 88.2186 79.1073C88.6301 79.066 89.0004 79.0247 89.3707 78.9422C89.7411 78.901 90.1525 78.9422 90.5228 78.8185C90.8932 78.736 91.2223 78.4885 91.5515 78.3647C91.9218 78.241 92.251 78.076 92.6213 77.911C92.9505 77.7459 93.3208 77.6634 93.65 77.4572C93.9791 77.2509 94.226 76.9209 94.5141 76.7147C94.8021 76.4259 95.0901 76.2196 95.3781 75.9309C95.625 75.6421 95.8719 75.3534 96.0776 75.0233C96.2833 74.6933 96.4479 74.3633 96.6125 73.9921C96.736 73.662 96.8183 73.2908 96.9417 72.9608C97.0651 72.5895 97.2709 72.2595 97.3532 71.8882C97.4766 71.517 97.5177 71.1869 97.6 70.8157C97.6823 70.4444 97.6823 70.0732 97.7235 69.7019C97.7235 69.3306 97.7646 68.9594 97.7646 68.5881C97.7646 68.2168 97.8469 67.8456 97.8058 67.4743C97.8058 67.103 97.7235 66.7318 97.6823 66.3605C97.6412 65.9892 97.5589 65.618 97.4766 65.2467C97.3943 64.8755 97.2709 64.5454 97.1886 64.1742C97.0651 63.8029 97.024 63.4316 96.9006 63.1016C96.7771 62.6891 96.6948 62.3179 96.5302 61.9466C96.3656 61.5753 96.1188 61.2453 95.9542 60.9153C95.7484 60.5853 95.4604 60.2965 95.2135 59.9665C94.9667 59.6778 94.7198 59.389 94.4318 59.1002C94.1437 58.8527 93.8146 58.6465 93.4854 58.4402C93.1151 58.2339 92.827 57.9864 92.4567 57.8214C92.0864 57.6977 91.6749 57.7389 91.2635 57.6564C90.9754 57.6152 90.6051 57.4914 90.2348 57.4914C89.9056 57.4502 89.5353 57.4502 89.165 57.4502C88.8358 57.4089 88.4655 57.3677 88.0952 57.3677C87.766 57.3677 87.3957 57.4089 87.0665 57.4089C86.6962 57.3677 86.3259 57.3677 85.9967 57.3677C85.6264 57.3677 85.2561 57.3264 84.9269 57.3264C84.5566 57.3677 84.1863 57.4089 83.8571 57.4089C83.4868 57.4089 83.1164 57.4089 82.8284 57.4089C82.3758 57.4502 81.9643 57.4914 81.6352 57.6152C81.2649 57.7802 80.9357 58.0277 80.7299 58.3164C80.4831 58.6052 80.2773 58.9352 80.1539 59.3477C80.0716 59.719 80.1127 60.1315 80.0716 60.544C80.0716 60.8328 80.0304 61.2041 80.0304 61.6578ZM84.392 73.2495C84.392 72.8783 84.3097 72.507 84.3097 72.1357C84.3097 71.7645 84.3097 71.3932 84.3097 71.0219C84.3097 70.6919 84.3508 70.3207 84.3508 69.9494C84.3508 69.5781 84.3097 69.2069 84.3508 68.8356C84.3508 68.4643 84.2685 68.0931 84.2685 67.7218C84.2685 67.3918 84.3508 67.0205 84.3508 66.6493C84.392 66.278 84.3508 65.9067 84.3508 65.5767C84.3508 65.2055 84.2685 64.8342 84.2685 64.4629C84.2685 64.0917 84.2685 63.7617 84.2685 63.3904C84.2685 63.0191 84.3097 62.6479 84.3097 62.2766C84.2685 61.5341 84.5154 61.4103 85.0092 61.4103C85.3384 61.4103 85.791 61.4928 86.367 61.4928C86.7373 61.4516 87.1488 61.4103 87.5191 61.4516C87.8895 61.4928 88.3009 61.6166 88.6712 61.7403C89.0416 61.8228 89.3707 61.9878 89.7411 62.1528C90.0702 62.3179 90.4405 62.4416 90.7697 62.6479C91.0989 62.8541 91.428 63.1016 91.7161 63.3491C91.963 63.6379 92.2098 63.9267 92.4567 64.2567C92.6625 64.5867 92.8682 64.9167 92.9916 65.288C93.1151 65.6592 93.0739 66.0717 93.1151 66.443C93.1562 66.773 93.2796 67.1443 93.2796 67.4743C93.2796 67.8043 93.1974 68.1756 93.1974 68.5056C93.1974 68.8769 93.1974 69.2069 93.1974 69.5369C93.1562 69.9494 93.0739 70.3207 92.9916 70.6919C92.9093 71.1044 92.827 71.4757 92.6625 71.8057C92.4979 72.177 92.2921 72.4657 92.0452 72.7545C91.7572 73.0433 91.4692 73.2495 91.14 73.497C90.8109 73.7033 90.4817 73.9096 90.1114 74.0333C89.7822 74.1983 89.4119 74.2808 89.0004 74.3633C88.6301 74.4046 88.2598 74.4458 87.8483 74.4871C87.478 74.5283 87.1077 74.5696 86.6962 74.5696C86.3259 74.5696 85.9556 74.4871 85.5441 74.4458C85.1738 74.4046 84.7623 74.4458 84.3508 74.3633C84.3508 73.9921 84.4331 73.6208 84.392 73.2495Z" fill="white"/>
<path d="M105.629 63.2254C105.629 63.5967 105.588 64.0092 105.547 64.4217C105.547 64.7929 105.629 65.1642 105.629 65.5767C105.629 65.948 105.629 66.3193 105.629 66.7318C105.629 67.103 105.588 67.5156 105.588 67.8868C105.588 68.2993 105.588 68.6706 105.588 69.0831C105.588 69.4544 105.506 69.8669 105.506 70.2382C105.506 70.6094 105.547 71.0219 105.547 71.3932C105.547 71.8057 105.465 72.177 105.506 72.5483C105.506 72.9608 105.506 73.332 105.506 73.7033C105.506 74.1571 105.506 74.5283 105.547 74.8583C105.547 75.1884 105.588 75.6009 105.588 76.0546C105.588 76.4259 105.547 76.8384 105.547 77.2097C105.547 77.6634 105.547 78.076 105.547 78.406C105.547 78.7772 105.835 79.1073 106.205 79.1073C106.535 79.1073 106.946 79.066 107.399 79.066C107.769 79.066 108.18 79.1485 108.551 79.1485C109.003 79.1485 109.374 79.066 109.744 79.066C110.114 79.066 110.485 79.066 110.896 79.1073C111.266 79.1073 111.637 79.1485 112.007 79.1485C112.377 79.1485 112.789 79.1073 113.159 79.1073C113.53 79.1073 113.9 79.1485 114.27 79.1485C114.682 79.1485 115.052 79.1485 115.422 79.1485C115.793 79.1073 116.163 79.0247 116.574 79.0247C116.945 79.0247 117.315 79.066 117.685 79.066C118.097 79.0247 118.385 79.0247 118.632 79.0247C118.961 79.0247 119.249 78.9835 119.537 78.901C119.784 78.8597 120.072 78.7772 120.442 78.6122C120.689 78.4885 120.854 78.1997 120.895 77.8697C120.936 77.5397 120.977 77.1684 120.977 76.9209C120.936 76.6322 120.895 76.2196 120.895 75.8071C120.895 75.3534 120.895 74.8996 120.607 74.7758C120.236 74.6108 119.825 74.5696 119.372 74.5283C118.961 74.4871 118.508 74.4871 118.097 74.4871C117.727 74.4871 117.356 74.4458 117.068 74.4458C116.657 74.4871 116.328 74.4871 115.998 74.5283C115.628 74.5283 115.299 74.5283 114.929 74.5696C114.599 74.5696 114.27 74.6521 113.859 74.6108C113.53 74.6108 113.2 74.5696 112.83 74.5696C112.501 74.5696 112.172 74.6521 111.843 74.6521C111.472 74.6521 111.102 74.5696 110.814 74.5283C110.238 74.5283 110.114 74.9408 109.826 74.5283C109.456 74.0333 109.868 73.9921 109.909 73.2908C109.95 72.8783 109.868 72.4657 109.909 72.012C109.909 71.5582 109.95 71.1457 109.95 70.7332C109.991 70.3207 109.95 69.9907 109.95 69.6606C109.95 69.2894 110.073 68.9181 110.073 68.5881C110.073 68.2168 109.991 67.8868 109.991 67.5568C109.991 67.1855 110.073 66.8555 110.073 66.5255C110.114 66.1543 110.114 65.8242 110.156 65.453C110.156 65.123 110.114 64.7929 110.114 64.4217C110.156 64.0917 110.156 63.7204 110.156 63.3491C110.197 63.0191 110.197 62.6891 110.197 62.2766C110.197 61.9466 110.156 61.6166 110.156 61.2041C110.156 60.874 110.238 60.544 110.238 60.214C110.238 59.884 110.238 59.554 110.279 59.224C110.279 58.894 110.156 58.564 110.156 58.2339C110.156 57.9039 109.909 57.6977 109.579 57.5739C109.291 57.4502 109.003 57.3264 108.674 57.2852C108.263 57.2439 107.892 57.3264 107.687 57.3677C107.399 57.4089 106.864 57.3264 106.411 57.4914C106 57.5739 105.712 57.7802 105.671 58.3577C105.671 58.729 105.629 59.1827 105.629 59.5952C105.629 60.0078 105.629 60.4203 105.671 60.8328C105.671 61.2866 105.629 61.6991 105.588 62.0703C105.588 62.4004 105.629 62.8129 105.629 63.2254Z" fill="white"/>
<path d="M133.036 75.6009C133.447 75.6009 133.859 75.5596 134.27 75.5596C134.681 75.5596 135.093 75.5596 135.463 75.5596C135.875 75.5184 136.286 75.5596 136.698 75.5596C136.986 75.5184 137.315 75.4771 137.644 75.4771C137.973 75.4359 138.302 75.4771 138.632 75.4771C139.002 75.4359 139.331 75.4359 139.578 75.4359C139.784 75.3946 139.989 75.5596 140.072 75.7659C140.154 76.0546 140.277 76.5084 140.483 77.0034C140.607 77.3747 140.895 77.7872 141.059 78.1585C141.183 78.6122 141.471 78.8185 141.882 78.9422C142.211 79.066 142.623 79.1898 143.075 79.1898C143.487 79.1898 143.898 79.1073 144.31 79.1073C144.886 79.1073 145.297 79.0247 145.585 78.8597C145.997 78.6947 146.12 78.3647 145.873 77.746C145.75 77.4572 145.585 77.1272 145.421 76.7147C145.297 76.3846 145.133 76.0546 144.968 75.6834C144.845 75.3534 144.762 74.9821 144.598 74.6521C144.474 74.2808 144.31 73.9508 144.186 73.6208C144.022 73.2495 143.898 72.9195 143.734 72.5895C143.61 72.2182 143.528 71.847 143.405 71.517C143.24 71.1869 143.034 70.8569 142.87 70.4857C142.746 70.1557 142.623 69.7431 142.499 69.4131C142.376 69.0419 142.294 68.6706 142.129 68.2993C142.006 67.9281 141.8 67.5981 141.635 67.268C141.512 66.8968 141.388 66.5255 141.265 66.1543C141.1 65.783 140.977 65.453 140.812 65.0817C140.689 64.7104 140.483 64.3804 140.36 64.0092C140.236 63.6792 140.072 63.3079 139.907 62.9366C139.784 62.6066 139.701 62.1941 139.578 61.8641C139.454 61.4928 139.208 61.1628 139.043 60.7915C138.92 60.4615 138.796 60.0903 138.673 59.719C138.508 59.3477 138.302 59.0177 138.179 58.6877C137.973 58.1927 137.85 57.7802 137.644 57.5327C137.315 57.2027 136.903 57.1614 136.451 57.1202C136.08 57.0789 135.669 57.0789 135.216 57.0789C134.887 57.1202 134.435 57.0789 133.941 57.3677C133.653 57.5327 133.324 57.8214 133.036 58.3164C132.871 58.6465 132.706 59.059 132.583 59.554C132.46 59.9253 132.295 60.2553 132.172 60.5853C132.007 60.9566 132.007 61.3278 131.883 61.6991C131.76 62.0291 131.554 62.3591 131.431 62.7304C131.266 63.0604 131.225 63.4729 131.102 63.8029C130.978 64.1742 130.773 64.5042 130.649 64.8342C130.526 65.2055 130.402 65.5767 130.279 65.9067C130.155 66.278 130.073 66.6493 129.908 66.9793C129.785 67.3505 129.662 67.7218 129.538 68.0518C129.415 68.4231 129.291 68.7944 129.168 69.1244C129.044 69.4956 128.839 69.7844 128.715 70.1557C128.592 70.5269 128.592 70.8982 128.468 71.2695C128.304 71.5995 128.18 71.9707 128.057 72.3007C127.933 72.672 127.728 73.002 127.604 73.332C127.481 73.7033 127.44 74.0746 127.316 74.4458C127.193 74.7758 127.028 75.1059 126.905 75.4771C126.822 75.6421 126.658 76.0134 126.493 76.4259C126.37 76.7559 126.246 77.0859 126.164 77.4159C126 77.8285 125.917 78.241 125.917 78.406C125.835 79.0247 126.041 79.1485 126.534 79.1485C126.822 79.1485 127.234 79.1073 127.728 79.1485C127.933 79.1485 128.304 79.1485 128.674 79.1073C129.003 79.1073 129.332 79.1073 129.62 79.0247C129.991 78.9422 130.32 78.8185 130.443 78.571C130.649 78.1997 130.773 77.8697 130.896 77.5809C131.061 77.2509 131.184 76.9209 131.349 76.5909C131.513 76.2609 131.637 75.9309 131.801 75.5596C132.213 75.5596 132.665 75.6009 133.036 75.6009ZM133.324 70.1144C133.488 69.7431 133.735 69.4131 133.859 69.0419C134.023 68.6706 134.064 68.2168 134.229 67.8456C134.352 67.4743 134.517 67.103 134.681 66.7318C134.846 66.3605 135.052 66.0305 135.216 65.618C135.381 65.2467 135.463 64.8342 135.587 64.4217C135.792 64.7517 135.998 65.0817 136.163 65.4117C136.368 65.7417 136.492 66.0717 136.656 66.3605C136.821 66.6905 136.986 67.0205 137.15 67.3093C137.315 67.6393 137.479 67.9693 137.644 68.2993C137.767 68.6293 137.85 69.0006 137.973 69.3306C138.138 69.6606 138.302 69.9906 138.426 70.3207C138.59 70.6507 138.796 70.9807 138.92 71.3107C138.508 71.3107 138.097 71.352 137.685 71.352C137.315 71.352 136.903 71.2695 136.492 71.2695C136.122 71.2695 135.71 71.3107 135.299 71.3107C134.928 71.3107 134.517 71.3107 134.105 71.3107C133.735 71.3107 133.282 71.3107 132.871 71.3107C133.036 70.9394 133.159 70.4857 133.324 70.1144Z" fill="white"/>
<g clip-path="url(#clip0)">
<path d="M74.0113 40.2517C74.0113 40.2517 73.0573 41.4138 71.9973 41.4138C70.9373 41.5195 69.5593 39.5121 69.5593 39.5121C69.6653 39.1952 69.5593 38.9839 69.3473 38.8783C68.4993 38.1387 67.7573 37.2935 67.3333 36.237C67.1213 35.7088 67.0153 35.0749 66.9093 34.5467C66.9093 34.441 66.9093 34.2297 66.9093 34.1241C66.6973 34.1241 66.4853 34.1241 66.2733 34.2297C65.8493 34.3354 65.3193 34.3354 64.8953 34.2297C64.6833 34.1241 64.5773 34.2297 64.3653 34.3354C63.0933 35.1806 61.7153 35.7088 60.3373 36.237C59.2773 36.6596 58.1113 36.9766 56.9453 37.1879C56.2033 37.2935 55.4613 37.3992 54.7193 37.3992C54.5073 37.3992 54.2953 37.2935 54.1893 37.1879C53.9773 36.9766 53.9773 36.6596 54.0833 36.4483C53.7653 36.4483 53.4473 36.554 53.2353 36.554C52.9173 36.6596 52.5993 36.554 52.3873 36.554C51.4333 36.4483 50.9033 35.8145 51.0093 34.758C51.1153 33.8071 51.5393 33.0676 51.9633 32.2224C52.2813 31.6942 52.5993 31.2716 52.9173 30.849C53.0233 30.7433 53.1293 30.6377 53.2353 30.532C52.8113 30.7433 52.4933 30.9546 52.0693 31.2716C50.0553 32.5394 47.9353 33.7015 45.6032 34.441C44.3312 34.8636 42.9532 35.0749 41.5752 34.9693C40.7272 34.8636 39.8792 34.8636 39.1372 34.6523C38.6072 34.5467 38.3952 34.0184 38.6072 33.4902C38.9252 32.645 39.5612 31.9055 40.1972 31.2716C40.9392 30.4264 41.8932 29.6869 42.7412 28.9473C42.6352 28.6304 42.7412 28.5247 42.9532 28.4191C42.9532 28.3134 42.8472 28.4191 42.8472 28.4191C41.5752 28.5247 40.4092 28.5247 39.2432 28.3134C38.8192 28.2078 38.2892 28.1021 37.8652 27.7852C37.4412 27.4682 37.2292 27.1513 37.3352 26.8343C37.4412 26.6231 37.5472 26.3061 37.7592 26.0948C38.3952 25.4609 39.1372 25.0383 39.8792 24.6157C39.9852 24.5101 40.1972 24.4044 40.3032 24.4044C40.4092 24.4044 40.4092 24.2988 40.4092 24.1931C40.4092 23.5593 40.9392 23.1367 41.3632 22.8197C42.4232 22.1858 43.4832 21.8689 44.6492 21.6576C46.7693 21.235 48.8893 21.0237 51.0093 20.918C50.5853 20.8124 50.1613 20.7067 49.7373 20.6011C49.1013 20.4955 48.3593 20.2842 47.7233 20.0729C47.1933 19.8616 46.5573 19.9672 46.0272 20.0729C44.9672 20.1785 43.9072 20.1785 42.8472 20.2842C41.9992 20.2842 41.1512 20.2842 40.3032 20.2842C38.2892 20.2842 36.2752 20.2842 34.3672 19.9672C34.0492 19.9672 33.8372 19.8616 33.5192 19.7559C33.4132 19.6503 33.3072 19.6503 33.3072 19.439C33.3072 19.3333 33.4132 19.2277 33.5192 19.122C34.1552 18.6994 34.7912 18.5938 35.5332 18.3825C36.8052 18.0655 38.0772 17.7486 39.3492 17.5373C39.7732 17.4317 40.3032 17.4317 40.7272 17.326C40.8332 17.326 40.9392 17.326 41.0452 17.2204C40.9392 17.1147 40.8332 17.1147 40.7272 17.0091C40.5152 17.0091 40.5152 17.0091 40.7272 16.6921C40.3032 16.6921 39.7732 16.6921 39.3492 16.5865C38.6072 16.4808 37.8652 16.2695 37.1232 15.8469C36.8052 15.6356 36.5932 15.4243 36.4872 15.1074C36.5932 15.0017 36.6992 15.0017 36.8052 15.0017C36.8052 14.8961 36.5932 14.8961 36.4872 14.7904C36.6992 14.2622 37.5472 13.6283 38.0772 13.734C37.9712 13.417 37.8652 13.2057 37.7592 12.8888C37.5472 12.2549 37.7592 12.0436 38.3952 11.9379C38.5012 11.9379 38.6072 11.9379 38.6072 11.8323C38.6072 11.7266 38.5012 11.621 38.3952 11.5153C37.9712 10.9871 38.1832 10.4589 38.8192 10.3532C39.2432 10.2476 39.4552 10.2476 39.7732 10.2476C39.8792 10.2476 39.9852 10.2476 40.0912 10.2476C39.9852 9.93062 40.1972 9.50803 40.4092 9.40238C40.8332 9.08544 41.3632 8.97979 41.8932 8.97979C41.9992 8.97979 42.1052 8.97979 42.2112 8.97979C42.2112 8.66284 42.2112 8.45155 42.1052 8.24025C41.9992 8.02895 41.9992 7.92331 42.1052 7.71201C42.2112 6.97247 42.4232 6.86682 43.1652 6.86682C44.3312 6.86682 45.3912 7.28942 46.4513 7.71201C47.7233 8.24025 48.8893 8.87414 50.0553 9.61368C50.4793 9.93062 51.0093 9.82498 51.4333 9.93062C51.8573 10.0363 52.2813 10.0363 52.7053 10.0363C52.3873 9.71933 52.2813 9.40238 51.7513 9.19108C51.5393 8.87414 50.1613 8.1346 50.2673 7.28942C50.2673 7.07812 50.2673 6.86682 50.3733 6.76118C50.4793 6.54988 50.4793 6.44423 50.4793 6.23293C50.2673 5.59904 50.0553 4.96515 50.1613 4.33126C50.2673 3.69737 50.2673 2.95784 50.6913 2.32395C50.7973 2.2183 50.7973 2.2183 50.9033 2.2183C51.2213 2.2183 51.5393 2.32395 51.8573 2.53524C52.2813 2.74654 52.5993 3.06349 52.9173 3.38043C53.6593 4.22562 54.2953 5.0708 54.9313 6.02164C55.1433 6.12729 55.3553 6.23293 55.5673 6.33858C56.8393 6.65553 58.1113 7.18377 59.2773 7.71201C59.3833 7.71201 59.4893 7.81766 59.7013 7.81766C59.4893 7.39506 59.4893 6.97247 59.2773 6.65553C59.1713 6.23293 59.0653 5.70469 59.0653 5.2821C59.0653 4.85951 59.1713 4.43691 59.2773 4.11997C59.3833 3.80302 59.5953 3.48608 59.8073 3.27478C60.0193 3.06349 60.3373 2.95784 60.6553 2.95784C60.7613 2.95784 60.8673 2.95784 60.9733 2.95784C61.1853 2.64089 61.2913 2.53524 61.8213 2.53524C62.0333 2.53524 62.0333 2.53524 62.1393 2.4296C62.2453 2.2183 62.4573 2.11265 62.7753 2.007C63.7293 1.58441 64.6833 1.69006 65.6373 2.2183C66.0613 2.4296 66.3793 2.74654 66.9093 2.95784C66.9093 2.64089 67.0153 2.32395 67.1213 2.11265C67.7573 0.844871 69.4533 -0.000314981 70.9373 0.633575C71.5733 0.844871 72.1033 1.37311 72.5273 1.90135C72.6333 2.11265 72.7393 2.007 72.8453 2.007C73.2693 1.79571 73.6933 1.69006 74.2233 1.69006C74.8593 1.69006 75.6014 1.69006 76.2374 2.11265C76.8734 2.4296 77.2974 3.06349 77.5094 3.80302C77.6154 3.69737 77.6154 3.90867 77.6154 4.01432C77.7214 4.01432 77.7214 3.90867 77.8274 3.80302C78.5694 2.64089 79.4174 1.58441 80.6894 0.95052C81.8554 0.422278 83.0214 0.210982 84.2934 0.422278C85.2474 0.633575 85.7774 1.37311 85.6714 2.4296C85.6714 2.53524 85.6714 2.64089 85.6714 2.74654C86.0954 2.64089 86.5194 2.53524 86.9434 2.4296C87.5794 2.32395 88.2154 2.2183 88.8514 2.4296C89.4874 2.64089 89.8054 3.06349 89.8054 3.80302C89.8054 4.22562 89.6994 4.54256 89.5934 4.96515C90.1234 4.85951 90.6534 5.0708 91.0774 5.38775C91.2894 5.4934 91.3954 5.4934 91.6074 5.38775C92.7734 4.85951 94.0454 4.33126 95.4234 4.33126C96.0594 4.33126 96.6954 4.43691 97.2254 4.75386C97.5434 4.96515 97.5434 5.38775 97.5434 5.70469C97.5434 6.02164 97.4374 6.23293 97.2254 6.54988C97.1194 6.65553 97.1194 6.76117 97.0134 6.97247C97.3314 6.97247 97.6494 6.97247 97.9674 7.07812C98.2854 7.18377 98.4974 7.39506 98.4974 7.71201V7.81766C98.4974 7.81766 98.4974 7.81766 98.4974 7.92331C98.8154 7.81766 99.1334 7.71201 99.5574 7.71201C100.511 7.39506 101.465 7.18377 102.419 7.39506C102.843 7.50071 103.161 7.71201 103.479 7.92331C103.797 8.1346 103.797 8.76849 103.479 9.08544C103.055 9.61368 102.631 10.0363 102.101 10.4589C102.631 10.4589 103.055 10.4589 103.585 10.5645C103.903 10.6702 104.221 10.7758 104.433 10.9871C104.539 11.0928 104.645 11.1984 104.539 11.3041C104.539 11.5153 104.645 11.5153 104.857 11.5153C105.599 11.5153 106.235 11.621 106.977 11.8323C107.401 11.9379 107.719 12.1492 108.037 12.3605C108.461 12.6775 108.461 13.2057 107.931 13.5227C107.401 13.9453 106.765 14.1566 106.129 14.3679C106.023 14.3679 106.023 14.3679 105.917 14.4735C106.765 14.4735 107.613 15.4243 108.355 15.7413C109.097 15.9526 109.627 17.326 109.309 17.326C109.627 17.4317 109.733 17.6429 109.839 17.7486C110.263 18.1712 110.051 18.6994 109.521 19.0164C108.991 19.3333 108.355 19.439 107.719 19.5446C107.401 19.5446 107.083 19.6503 106.765 19.6503C106.765 19.8616 106.765 20.0729 106.977 20.1785C108.037 20.6011 108.991 21.1293 109.945 21.7632C110.369 22.0802 110.793 22.2915 111.111 22.8197C111.217 23.031 111.217 23.2423 111.111 23.5593C111.005 23.6649 111.111 23.7705 111.111 23.8762C111.323 24.2988 111.217 24.5101 110.793 24.6157C110.475 24.7214 110.051 24.827 109.627 24.827C109.521 24.827 109.415 24.9327 109.309 25.0383C108.991 25.4609 108.567 25.7779 107.931 25.7779C107.825 25.7779 107.719 25.7779 107.719 25.8835C107.719 26.2005 107.401 26.3061 107.189 26.5174C107.083 26.6231 106.977 26.6231 106.871 26.7287C107.083 27.0456 107.401 27.3626 107.613 27.6795C107.825 27.8908 107.931 28.1021 107.931 28.4191C107.931 28.6304 107.931 28.8417 107.719 28.8417C107.825 28.9473 107.825 29.053 107.825 29.2643C107.931 29.4756 107.825 29.5812 107.719 29.7925C107.613 29.8982 107.613 29.8981 107.613 30.0038C107.507 30.6377 107.083 31.0603 106.659 31.2716C105.811 31.6942 104.963 31.9055 104.009 32.1168C103.479 32.2224 102.949 32.3281 102.419 32.3281C102.313 32.3281 102.207 32.4337 102.207 32.4337C101.889 32.7507 101.677 33.0676 101.359 33.2789C100.723 33.7015 99.9814 33.9128 99.2394 34.0184C97.2254 34.3354 95.2114 34.0184 93.1974 33.7015C92.6674 33.5958 92.1374 33.4902 91.5014 33.3845C91.5014 33.5958 91.6074 33.7015 91.6074 33.9128C92.0314 34.9693 92.1374 36.0257 92.0314 37.0822C91.9254 37.9274 91.3954 38.35 90.5474 38.2444H90.4414C90.3354 38.5613 90.2294 38.8783 89.9114 39.0896C89.4874 39.4065 89.0634 39.4065 88.5334 39.4065C87.2614 39.4065 86.0954 39.0895 85.0354 38.667C84.7174 38.5613 84.2934 38.35 83.9754 38.2444C84.1874 39.1952 84.1874 40.146 83.9754 41.0969C83.7634 42.0477 83.4454 42.8929 82.8094 43.6324C82.4914 44.055 82.0674 44.4776 81.3254 44.372C81.2194 44.372 81.2194 44.372 81.1134 44.4776C80.9014 44.7946 80.5834 44.7946 80.2654 44.7946C79.5234 44.6889 78.8874 44.4776 78.2514 44.1607C77.2974 43.7381 76.4494 43.2098 75.7074 42.4703C75.1773 42.0477 74.5413 41.5195 74.1173 40.8856L74.0113 40.2517Z" fill="#F2B449"/>
<path d="M61.2908 15.6362C60.7608 16.3757 60.6548 17.2209 60.9728 18.0661C61.8208 20.0734 65.0008 24.2993 76.2368 23.1372C88.5329 21.8694 87.0489 16.7983 86.3069 15.1079C86.2009 14.791 85.9889 14.5797 85.6709 14.3684C84.1869 13.1006 77.8268 8.45207 66.9088 12.0441C63.5168 13.3119 62.0328 14.6853 61.2908 15.6362Z" fill="black"/>
<path d="M62.0043 31.6748C62.4294 32.6271 63.2797 33.2619 64.13 33.5794C64.9803 34.0026 65.9369 33.8968 66.8935 33.5794L67.106 33.4735V33.791C67.2123 34.7432 67.5312 35.6955 67.9563 36.542C68.3815 37.3885 69.1255 38.1291 69.8695 38.6582H69.9758V38.764L70.6135 39.822V39.9279C70.7198 40.1395 70.8261 40.3511 71.0386 40.5627C71.2512 40.6685 71.4638 40.7743 71.7826 40.7743C72.3141 40.7743 72.9518 40.4569 73.4832 40.0337V40.1395C73.6958 39.9279 74.0147 39.822 74.3335 39.822C74.5461 39.822 74.6524 39.9279 74.8649 40.0337L75.0775 40.2453C75.2901 40.5627 75.6089 40.7743 75.8215 41.0917C76.353 41.6208 76.8844 42.1498 77.6284 42.5731C78.2661 42.9963 79.0101 43.3137 79.6478 43.6311C79.9667 43.8428 80.2855 43.9486 80.7107 43.9486C80.9233 43.9486 81.0295 43.9486 81.2421 43.9486C81.3484 43.9486 81.4547 43.9486 81.4547 43.8428L81.561 43.6311H81.7735C82.0924 43.6311 82.4113 43.6311 82.6238 43.5253C82.8364 43.4195 83.049 43.2079 83.2616 42.9963C83.5804 42.4673 83.8993 41.9382 84.1118 41.4092C84.537 40.2453 84.6433 38.9756 84.537 37.8117C84.6433 38.4465 84.7496 39.0814 84.7496 39.7162C84.7496 40.3511 84.6433 40.9859 84.4307 41.6208C84.2181 42.2556 84.0056 42.7847 83.5804 43.4195C83.3678 43.737 83.1553 43.9486 82.8364 44.1602C82.5176 44.3718 82.0924 44.3718 81.7735 44.3718L81.9861 44.1602C81.8798 44.4776 81.561 44.6892 81.3484 44.6892C81.1358 44.6892 80.9233 44.6892 80.7107 44.6892C80.2855 44.5834 79.8604 44.4776 79.5415 44.3718C78.7975 44.0544 78.0535 43.737 77.4158 43.2079C76.7781 42.7847 76.0341 42.2556 75.5027 41.6208C75.1838 41.3034 74.9712 40.9859 74.6524 40.6685L74.4398 40.4569C74.4398 40.4569 74.3335 40.4569 74.2272 40.5627C73.5895 40.8801 72.9518 41.3034 72.2078 41.3034C71.7826 41.3034 71.3575 41.3034 71.0386 40.9859C70.7198 40.6685 70.5072 40.3511 70.4009 39.9279V40.0337L69.8695 38.9756L69.9758 39.0814C69.1255 38.4465 68.3815 37.7059 67.85 36.7536C66.9998 36.0129 66.7872 34.9549 66.7872 33.8968L67.106 34.1084C66.5746 34.2142 66.1495 34.32 65.618 34.32C65.0866 34.32 64.5552 34.1084 64.13 33.8968C63.7049 33.6852 63.2797 33.3677 62.8546 33.0503C62.4294 32.6271 62.2169 32.2038 62.0043 31.6748Z" fill="#B58134"/>
<path d="M43.9363 28.2887C43.2986 28.1829 42.9797 28.6062 42.6609 28.9236L41.598 29.9817C41.2792 30.2991 40.854 30.6165 40.5352 31.0398C40.2163 31.463 39.8974 31.7804 39.5786 32.2036C39.2597 32.6269 39.0471 32.9443 38.9409 33.3675C38.9409 33.4734 38.8346 33.5792 38.8346 33.685C38.8346 33.7908 38.8346 33.7908 38.8346 33.7908L38.9409 33.8966C39.0471 33.8966 39.1534 33.8966 39.2597 34.0024C39.4723 34.1082 39.6849 34.1082 40.0037 34.1082L40.7477 34.214C41.2792 34.3198 41.7043 34.3198 42.2357 34.3198C44.2552 34.214 46.1683 33.685 47.9752 32.8385C49.7821 32.0978 51.5889 30.9339 53.5021 30.1933C52.6518 30.6165 51.8015 31.3572 50.9512 31.8862C50.1009 32.4153 49.2506 32.9443 48.2941 33.4734C46.4872 34.5314 44.4677 35.1663 42.342 35.2721C41.8106 35.2721 41.2792 35.2721 40.7477 35.1663L40.0037 35.0605C39.7911 35.0605 39.4723 34.9547 39.1534 34.9547C39.0471 34.9547 38.9409 34.8489 38.7283 34.8489C38.5157 34.7431 38.4094 34.6372 38.3031 34.4256C38.1969 34.214 38.1969 34.0024 38.1969 33.7908C38.1969 33.5792 38.3031 33.4734 38.3031 33.3675C38.5157 32.8385 38.8346 32.3095 39.1534 31.992C39.4723 31.5688 39.7911 31.2514 40.2163 30.8281C40.5352 30.4049 40.9603 30.1933 41.3854 29.8759L42.6609 28.9236C42.6609 28.6062 42.8735 28.5004 43.086 28.3945C43.4049 28.1829 43.6175 28.1829 43.9363 28.2887Z" fill="#B58134"/>
<path d="M58.6037 20.2473L56.6905 19.7183L54.6711 19.4009C53.2894 19.2951 52.0139 19.0835 50.6322 18.8718L46.5933 18.5544L42.5544 18.0254C42.1293 17.9196 41.8104 17.8138 41.4916 17.7079C41.279 17.7079 40.8539 17.8138 40.4287 17.9196C39.6847 18.0254 38.8344 18.237 38.0904 18.3428C37.3464 18.4486 36.6024 18.6602 35.8584 18.8718C35.4333 18.9776 35.1144 19.0835 34.7956 19.1893L34.2641 19.4009C34.1578 19.4009 34.0515 19.5067 33.839 19.7183L33.9453 19.5067C33.9453 19.6125 33.9453 19.5067 33.9453 19.4009C33.9453 19.2951 33.9453 19.4009 33.9453 19.4009C34.0515 19.4009 34.1578 19.5067 34.2641 19.5067C34.4767 19.6125 34.7956 19.6125 35.0081 19.7183C35.5396 19.8241 36.1773 19.8241 36.7087 19.8241C37.8779 19.9299 39.047 19.9299 40.1099 20.0357C41.279 20.0357 42.4482 20.0357 43.511 20.0357H45.2116H46.0619C46.3808 20.0357 46.5933 20.0357 46.9122 19.9299C46.6996 20.0357 46.3808 20.0357 46.0619 20.1415L45.2116 20.2473L43.511 20.459C42.3419 20.5648 41.1727 20.5648 40.0036 20.5648C38.8344 20.5648 37.6653 20.5648 36.4961 20.5648C35.9647 20.5648 35.327 20.5648 34.7956 20.459C34.4767 20.459 34.1578 20.3532 33.9453 20.2473C33.839 20.2473 33.6264 20.1415 33.5201 20.1415C33.4138 20.1415 33.3075 20.0357 33.2013 19.9299C33.095 19.6125 33.095 19.4009 33.095 19.2951V19.1893L33.3075 19.0835C33.4138 18.9776 33.6264 18.8718 33.839 18.766L34.3704 18.5544C34.7956 18.4486 35.1144 18.3428 35.5396 18.1312C36.2836 17.9196 37.1338 17.7079 37.8779 17.6021C38.6219 17.4963 39.4721 17.2847 40.2162 17.1789C40.6413 17.1789 40.9602 16.9673 41.4916 16.9673C42.023 16.9673 42.3419 17.1789 42.6607 17.2847H42.5544L46.5933 17.8138C47.975 17.9196 49.2505 18.1312 50.6322 18.3428C52.0139 18.5544 53.2894 18.766 54.6711 18.9776L56.6905 19.5067L58.6037 20.2473Z" fill="#B58134"/>
<path d="M60.6226 21.4111C59.7723 21.4111 58.8157 21.5169 57.9655 21.5169C57.7529 21.5169 57.434 21.5169 57.2215 21.4111L56.69 21.3053C56.1586 21.5169 55.7334 21.4111 55.3083 21.4111C54.458 21.4111 53.5014 21.4111 52.6511 21.4111C51.8008 21.4111 50.9506 21.4111 50.1003 21.5169C48.2934 21.6227 46.5928 21.7285 44.8922 22.1517C44.042 22.3633 43.1917 22.575 42.4477 22.8924C42.0225 23.104 41.5974 23.2098 41.3848 23.4214C41.2785 23.5272 41.1722 23.633 41.0659 23.8447L40.8534 24.3737L40.6408 23.9505C41.1722 24.1621 41.7037 24.0563 42.3414 23.7389H42.4477H42.5539C43.2979 24.0563 43.8294 24.3737 44.5734 24.4795C45.2111 24.5853 45.9551 24.5853 46.6991 24.6911C47.4431 24.7969 48.1871 24.6911 48.8248 24.6911C49.5688 24.6911 50.3128 24.5853 50.9506 24.4795L49.8877 24.6911L48.8248 24.7969C48.0808 24.9027 47.3368 25.0086 46.5928 25.0086C45.8488 25.0086 45.1048 25.1144 44.3608 24.9027C43.6168 24.7969 42.8728 24.4795 42.2351 24.2679L42.6602 24.3737C42.3414 24.4795 42.0225 24.6911 41.5974 24.6911C41.1722 24.7969 40.7471 24.6911 40.4282 24.5853L40.1094 24.4795L40.2156 24.1621L40.4282 23.5272C40.5345 23.3156 40.7471 22.9982 40.9597 22.8924C41.3848 22.575 41.8099 22.3633 42.2351 22.1517C43.0854 21.7285 43.9357 21.5169 44.786 21.3053C46.4865 20.9878 48.3997 20.7762 50.1003 20.7762L51.3757 20.6704C51.8009 20.6704 52.3323 20.6704 52.7574 20.6704C53.6077 20.7762 54.5643 20.7762 55.4146 20.882C55.946 20.882 56.2649 21.0936 56.5837 20.882C56.9026 20.7762 56.9026 20.882 57.0089 20.882L57.3277 20.9878C57.5403 21.0936 57.7529 21.0936 57.9655 21.0936C58.922 21.3053 59.7723 21.3053 60.6226 21.4111Z" fill="#B58134"/>
<path d="M81.8804 9.87777C82.7307 8.50226 83.581 7.12676 84.2187 5.75125C84.5376 5.01059 84.8564 4.26993 85.069 3.52927C85.3878 2.78861 85.4941 2.04796 85.1753 1.51891C84.9627 0.989873 84.2187 0.778256 83.4747 0.778256C82.7307 0.778256 81.9867 0.884064 81.2427 1.20149C79.861 1.73053 78.7981 3.00023 77.7352 4.26993C78.1604 3.63508 78.4792 2.89442 79.0107 2.25957C79.5421 1.62472 80.1798 1.09568 80.9238 0.672448C81.7741 0.249214 82.6244 0.0375977 83.4747 0.0375977C83.8998 0.0375977 84.325 0.143406 84.7501 0.249214C85.1753 0.355023 85.7067 0.778256 85.9193 1.20149C86.3444 2.15376 86.1318 3.10604 85.813 3.8467C85.4941 4.58736 85.1753 5.32801 84.7501 6.06867C84.325 6.70352 83.8998 7.44418 83.3684 8.07903C82.9433 8.71388 82.4118 9.34873 81.8804 9.87777Z" fill="#B58134"/>
<path d="M92.8278 17.8137C93.0404 17.9195 93.253 17.9195 93.3593 17.9195H93.997L95.2724 17.8137C96.1227 17.7079 96.8667 17.7079 97.717 17.7079C99.3113 17.7079 101.012 17.7079 102.606 17.9195C103.456 18.0253 104.2 18.0253 105.051 18.2369C105.476 18.3427 105.901 18.4485 106.22 18.6602C106.326 18.6602 106.432 18.766 106.539 18.766C106.645 18.766 106.645 18.8718 106.751 18.8718C106.858 18.8718 106.858 18.9776 106.858 18.9776C106.964 19.0834 107.07 19.0834 107.176 19.0834C107.389 19.0834 107.92 18.9776 108.239 18.8718C108.558 18.766 109.09 18.6602 109.408 18.5543C109.515 18.4485 109.727 18.4485 109.834 18.3427C109.94 18.2369 109.94 18.2369 109.94 18.1311C109.94 18.0253 109.834 17.9195 109.621 17.8137L109.196 17.3904L109.09 17.2846V17.1788C108.877 16.7556 108.983 16.3324 109.09 16.0149L109.196 16.3324C108.771 15.8033 108.346 15.3801 107.708 15.0627C107.176 14.7452 106.539 14.5336 105.901 14.5336H104.519L105.795 14.0046C106.326 13.793 106.964 13.5814 107.495 13.3697C107.708 13.2639 108.027 13.0523 108.133 12.9465C108.133 12.8407 108.239 12.8407 108.133 12.7349C108.027 12.6291 107.92 12.5233 107.92 12.4175C107.602 11.9942 106.964 11.7826 106.432 11.6768C105.901 11.571 105.263 11.4652 104.626 11.3594C105.263 11.3594 105.795 11.3594 106.432 11.4652C107.07 11.571 107.602 11.6768 108.239 12.1C108.346 12.2058 108.452 12.3116 108.558 12.4175C108.664 12.5233 108.664 12.6291 108.664 12.7349C108.664 12.8407 108.664 13.0523 108.558 13.0523C108.239 13.3697 108.027 13.4755 107.708 13.6872C107.176 14.0046 106.539 14.2162 106.007 14.4278L105.901 13.8988C106.645 13.8988 107.389 14.0046 108.027 14.4278C108.346 14.6394 108.664 14.851 108.983 15.0627C109.302 15.2743 109.515 15.5917 109.727 15.9091L109.834 16.0149V16.2266C109.727 16.544 109.727 16.7556 109.834 16.9672H109.727L110.259 17.3904C110.365 17.4963 110.578 17.7079 110.684 18.0253C110.79 18.3427 110.684 18.766 110.471 18.9776C110.259 19.1892 110.046 19.295 109.834 19.4008C109.408 19.6124 108.983 19.6124 108.558 19.7182C108.133 19.824 107.814 19.9298 107.283 19.9298C106.964 19.9298 106.751 19.824 106.539 19.6124L106.432 19.5066C106.432 19.5066 106.432 19.5066 106.326 19.5066C106.22 19.5066 106.22 19.4008 106.114 19.4008C105.795 19.295 105.37 19.0834 105.051 18.9776C104.307 18.766 103.456 18.766 102.712 18.6602C101.118 18.4485 99.5239 18.3427 97.8233 18.2369C96.973 18.2369 96.229 18.1311 95.3787 18.1311H94.2095H93.5718C93.253 18.0253 92.9341 18.0253 92.8278 17.8137Z" fill="#B58134"/>
<path d="M105.476 15.1691C104.413 15.4865 103.35 15.5923 102.287 15.8039C101.756 15.9098 101.224 16.1214 100.799 16.2272L99.205 16.6504C98.1421 16.862 97.0793 17.1795 96.0164 17.3911C94.9535 17.6027 93.8907 17.7085 92.8278 17.8143C93.7844 17.3911 94.8473 17.0736 95.9101 16.7562C96.973 16.4388 97.9296 16.1214 98.9924 15.9098C100.055 15.6981 101.012 15.3807 102.181 15.1691C103.35 15.0633 104.413 15.1691 105.476 15.1691Z" fill="#B58134"/>
<path d="M93.9975 9.56063C94.6352 8.81997 95.3792 8.29093 96.0169 7.55027C96.6546 6.91542 97.3986 6.17476 97.3986 5.32829C97.3986 5.11668 97.3986 5.11668 97.2923 5.01087C97.186 4.90506 96.8672 4.90506 96.6546 4.79925C96.2295 4.69344 95.8043 4.69344 95.3792 4.69344C94.5289 4.79925 93.5723 5.01087 92.722 5.4341C92.2969 5.64572 91.7654 5.85733 91.234 5.96314H90.49H90.2774C90.2774 5.96314 90.2774 5.96314 90.1711 5.96314C90.0649 5.96314 90.0649 5.96314 89.9586 6.06895C89.4271 6.80961 88.7894 7.44446 88.0454 8.07931L85.9197 9.98386C85.6008 10.3013 85.1757 10.5129 84.7505 10.8303C84.3254 11.1478 83.9003 11.3594 83.6877 11.7826C83.9003 11.3594 84.3254 11.0419 84.6443 10.7245C84.9631 10.4071 85.3883 10.0897 85.7071 9.77224L87.6203 7.65608C88.258 6.91542 88.8957 6.28057 89.6397 5.53991C89.746 5.53991 89.8523 5.32829 90.0649 5.32829C90.1711 5.32829 90.2774 5.22249 90.3837 5.22249H90.5963H91.3403C91.6592 5.22249 92.0843 5.01087 92.5094 4.79925C93.466 4.37602 94.4226 4.1644 95.3792 4.05859C95.9106 4.05859 96.442 4.05859 96.9735 4.1644C97.186 4.27021 97.3986 4.27021 97.7175 4.48183C97.7175 4.58764 97.93 4.69344 97.93 4.90506C98.0363 5.11668 98.0363 5.22249 97.93 5.4341C97.93 5.96314 97.6112 6.49218 97.2923 6.91542C96.9735 7.23284 96.6546 7.65608 96.2295 7.86769C95.5918 8.39673 94.7415 9.03158 93.9975 9.56063Z" fill="#B58134"/>
<path d="M104.944 24.5854C104.944 24.7971 105.05 25.0087 104.944 25.2203C104.944 25.4319 104.838 25.6435 104.625 25.7493C104.413 26.0668 103.988 26.2784 103.669 26.49C102.925 26.8074 102.074 26.9132 101.33 27.019C100.905 27.1249 100.586 27.1249 100.161 27.2307C99.7362 27.2307 99.311 27.2307 98.9922 27.2307C98.2482 27.2307 97.3979 27.2307 96.6539 27.1249C95.0596 27.019 93.4653 26.9132 91.9773 26.5958L89.639 26.1726C88.895 26.0668 88.151 25.7493 87.3007 25.7493C88.895 25.6435 90.4893 25.961 91.9773 26.0668C93.5716 26.2784 95.0596 26.3842 96.6539 26.49C97.3979 26.5958 98.2482 26.5958 98.9922 26.5958C99.4173 26.5958 99.7362 26.7016 100.161 26.7016C100.586 26.7016 100.905 26.5958 101.33 26.5958C102.074 26.5958 102.818 26.49 103.562 26.2784C104.2 25.961 104.944 25.4319 104.944 24.5854Z" fill="#B58134"/>
<path d="M99.6294 11.8882C98.6728 12.3114 97.7163 12.6288 96.7597 12.9463L93.8899 13.8985L91.0202 14.745C90.4888 14.8508 90.0636 15.0624 89.5322 15.1682C89.0008 15.2741 88.5756 15.3799 88.0442 15.5915C88.8945 14.9566 89.8511 14.6392 90.8076 14.216C91.7642 13.7927 92.7208 13.4753 93.6774 13.1579C95.5905 12.523 97.61 12.0998 99.6294 11.8882Z" fill="#B58134"/>
<path d="M64.449 34.002C63.8113 34.7426 62.8547 35.1658 62.0044 35.5891C61.1541 36.0123 60.1975 36.3297 59.241 36.6472C58.2844 36.8588 57.3278 37.1762 56.2649 37.282C55.7335 37.3878 55.2021 37.282 54.7769 37.1762C54.5644 37.1762 54.1392 37.0704 54.0329 36.8588C53.9266 36.5414 54.1392 36.3297 54.2455 36.1181C54.1392 36.3297 54.1392 36.6472 54.2455 36.753C54.3518 36.8588 54.5644 36.8588 54.7769 36.8588L55.5209 36.753H55.8398L56.1587 36.6472C57.1152 36.4355 57.9655 36.1181 58.9221 35.9065L61.6855 35.06C62.6421 34.7426 63.5987 34.4252 64.449 34.002Z" fill="#B58134"/>
<path d="M103.032 30.8286C103.244 31.2518 103.032 31.7809 103.032 32.2041V32.3099C102.713 32.7332 102.394 33.0506 102.075 33.368C101.65 33.6854 101.225 34.0029 100.693 34.1087C99.7368 34.4261 98.674 34.4261 97.7174 34.4261C95.698 34.4261 93.7848 33.8971 91.9779 33.2622C92.9345 33.2622 93.8911 33.4738 94.8477 33.5796C95.8042 33.6854 96.7608 33.7912 97.7174 33.6854C98.674 33.6854 99.6305 33.6854 100.481 33.4738C101.331 33.368 102.075 32.7332 102.819 32.0983V32.2041C102.819 31.6751 103.138 31.2518 103.032 30.8286Z" fill="#B58134"/>
<path d="M85.0689 13.3708H85.8129C86.0255 13.3708 86.238 13.1592 86.4506 13.0533L87.726 12.3127L90.2769 10.9372C91.1272 10.5139 92.0838 10.0907 92.9341 9.66748C93.1466 9.56167 93.6781 9.24425 94.2095 9.13844C94.6346 9.03263 95.0598 8.82101 95.4849 8.71521C96.4415 8.29197 97.2918 8.08036 98.2484 7.76293C99.2049 7.44551 100.162 7.23389 101.118 7.12808C101.65 7.12808 102.075 7.02227 102.606 7.12808C103.138 7.23389 103.669 7.55131 103.882 8.08036C103.988 8.39778 103.882 8.71521 103.669 8.92682L103.244 9.45586C102.925 9.77329 102.5 10.0907 102.181 10.4081C102.5 10.0907 102.819 9.66748 103.138 9.35006C103.456 9.03263 103.882 8.6094 103.669 8.29197C103.456 7.97455 103.031 7.76293 102.606 7.65712C102.181 7.55131 101.756 7.65712 101.224 7.76293C100.268 7.97455 99.4175 8.18616 98.4609 8.50359C97.5044 8.82101 96.6541 9.03263 95.8038 9.45586C95.3786 9.66748 94.8472 9.77329 94.4221 9.98491C93.9969 10.0907 93.5718 10.3023 93.1466 10.5139C92.1901 10.9372 91.3398 11.2546 90.4895 11.6778L87.8323 12.7359L86.4506 13.265L86.1317 13.3708C86.0255 13.3708 85.9192 13.4766 85.7066 13.4766L85.0689 13.3708Z" fill="#B58134"/>
<path d="M66.2564 23.3154C65.4061 23.7387 64.5558 24.0561 63.7055 24.2677C62.8552 24.5851 62.0049 24.7967 61.1546 25.0084C60.3043 25.22 59.454 25.4316 58.4975 25.5374C57.6472 25.6432 56.6906 25.749 55.8403 25.749C56.6906 25.4316 57.5409 25.1142 58.3912 24.9026L60.942 24.1619C61.7923 23.9503 62.6426 23.7387 63.5992 23.527C64.0243 23.4212 64.4495 23.4212 64.9809 23.3154C65.4061 23.4212 65.8312 23.4212 66.2564 23.3154Z" fill="#B58134"/>
<path d="M52.7582 11.5711C50.9514 11.1479 49.2508 10.6189 47.5502 10.1956C46.6999 9.98401 45.8496 9.77239 44.9993 9.66659C44.5742 9.56078 44.0428 9.56078 43.6176 9.45497H42.9799H42.7673C42.661 9.45497 42.7673 9.45497 42.5547 9.45497C42.3422 9.34916 42.2359 9.13754 42.1296 9.03174C41.917 8.71431 41.917 8.39689 41.8107 8.18527C41.8107 7.97365 41.7045 7.76204 41.8107 7.44461C41.8107 7.12719 42.2359 6.80976 42.5547 6.70395C42.8736 6.59814 43.0862 6.59814 43.2988 6.59814C43.8302 6.59814 44.2553 6.70395 44.7868 6.80976L46.0622 7.3388C46.9125 7.55042 47.6565 8.07946 48.5068 8.50269C49.2508 8.92593 50.1011 9.34916 50.8451 9.8782H50.7388H50.9514C51.5891 9.98401 52.2268 10.0898 52.9708 10.1956C52.6519 10.1956 52.3331 10.1956 51.9079 10.1956H50.9514H51.0576L50.8451 10.3014H50.7388C49.1445 9.56078 47.5502 8.71431 45.8496 8.07946L44.5742 7.65623C44.149 7.3388 43.7239 7.3388 43.405 7.3388C43.1925 7.3388 42.9799 7.3388 42.8736 7.44461C42.661 7.44461 42.661 7.44461 42.661 7.55042C42.661 7.65623 42.661 7.86784 42.661 8.07946C42.661 8.29108 42.661 8.50269 42.7673 8.6085C42.7673 8.71431 42.8736 8.71431 42.7673 8.71431C42.661 8.71431 42.7673 8.71431 42.8736 8.71431H43.0862H43.7239C44.149 8.82012 44.6805 8.82012 45.1056 8.92593C46.0622 9.03174 46.9125 9.34916 47.7628 9.66659C48.6131 9.98401 49.4634 10.3014 50.3136 10.6189C51.1639 10.9363 51.9079 11.3595 52.7582 11.5711Z" fill="#B58134"/>
<path d="M62.217 11.2538C61.7918 10.8306 61.3667 10.4073 60.9415 9.87831C60.5164 9.45507 60.1975 8.82022 59.8787 8.39699C59.0284 7.86795 57.6467 7.44471 56.5838 7.12729C56.2649 7.02148 56.0524 6.91567 55.7335 6.91567C55.4146 6.91567 54.8832 6.59825 54.7769 6.38663L53.6078 4.90531C53.1826 4.37627 52.8638 3.95304 52.4386 3.52981C52.2261 3.31819 52.0135 3.10657 51.8009 3.00076C51.5883 2.89496 51.3758 2.78915 51.0569 2.78915L51.3758 2.68334C51.0569 3.21238 50.8443 3.84723 50.8443 4.48208C50.8443 5.11693 50.9506 5.85759 51.0569 6.49244C51.0569 6.59825 51.0569 6.80986 50.9506 6.91567L50.8443 7.12729C50.7381 7.2331 50.7381 7.33891 50.7381 7.55052C50.7381 7.86795 50.8443 8.18537 51.0569 8.39699C51.2695 8.71441 51.4821 8.92603 51.8009 9.13765C51.9072 9.24346 52.1198 9.34926 52.2261 9.45507C52.5449 9.66669 52.1198 9.34926 52.2261 9.24346C52.2261 9.34926 52.3323 9.34926 52.3323 9.45507V9.56088C52.3323 9.66669 52.2261 9.56088 52.2261 9.56088H52.1198C51.9072 9.45507 51.8009 9.45507 51.5883 9.34927C51.2695 9.13765 51.0569 8.92603 50.7381 8.60861C50.5255 8.29118 50.3129 7.97376 50.2066 7.55052C50.2066 7.33891 50.2066 7.12729 50.3129 6.91567C50.3129 6.80986 50.4192 6.70406 50.4192 6.70406C50.4192 6.70406 50.4192 6.70406 50.4192 6.59825C50.2066 5.9634 49.994 5.22274 49.994 4.48208C49.994 3.74142 50.1003 2.89496 50.5255 2.26011L50.6318 2.1543H50.8443C51.1632 2.1543 51.5883 2.26011 51.9072 2.36591C52.2261 2.57753 52.4386 2.78915 52.7575 3.00076C53.1826 3.424 53.7141 3.95304 54.0329 4.37627L55.2021 5.85759C55.4146 6.06921 55.5209 6.17501 55.7335 6.17501C56.1587 6.17501 56.4775 6.28082 56.7964 6.38663C57.4341 6.59825 57.9655 6.80986 58.497 7.12729L59.3472 7.55052C59.6661 7.65633 59.985 7.76214 60.1975 8.18537C60.6227 8.71441 60.729 9.34926 61.1541 9.7725L62.217 11.2538Z" fill="#B58134"/>
<path d="M107.07 19.5068C107.07 19.6126 107.07 19.8243 107.176 19.9301C107.283 20.0359 107.283 20.0359 107.495 20.0359C107.814 20.1417 108.027 20.1417 108.345 20.2475C108.877 20.4591 109.408 20.6707 109.94 20.9882C110.471 21.1998 111.003 21.5172 111.428 22.0462C111.64 22.2579 111.959 22.5753 111.959 22.9985C111.959 23.2101 111.959 23.4217 111.959 23.5276V23.9508V24.0566V24.1624C111.853 24.374 111.747 24.5856 111.534 24.6914C111.321 24.7973 111.109 24.9031 110.896 24.9031C110.577 24.9031 110.259 25.0089 109.833 25.0089L109.94 24.9031C109.621 25.1147 109.408 25.4321 109.089 25.5379C108.771 25.7495 108.345 25.6437 108.027 25.7495C108.345 25.5379 108.664 25.5379 108.877 25.3263C109.089 25.1147 109.302 24.7973 109.515 24.5856H109.621C109.94 24.4798 110.259 24.4798 110.577 24.374C110.896 24.2682 111.003 24.1624 111.109 23.9508V24.1624C111.109 23.845 111.109 23.5276 111.003 23.3159C111.003 23.1043 110.79 22.9985 110.684 22.7869C110.365 22.3637 109.833 22.152 109.408 21.8346C108.877 21.5172 108.452 21.1998 107.92 20.9882C107.708 20.8823 107.389 20.6707 107.176 20.5649L106.964 20.4591C106.857 20.3533 106.857 20.3533 106.857 20.2475C106.964 19.8243 107.07 19.7185 107.07 19.5068Z" fill="#B58134"/>
<path d="M38.7283 10.8315L40.0038 11.678C40.2163 11.7838 40.4289 11.8896 40.6415 11.9954L41.2792 12.3129C42.2358 12.6303 43.0861 13.1593 44.0426 13.4768L46.8061 14.7465C47.2312 14.9581 47.6564 15.1697 48.1878 15.3813L48.8255 15.6987C49.0381 15.8045 49.2507 15.9103 49.4632 16.122C49.2507 15.9103 49.0381 15.9103 48.7192 15.9103L47.9752 15.6987C47.4438 15.5929 47.0187 15.3813 46.5935 15.2755C45.6369 14.9581 44.6804 14.5348 43.8301 14.2174C42.8735 13.7942 42.0232 13.3709 41.1729 12.8419C40.7478 12.5245 40.2163 12.3129 39.8975 11.9954C39.3661 11.5722 39.0472 11.149 38.7283 10.8315Z" fill="#B58134"/>
<path d="M61.8984 29.8766C62.0047 29.0301 62.4298 28.3953 62.855 27.6546L63.0675 27.9721C61.6858 28.2895 60.4104 28.6069 59.0286 28.9243C57.6469 29.136 56.2652 29.2418 54.8835 29.4534L55.0961 29.3476C54.7772 29.665 54.2458 29.9824 54.0332 30.194C53.7143 30.5115 53.5018 30.8289 53.1829 31.2521C52.6515 31.9928 52.0138 32.7334 51.6949 33.4741C51.376 34.3206 51.0572 35.2728 51.6949 35.8019C52.0138 36.0135 52.4389 36.1193 52.9703 36.1193C53.3955 36.1193 53.9269 36.0135 54.3521 36.0135C53.9269 36.1193 53.3955 36.3309 52.9703 36.3309C52.5452 36.3309 52.0138 36.4367 51.4823 36.1193C51.0572 35.8019 50.8446 35.167 50.8446 34.638C50.8446 34.1089 50.9509 33.6857 51.1635 33.1567C51.2697 32.7334 51.5886 32.2044 51.8012 31.887L52.6515 30.7231C52.9703 30.4057 53.1829 29.9824 53.608 29.5592L54.7772 28.7127L54.8835 28.6069H54.9898C56.3715 28.5011 57.7532 28.2895 59.1349 28.1837C60.5167 27.9721 61.8984 27.7604 63.2801 27.6546L63.7052 27.5488L63.3864 27.8663C62.6424 28.5011 62.1109 29.136 61.8984 29.8766Z" fill="#B58134"/>
<path d="M40.5347 24.374C39.897 25.0089 39.153 25.4321 38.6216 26.067C38.3027 26.3844 37.9838 26.7018 37.9838 26.9134C37.8776 27.125 37.9838 27.3367 38.409 27.4425C39.0467 27.8657 39.897 27.9715 40.7473 28.0773C41.5976 28.1831 42.4479 28.0773 43.2982 28.2889C42.873 28.2889 42.4479 28.3947 42.0227 28.5005C41.5976 28.6064 41.1724 28.6064 40.7473 28.7122C39.7907 28.7122 38.9404 28.6064 38.0901 28.1831C37.665 28.0773 37.4524 27.8657 37.3461 27.5483C37.1336 27.2308 37.1336 26.9134 37.2398 26.596C37.4524 26.067 37.8776 25.7495 38.1964 25.5379C38.9404 25.0089 39.7907 24.6914 40.5347 24.374Z" fill="#B58134"/>
<path d="M55.8405 18.0252C54.7777 17.8136 53.7148 17.4962 52.5457 17.2845C51.4828 17.0729 50.3136 16.8613 49.2508 16.6497H49.3571C48.6131 16.6497 47.8691 16.6497 47.1251 16.5439C46.3811 16.5439 45.637 16.5439 44.9993 16.5439C44.2553 16.5439 43.5113 16.6497 42.7673 16.6497C42.4485 16.6497 42.0233 16.6497 41.7045 16.7555L41.173 16.8613C40.9605 16.8613 40.8542 16.9671 40.7479 17.0729C40.8542 16.9671 40.8542 16.9671 40.9605 16.8613C41.0667 16.7555 41.173 16.7555 41.173 16.7555L41.7045 16.5439C42.0233 16.4381 42.4485 16.3323 42.7673 16.3323C43.5113 16.2265 44.2553 16.0148 44.9993 15.909C45.7433 15.909 46.4873 15.8032 47.2313 15.8032L49.4634 15.909C50.5262 16.2265 51.5891 16.4381 52.7582 16.7555C53.8211 17.0729 54.884 17.4962 55.8405 18.0252Z" fill="#B58134"/>
<path d="M52.3324 13.5814C51.5884 13.4756 50.9507 13.264 50.2067 13.1582C49.569 12.9465 48.825 12.7349 48.1872 12.5233L46.1678 11.8885C45.5301 11.6768 44.8924 11.3594 44.2547 11.042C44.9987 11.042 45.6364 11.1478 46.3804 11.2536C47.1244 11.3594 47.7621 11.571 48.3998 11.7827C49.0375 11.9943 49.7815 12.3117 50.4193 12.5233C51.057 12.8407 51.6947 13.264 52.3324 13.5814Z" fill="#B58134"/>
<path d="M57.6464 21.5181C57.0087 21.8355 56.3709 22.0471 55.7332 22.1529C55.0955 22.3645 54.4578 22.5762 53.9264 22.7878C53.2886 23.1052 52.6509 23.3168 52.2258 23.6342C52.1195 23.74 52.0132 23.8459 51.9069 23.9517C51.8006 24.0575 51.6943 24.1633 51.6943 24.2691C51.5881 24.3749 51.5881 24.4807 51.5881 24.5865C51.5881 24.5865 51.5881 24.5865 51.5881 24.6923C51.5881 24.7981 51.5881 24.7981 51.5881 24.9039V25.1156V25.3272L51.4818 25.433C51.3755 25.5388 51.1629 25.6446 51.0566 25.7504C50.9503 25.8562 50.8441 25.962 50.7378 26.1736C50.6315 26.4911 50.5252 26.9143 50.5252 27.2317C50.3126 26.9143 50.3126 26.3853 50.4189 26.0678C50.4189 25.8562 50.5252 25.6446 50.6315 25.433C50.7378 25.2214 50.8441 25.1156 51.0566 25.0097L50.9503 25.2214V25.0097C50.9503 25.0097 50.9503 25.0097 50.9503 24.9039V24.7981C50.8441 24.5865 50.9503 24.2691 51.0566 24.1633C51.1629 23.9517 51.2692 23.8458 51.3755 23.6342C51.4818 23.5284 51.5881 23.3168 51.8006 23.211C52.3321 22.682 53.0761 22.4703 53.7138 22.2587C54.3515 22.0471 54.9892 21.9413 55.7332 21.8355C56.3709 21.6239 57.0087 21.6239 57.6464 21.5181Z" fill="#B58134"/>
<path d="M77.0977 25.7495C77.4166 25.9611 77.6291 26.1727 77.8417 26.4902C78.0543 26.7018 78.3732 26.9134 78.692 27.125L79.5423 27.7599C79.8612 27.9715 80.18 28.0773 80.3926 28.2889C81.0303 28.6063 81.5617 29.0296 82.1995 29.347C82.5183 29.5586 82.8372 29.6644 83.156 29.7702C83.4749 29.876 83.7938 29.9818 84.1126 30.2993L84.2189 30.4051V30.5109C84.4315 30.8283 84.5378 31.0399 84.644 31.3574C84.8566 31.6748 84.9629 31.9922 84.9629 32.4154C84.9629 32.7329 84.9629 33.1561 84.8566 33.4735C84.7503 33.7909 84.5378 34.1084 84.3252 34.32C84.4315 34.0026 84.5378 33.6851 84.5378 33.3677C84.5378 33.0503 84.5378 32.7329 84.4315 32.5212C84.3252 32.2038 84.2189 31.9922 84.0063 31.7806C83.7938 31.569 83.5812 31.2515 83.4749 31.0399L83.5812 31.1457C83.4749 31.0399 83.3686 31.0399 83.156 30.9341C82.9435 30.8283 82.8372 30.8283 82.6246 30.7225C82.3057 30.6167 81.9869 30.4051 81.668 30.2993C81.0303 29.9818 80.3926 29.5586 79.8612 29.1354C79.5423 28.9238 79.2234 28.7121 79.0109 28.5005L78.2669 27.7599C77.948 27.0192 77.5229 26.3844 77.0977 25.7495Z" fill="#B58134"/>
<path d="M90.5956 29.4531C90.5956 29.7706 90.4893 30.088 90.383 30.4054C90.1704 30.7228 89.9579 30.9344 89.639 31.0403C89.0013 31.3577 88.3636 31.4635 87.7259 31.4635C87.0881 31.4635 86.4504 31.3577 85.8127 31.2519C85.4938 31.1461 85.175 31.0403 84.9624 30.9344L84.5373 30.7228C84.431 30.617 84.3247 30.617 84.1121 30.617C84.2184 30.617 84.431 30.5112 84.6436 30.5112H85.0687L85.919 30.617C86.5567 30.617 87.0881 30.7228 87.7259 30.617C88.2573 30.617 88.895 30.5112 89.4264 30.4054C89.8516 30.4054 90.383 30.088 90.5956 29.4531Z" fill="#B58134"/>
<path d="M72.7397 2.15433C72.5271 1.8369 72.3145 1.7311 72.102 1.51948C71.8894 1.30786 71.5705 1.20205 71.358 1.09625C70.8265 0.88463 70.1888 0.778821 69.6574 0.88463C69.126 0.990438 68.5945 1.30786 68.1694 1.62529C67.9568 1.8369 67.7442 2.04852 67.5317 2.26014C67.4254 2.36595 67.3191 2.47175 67.3191 2.68337L67.1065 2.89499C67.0002 3.0008 67.0002 3.0008 66.894 3.1066C66.894 3.0008 67.0002 3.0008 67.0002 2.89499V2.68337C67.1065 2.47175 67.1065 2.26014 67.1065 2.04852C67.2128 1.7311 67.4254 1.41367 67.638 1.09625C68.0631 0.567205 68.7008 0.143971 69.4448 0.0381629C70.1888 -0.0676454 70.9328 0.0381629 71.5705 0.461396C71.8894 0.673013 72.102 0.88463 72.3146 1.20205C72.4208 1.51948 72.7397 1.7311 72.7397 2.15433Z" fill="#B58134"/>
<path d="M83.7928 37.6001C84.4306 37.9175 85.0683 38.0233 85.706 38.1291C86.3437 38.2349 86.9814 38.4466 87.6192 38.5524L88.5757 38.6582C88.8946 38.6582 89.2134 38.6582 89.5323 38.6582C90.17 38.6582 90.4889 38.4466 90.5952 37.9175V37.6001H90.914H91.658C91.8706 37.6001 91.8706 37.6001 92.0832 37.2827C92.2957 36.9652 92.402 36.4362 92.402 35.9072C92.402 35.3781 92.2957 34.8491 92.1895 34.32L91.9769 33.4736C91.8706 33.1561 91.8706 32.9445 91.658 32.7329C91.7643 32.8387 91.8706 32.9445 91.9769 33.0503L92.1895 33.4736L92.5083 34.2142C92.7209 34.7433 92.9335 35.2723 92.9335 35.9072C92.9335 36.2246 92.9335 36.4362 92.9335 36.7536C92.9335 37.0711 92.8272 37.3885 92.6146 37.7059C92.5083 37.8117 92.5083 37.9175 92.2957 38.1291C92.0832 38.2349 91.9769 38.3408 91.7643 38.3408C91.4455 38.3408 91.1266 38.3408 90.914 38.3408L91.3392 38.0233C91.3392 38.4466 91.1266 38.8698 90.7015 39.0814C90.3826 39.293 89.8512 39.3988 89.5323 39.3988H88.4694L87.5129 39.1872C86.8751 39.0814 86.2374 38.764 85.5997 38.5524C84.962 38.3408 84.3243 38.0233 83.7928 37.6001Z" fill="#B58134"/>
<path d="M100.267 22.0469C101.224 22.2585 102.074 22.4701 103.031 22.8933C103.456 22.9992 103.881 23.3166 104.306 23.634C104.519 23.7398 104.732 23.9514 104.838 24.163C105.05 24.3747 105.05 24.4805 105.263 24.5863C106.113 25.2211 106.751 25.7502 107.495 26.4908C107.814 26.8083 108.133 27.2315 108.345 27.6547L108.558 27.9721C108.664 28.078 108.664 28.078 108.77 28.2896C108.877 28.5012 108.877 28.8186 108.77 29.0302C108.664 29.2418 108.558 29.2418 108.452 29.3477L108.558 28.9244L108.77 29.4535L108.877 29.5593L108.77 29.6651L108.452 30.4057C108.345 30.6174 108.133 30.9348 107.92 31.1464C107.389 31.5696 106.857 31.7812 106.326 31.8871C105.794 32.0987 105.157 32.0987 104.625 32.2045C104.094 32.2045 103.456 32.3103 102.925 32.3103C103.987 32.0987 105.157 31.8871 106.113 31.4638C106.645 31.2522 107.176 31.0406 107.389 30.7232C107.708 30.4057 107.814 29.8767 108.026 29.3477V29.6651L107.814 29.136L107.708 28.8186L108.026 28.607C108.133 28.607 108.133 28.5012 108.133 28.5012C108.133 28.5012 108.133 28.607 108.133 28.5012C108.133 28.5012 108.026 28.3954 107.92 28.2896L107.708 27.9721C107.389 27.6547 107.176 27.2315 106.857 26.9141L105.901 25.9618C105.582 25.6444 105.263 25.3269 104.838 25.0095C104.625 24.9037 104.413 24.5863 104.306 24.4805C104.2 24.2689 103.988 24.163 103.881 23.9514C103.562 23.634 103.243 23.4224 102.818 23.2108C102.393 22.9992 101.968 22.7875 101.543 22.5759C101.118 22.4701 100.693 22.2585 100.267 22.0469Z" fill="#B58134"/>
<path d="M107.07 20.0356C106.751 20.5647 106.22 20.9879 105.582 21.1995C105.051 21.517 104.413 21.6228 103.775 21.7286C103.137 21.8344 102.606 21.9402 101.968 21.9402C101.649 21.9402 101.331 21.9402 101.012 21.9402H100.587H100.374C100.374 21.9402 100.268 21.9402 100.161 22.046C100.161 21.9402 100.161 21.9402 100.374 21.8344L100.587 21.7286L101.012 21.6228L101.862 21.4112C102.393 21.3053 103.031 21.0937 103.669 21.0937C104.944 20.8821 106.007 20.6705 107.07 20.0356Z" fill="#B58134"/>
<path d="M73.0586 30.0879C73.5901 30.6169 74.1215 31.2518 74.6529 31.7808C75.1844 32.3099 75.8221 32.8389 76.4598 33.2621C77.0975 33.6854 77.7352 34.1086 78.3729 34.426C78.6918 34.6376 79.0107 34.7435 79.4358 34.8493C79.8609 34.9551 80.1798 35.1667 80.4987 35.2725C80.8175 35.3783 81.2427 35.3783 81.5615 35.4841C81.2427 35.5899 80.8175 35.5899 80.4987 35.5899C80.0735 35.4841 79.7547 35.4841 79.3295 35.3783C78.9044 35.2725 78.4792 35.1667 78.1604 35.0609C77.4164 34.7435 76.6724 34.3202 76.0346 33.897C75.3969 33.3679 74.7592 32.8389 74.3341 32.2041C73.6963 31.5692 73.3775 30.8285 73.0586 30.0879Z" fill="#B58134"/>
<path d="M94.5283 22.1513C92.7214 22.4682 90.9145 22.5739 89.2139 22.5739C88.7888 22.5739 88.3637 22.5739 87.8322 22.5739C87.4071 22.4682 86.9819 22.5739 86.5568 22.4682L85.1751 22.3626C84.7499 22.2569 84.2185 22.0456 84.0059 21.623C84.4311 21.8343 84.8562 21.94 85.2814 21.94C85.7065 21.94 86.1316 21.8343 86.5568 21.8343C86.9819 21.8343 87.5134 21.8343 87.9385 21.8343H89.2139C90.9145 21.8343 92.7214 21.94 94.5283 22.1513Z" fill="#B58134"/>
<path d="M73.2716 29.2417C73.2716 29.5591 73.1653 29.7707 73.1653 29.9824C73.0591 30.0882 73.0591 30.194 72.9528 30.4056C72.8465 30.5114 72.8465 30.723 72.7402 30.8288C72.5276 31.1462 72.4213 31.3579 72.2088 31.5695C71.7836 31.9927 71.2522 32.4159 70.7208 32.7334C70.1893 33.0508 69.5516 33.2624 69.0202 33.474C68.3825 33.7915 67.7447 33.8973 67.107 33.8973C67.6385 33.5798 68.1699 33.3682 68.7013 33.0508C69.2328 32.7334 69.7642 32.5218 70.1893 32.2043C70.7208 31.8869 71.1459 31.5695 71.5711 31.1462C71.7836 30.9346 71.9962 30.723 72.2088 30.5114C72.3151 30.4056 72.4213 30.2998 72.5276 30.194C72.6339 30.0882 72.7402 29.9824 72.8465 29.8765C72.9528 29.6649 73.0591 29.4533 73.2716 29.2417Z" fill="#B58134"/>
<path d="M88.0458 22.3633C88.152 22.3633 88.152 22.4691 88.152 22.5749C88.152 22.6807 88.0458 22.7865 88.0458 22.7865C87.9395 22.8923 87.7269 23.1039 87.6206 23.2097C87.3017 23.4214 86.9829 23.5272 86.664 23.7388C86.0263 24.0562 85.2823 24.2678 84.5383 24.3736C83.7943 24.4794 83.1566 24.4794 82.4126 24.4794C81.6686 24.4794 80.9246 24.162 80.3931 23.7388C81.0308 23.9504 81.7749 24.0562 82.3063 23.9504C82.944 23.8446 83.688 23.7388 84.3257 23.633C84.9634 23.5272 85.6012 23.4214 86.3452 23.2097L87.3017 22.8923C87.5143 22.8923 87.6206 22.7865 87.7269 22.6807C88.0458 22.5749 88.152 22.5749 88.0458 22.3633Z" fill="#B58134"/>
<path d="M50.8446 6.80957C51.1635 7.2328 51.4823 7.55023 51.8012 7.97346C52.12 8.3967 52.3326 8.81993 52.6515 9.13735C52.864 9.34897 52.9703 9.45478 53.1829 9.6664C53.2892 9.87801 53.5018 9.98382 53.608 10.1954C53.9269 10.5129 54.3521 10.8303 54.6709 11.1477C55.4149 11.7826 56.1589 12.4174 56.9029 12.9465C57.3281 13.2639 57.6469 13.5813 58.0721 13.7929C58.2846 13.8987 58.4972 14.1103 58.6035 14.1103C58.9224 14.1103 59.1349 14.322 59.3475 14.4278C59.1349 14.4278 58.8161 14.322 58.6035 14.322C58.4972 14.322 58.2846 14.322 58.1784 14.2162L57.8595 14.1103C57.3281 13.8987 56.9029 13.6871 56.4778 13.3697C55.6275 12.8406 54.7772 12.3116 54.0332 11.5709C53.7143 11.2535 53.2892 10.9361 52.9703 10.5129C52.7578 10.3012 52.6515 10.0896 52.4389 9.87801C52.4389 9.87801 52.2263 9.7722 52.12 9.56059C51.8012 9.13735 51.5886 8.60831 51.376 8.18508C51.1635 7.65604 50.9509 7.2328 50.8446 6.80957Z" fill="#B58134"/>
<path d="M89.7457 5.22212C89.6395 5.11631 89.5332 5.0105 89.5332 4.79888C89.5332 4.58727 89.6395 4.48146 89.6395 4.37565C89.6395 4.16403 89.6395 3.84661 89.6395 3.63499C89.5332 3.21176 89.3206 2.89433 89.0017 2.78853C88.5766 2.68272 88.0452 2.68272 87.5137 2.68272C86.9823 2.68272 86.4509 2.78853 85.9194 2.68272C86.132 2.68272 86.4509 2.4711 86.6634 2.36529C86.876 2.25948 87.1949 2.15368 87.4074 2.04787C87.9389 1.83625 88.5766 1.83625 89.2143 1.94206C89.5332 2.04787 89.852 2.25948 90.0646 2.57691C90.2772 2.89433 90.3835 3.21176 90.2772 3.52918C90.2772 3.84661 90.1709 4.16403 90.0646 4.37565C89.852 4.79888 89.6395 5.0105 89.7457 5.22212Z" fill="#B58134"/>
<path d="M73.0586 25.9609C73.3775 26.1726 73.5901 26.2784 73.8026 26.5958C74.0152 26.9132 74.0152 27.3364 74.0152 27.6539C74.0152 27.9713 73.9089 28.2887 73.8026 28.5003C73.6963 28.8178 73.5901 29.0294 73.2712 29.241C73.2712 28.9236 73.1649 28.6061 73.1649 28.3945C73.1649 28.0771 73.1649 27.7597 73.2712 27.5481C73.2712 27.3364 73.2712 27.1248 73.2712 26.9132C73.1649 26.5958 73.0586 26.2784 73.0586 25.9609Z" fill="#B58134"/>
<path d="M78.7985 35.3784C78.7985 36.5423 78.2671 37.7062 77.5231 38.6585C77.0979 39.0817 76.5665 39.5049 76.0351 39.6108C75.3973 39.8224 74.8659 39.8224 74.3345 39.9282C74.547 39.7166 74.8659 39.6108 75.0785 39.3991C75.291 39.2933 75.6099 39.1875 75.8225 38.9759C76.2476 38.6585 76.6728 38.3411 76.9916 38.0236C77.3105 37.6004 77.6293 37.1772 77.9482 36.7539C78.1608 36.3307 78.4796 35.8017 78.7985 35.3784Z" fill="#B58134"/>
<path d="M77.522 4.79938C77.7346 4.37615 77.6283 3.95292 77.4157 3.52968C77.2031 3.21226 76.9906 2.89483 76.6717 2.57741C76.034 2.04837 75.1837 1.94256 74.3334 2.04837C73.4831 2.15417 72.7391 2.4716 71.9951 2.89483C71.2511 3.42387 70.6134 3.95292 70.2945 4.79938C70.4008 4.37615 70.5071 3.84711 70.7197 3.42387C70.9322 3.00064 71.2511 2.68322 71.6762 2.36579C72.4202 1.73094 73.2705 1.30771 74.3334 1.2019C75.29 1.09609 76.3528 1.30771 77.0968 2.15417C77.522 2.57741 77.7346 3.00064 77.7346 3.52968C77.8408 3.95292 77.9471 4.58777 77.522 4.79938Z" fill="#B58134"/>
<path d="M61.1549 3.10618C60.8361 3.10618 60.6235 3.10618 60.4109 3.21199C60.1983 3.3178 60.0921 3.4236 59.9858 3.63522C59.7732 4.05845 59.6669 4.48169 59.6669 5.01073C59.6669 5.43396 59.6669 5.963 59.6669 6.49204C59.6669 7.02109 59.7732 7.44432 59.7732 8.07917C59.4543 7.65594 59.1355 7.2327 59.0292 6.70366C58.8166 6.17462 58.8166 5.64558 58.8166 5.01073C58.9229 4.48169 59.0292 3.84684 59.4543 3.4236C59.5606 3.3178 59.6669 3.10618 59.7732 3.10618C59.8795 3.00037 60.0921 3.00037 60.1983 3.00037C60.7298 2.89456 60.9423 3.00037 61.1549 3.10618Z" fill="#B58134"/>
<path d="M49.2503 24.7979C48.5063 25.3269 47.7622 25.7501 47.0182 26.2792C46.2742 26.7024 45.424 27.1256 44.8925 27.6547C44.5737 27.8663 44.3611 28.2895 44.2548 28.5011C44.1485 28.8186 44.3611 29.136 44.5737 29.3476C44.8925 29.5592 45.3177 29.665 45.7428 29.665C46.168 29.7708 46.5931 29.7709 47.0182 29.8767C46.5931 29.9825 46.168 29.9825 45.6365 29.9825C45.2114 29.9825 44.6799 29.9825 44.2548 29.7709C43.7234 29.5592 43.4045 28.9244 43.5108 28.2895C43.6171 27.6547 43.9359 27.3373 44.3611 26.914C45.1051 26.2792 45.9554 25.8559 46.8057 25.5385C47.5497 25.3269 48.4 25.1153 49.2503 24.7979Z" fill="#B58134"/>
<path d="M62.2173 4.5874L62.9614 5.8571L63.7054 7.1268L64.4494 8.3965C64.6619 8.81974 64.8745 9.34878 65.0871 9.87782C64.6619 9.56039 64.3431 9.24297 64.0242 8.81974C63.7054 8.3965 63.3865 7.97327 63.0676 7.55004C62.8551 7.1268 62.5362 6.70357 62.4299 6.17453C62.2173 5.64549 62.2173 5.11644 62.2173 4.5874Z" fill="#B58134"/>
<path d="M81.9865 24.2681C82.1991 24.4797 82.518 24.3739 82.7305 24.3739C83.0494 24.3739 83.262 24.3739 83.5808 24.4797C84.1123 24.4797 84.6437 24.5855 85.1751 24.6913C85.7066 24.7971 86.238 25.0087 86.7694 25.1145C86.8757 25.2203 86.982 25.2203 87.1946 25.3262C87.4071 25.432 87.4071 25.5378 87.5134 25.6436C87.726 25.8552 87.9386 25.961 88.1511 26.2784C87.8323 26.1726 87.6197 26.0668 87.3009 26.0668C87.1946 25.961 86.982 25.8552 86.982 25.8552C86.982 25.8552 86.7694 25.8552 86.6631 25.8552C86.1317 25.7494 85.6003 25.6436 85.0688 25.5378C84.5374 25.432 84.006 25.3262 83.4746 25.1145C83.262 25.0087 82.9431 24.9029 82.7305 24.7971L82.3054 24.5855C82.1991 24.5855 82.0928 24.3739 81.9865 24.2681Z" fill="#B58134"/>
<path d="M67.8505 25.6436C67.638 26.0668 67.2128 26.3842 66.894 26.5958C66.4688 26.8074 66.15 27.0191 65.7248 27.2307C65.2997 27.4423 64.8745 27.5481 64.4494 27.6539C64.2368 27.6539 64.0242 27.7597 63.8117 27.7597C63.5991 27.7597 63.3865 27.7597 63.174 27.8655C63.4928 27.4423 63.918 27.3365 64.3431 27.1249C64.7682 26.9133 65.0871 26.7016 65.5122 26.5958C65.9374 26.3842 66.3625 26.2784 66.7877 26.1726C67.0003 25.961 67.3191 25.8552 67.8505 25.6436Z" fill="#B58134"/>
<path d="M70.0831 8.82031C70.2956 8.6087 70.1894 8.29127 70.0831 7.97385C70.0831 7.76223 70.0831 7.65642 69.9768 7.55061C69.9768 7.33899 69.9768 7.23319 69.9768 7.12738C69.8705 6.59834 69.6579 6.1751 69.2328 5.75187C68.3825 4.9054 67.6385 4.05894 66.6819 3.42409C65.7253 2.78924 64.7688 2.15439 63.7059 2.26019C63.1745 2.26019 62.643 2.57762 62.3242 2.89504C62.2179 3.10666 62.1116 3.31828 62.2179 3.6357C62.2179 3.95313 62.2179 4.27055 62.2179 4.48217C62.1116 4.16474 62.0053 3.95313 62.0053 3.6357C61.899 3.31828 61.899 3.00085 62.0053 2.68343C62.3242 2.04858 62.9619 1.73115 63.5996 1.51954C64.2373 1.41373 64.9813 1.51954 65.5128 1.73115C66.1505 1.94277 66.5756 2.26019 67.1071 2.68343C68.0636 3.42409 68.9139 4.37636 69.6579 5.22283C70.0831 5.75187 70.4019 6.38672 70.2956 7.02157C70.2956 7.12738 70.2956 7.33899 70.2956 7.4448C70.2956 7.55061 70.2956 7.76223 70.2956 7.86804C70.2956 8.18546 70.4019 8.6087 70.0831 8.82031Z" fill="#B58134"/>
<path d="M42.555 17.7085C43.299 18.1317 44.043 18.2375 44.7871 18.555C45.5311 18.8724 46.2751 19.084 47.0191 19.5072C47.7631 19.613 48.5071 19.9305 49.3574 20.1421L50.5265 20.4595L51.1642 20.6711C51.3768 20.7769 51.5894 20.7769 51.6957 20.9886C51.4831 20.8827 51.2705 20.8827 51.0579 20.8827H50.4202C49.9951 20.8827 49.5699 20.7769 49.1448 20.7769C48.7196 20.6711 48.2945 20.5653 47.9756 20.5653L47.3379 20.4595C47.2316 20.4595 47.0191 20.4595 46.7002 20.3537C45.9562 19.9305 45.2122 19.613 44.4682 19.2956C43.8305 18.7666 43.0865 18.3433 42.555 17.7085Z" fill="#B58134"/>
<path d="M99.7363 11.8886C100.055 11.5712 100.48 11.2538 100.905 10.9363C101.118 10.8305 101.331 10.6189 101.437 10.5131C101.649 10.3015 101.968 10.1957 102.181 10.1957C102.712 10.0899 103.244 10.1957 103.775 10.3015C103.988 10.4073 104.307 10.5131 104.519 10.6189C104.625 10.7247 104.838 10.8305 104.944 11.0421C105.051 11.2538 104.944 11.4654 104.944 11.5712V11.7828L104.732 11.8886C104.413 11.9944 104.2 11.9944 103.988 11.9944H103.35C102.925 11.9944 102.5 11.9944 102.075 11.9944C101.649 11.9944 101.224 11.9944 100.799 11.9944H100.161H99.8426C99.8426 11.9944 99.7363 11.9944 99.63 11.9944C99.7363 11.9944 99.7363 11.8886 99.7363 11.8886C99.7363 11.9944 99.8426 11.9944 99.9489 11.9944L100.268 11.8886L100.905 11.677C101.331 11.5712 101.756 11.4654 102.181 11.4654C102.606 11.3596 103.031 11.3596 103.456 11.3596L104.094 11.2538C104.307 11.2538 104.519 11.2538 104.625 11.148L104.307 11.4654C104.307 11.3596 104.307 11.2538 104.307 11.3596C104.307 11.3596 104.307 11.3596 104.2 11.2538C103.988 11.148 103.881 11.0421 103.669 11.0421C103.244 10.9363 102.712 10.8305 102.393 10.8305C102.181 10.8305 102.075 10.9363 101.862 11.0421C101.649 11.148 101.437 11.2538 101.224 11.3596C100.587 11.4654 100.161 11.677 99.7363 11.8886Z" fill="#B58134"/>
<path d="M40.0032 11.9943C39.3655 12.1001 38.7278 12.3118 38.1963 12.4176C37.9837 12.4176 38.4089 13.1582 38.6215 13.6873C38.7278 13.7931 38.7278 13.8989 38.834 14.0047C38.9403 14.1105 39.0466 14.3221 39.1529 14.4279C39.4718 14.7454 39.578 14.8512 39.7906 15.1686C40.0032 15.3802 40.2158 15.6976 40.322 15.9092C40.5346 16.2267 40.6409 16.4383 40.8535 16.6499C40.5346 16.6499 40.2158 16.3325 40.0032 16.1209C39.7906 15.9092 39.4718 15.6976 39.2592 15.486C39.0466 15.2744 38.7278 14.957 38.6215 14.7454C38.5152 14.6395 38.5152 14.5337 38.3026 14.4279C38.1963 14.3221 38.09 14.1105 37.9837 14.0047C37.7712 13.6873 37.6649 13.3698 37.5586 13.0524C37.5586 12.9466 37.4523 12.735 37.4523 12.4176C37.4523 12.206 37.6649 11.8885 37.8775 11.7827C38.834 11.6769 39.3655 11.7827 40.0032 11.9943Z" fill="#B58134"/>
<path d="M54.6713 29.0289C54.4588 29.2402 54.2462 29.3458 54.1399 29.3458C54.0336 29.4514 53.7147 29.5571 53.5022 29.6627C53.077 29.7684 52.6519 29.7684 52.1205 29.4514C52.4393 29.0289 52.8645 28.9232 53.2896 28.8176C53.5022 28.8176 53.6085 28.7119 53.9273 28.7119C54.2462 28.8176 54.4588 28.9232 54.6713 29.0289Z" fill="#B58134"/>
<path d="M50.7382 27.231C51.2697 27.8658 51.8011 28.0774 52.4388 28.289C52.7577 28.3948 53.1828 28.5007 53.5017 28.6065L54.0331 28.8181L54.2457 28.9239C54.2457 28.9239 54.352 28.9239 54.4582 29.0297L54.5645 29.1355H54.4582C54.4582 29.1355 54.4582 29.1355 54.352 29.1355L54.0331 29.2413C53.8205 29.2413 53.608 29.2413 53.3954 29.2413C52.9702 29.2413 52.6514 29.1355 52.2262 29.1355C51.8011 29.0297 51.3759 28.8181 51.1634 28.5007C50.7382 28.0774 50.6319 27.5484 50.7382 27.231Z" fill="#B58134"/>
<path d="M36.7088 15.2744C37.0276 15.5918 37.2402 15.5918 37.5591 15.6976C37.8779 15.8035 38.1968 15.9093 38.5157 16.0151C38.8345 16.1209 39.1534 16.2267 39.4722 16.3325C39.7911 16.3325 40.2162 16.4383 40.5351 16.6499C40.2162 16.8615 39.7911 16.9673 39.4722 16.9673C39.0471 16.9673 38.7282 16.9673 38.3031 16.8615C37.9842 16.7557 37.6654 16.5441 37.2402 16.3325C37.0276 16.1209 36.7088 15.6976 36.7088 15.2744Z" fill="#B58134"/>
<path d="M92.8277 17.9194C92.19 18.3419 91.5523 18.5532 90.8082 18.6589C90.4894 18.7645 90.0642 18.7645 89.7454 18.7645C89.4265 18.7645 89.0014 18.7645 88.6825 18.7645C89.0014 18.5532 89.3202 18.3419 89.6391 18.2363C89.958 18.1307 90.2768 18.025 90.702 17.9194C91.3397 17.8137 92.0837 17.7081 92.8277 17.9194Z" fill="#B58134"/>
<path d="M55.415 6.49268C55.7339 6.70429 55.9464 6.8101 56.159 7.02172C56.3716 7.23333 56.5842 7.44495 56.7967 7.65657C57.2219 8.0798 57.5407 8.60884 57.7533 9.24369C57.1156 9.03208 56.5842 8.60884 56.2653 8.0798C56.0527 7.86818 55.8402 7.55076 55.7339 7.33914C55.5213 7.12753 55.415 6.8101 55.415 6.49268Z" fill="#B58134"/>
<path d="M39.0471 11.8884C38.8346 11.7826 38.7283 11.6768 38.622 11.4652C38.5157 11.4652 38.4094 11.3594 38.4094 11.2536L38.3031 10.9362L38.1969 10.8304L38.3031 10.7245C38.4094 10.6187 38.5157 10.4071 38.7283 10.1955C39.0471 9.98389 39.2597 9.98389 39.4723 9.98389C39.8974 9.98389 40.3226 9.98389 40.854 10.0897C41.2792 10.1955 41.7043 10.3013 42.1294 10.4071C42.5546 10.5129 42.9797 10.7245 43.4049 10.9362C42.4483 11.042 41.598 10.9362 40.854 10.9362C40.4289 10.9362 40.0037 10.8304 39.5786 10.8304C39.1534 10.8304 39.0471 10.8304 38.7283 11.1478V10.9362V11.2536C38.7283 11.3594 38.7283 11.4652 38.7283 11.571C38.8346 11.571 38.9409 11.7826 39.0471 11.8884Z" fill="#B58134"/>
<path d="M42.5541 8.92646C42.2352 9.13808 42.0227 9.24389 41.8101 9.34969C41.5975 9.4555 41.2787 9.56131 41.1724 9.56131C41.0661 9.56131 40.7472 9.77293 40.6409 9.77293C40.5347 9.87874 40.5347 9.87874 40.4284 9.98454C40.4284 10.0904 40.4284 10.1962 40.3221 10.302C40.2158 10.1962 40.1095 10.0904 40.1095 9.98454C40.0032 9.87874 40.0032 9.56131 40.1095 9.4555C40.3221 9.13808 40.5347 8.92646 40.8535 8.82065C41.1724 8.71484 41.385 8.71484 41.7038 8.71484C41.9164 8.82065 42.2352 8.82065 42.5541 8.92646Z" fill="#B58134"/>
<path d="M51.3761 25.2197C51.9075 25.3255 52.2264 25.4313 52.6515 25.5372C52.9704 25.643 53.3955 25.7488 53.8207 26.0662C53.3955 26.3836 52.8641 26.4894 52.3327 26.2778C51.9075 26.0662 51.4824 25.7488 51.3761 25.2197Z" fill="#B58134"/>
<path d="M88.8947 26.8076C89.4262 26.9134 89.8513 27.125 90.1702 27.4425L90.3828 27.6541C90.489 27.7599 90.5953 27.8657 90.5953 27.9715C90.7016 28.1831 90.5953 28.5006 90.5953 28.7122C90.3828 28.6064 90.1702 28.3947 90.0639 28.2889C89.9576 28.1831 89.9576 28.1831 89.8513 28.1831L89.6387 27.9715C89.2136 27.6541 89.001 27.2309 88.8947 26.8076Z" fill="#B58134"/>
<path d="M98.6739 7.97365C98.5676 7.76204 98.4613 7.65623 98.3551 7.55042C98.2488 7.55042 98.2488 7.55042 98.1425 7.44461C98.0362 7.44461 97.8236 7.3388 97.7173 7.23299C97.5048 7.12719 97.3985 7.02138 97.2922 6.80976C97.5048 6.70395 97.7173 6.59814 97.8236 6.59814C98.0362 6.59814 98.1425 6.59814 98.4613 6.59814C98.6739 6.70395 98.9928 6.91557 98.9928 7.23299C98.9928 7.65623 98.7802 7.76204 98.6739 7.97365Z" fill="#B58134"/>
<path d="M37.9844 13.7933C37.8781 14.2159 37.6655 14.4272 37.4529 14.5328C37.3467 14.5328 37.3467 14.6385 37.2404 14.6385C37.1341 14.6385 37.1341 14.6385 37.1341 14.6385C37.0278 14.6385 36.9215 14.6385 36.7089 14.7441C36.6027 14.6385 36.6027 14.3215 36.7089 14.2159C36.7089 14.1102 36.8152 14.0046 36.9215 14.0046C36.9215 14.0046 37.0278 13.8989 37.1341 13.8989C37.3467 13.7933 37.5592 13.6876 37.9844 13.7933Z" fill="#B58134"/>
<path d="M62.1116 2.78848C61.899 2.89413 61.6864 2.99978 61.6864 2.99978C61.5802 3.10543 61.6864 2.99978 61.4739 3.10543L61.5802 2.78848C61.5802 2.89413 61.4739 3.10543 61.2613 3.31672C61.0487 3.21107 60.9424 3.10543 60.8362 2.89413V2.78848L61.0487 2.47154C61.155 2.36589 61.4739 2.15459 61.6864 2.26024C61.899 2.36589 62.0053 2.47154 62.1116 2.78848Z" fill="#B58134"/>
<path d="M108.24 25.7495C108.453 25.7495 108.559 25.9608 108.453 26.2778C108.346 26.4891 108.24 26.4891 108.24 26.5947C108.027 26.7003 107.815 26.806 107.496 26.7003C107.496 26.2778 107.602 26.0665 107.709 25.9608C107.815 25.8552 107.921 25.8552 107.921 25.8552C108.027 25.9608 108.134 25.8552 108.24 25.7495Z" fill="#B58134"/>
<path d="M40.6408 16.967C40.9597 16.7557 41.066 16.7557 41.1723 16.8614C41.2786 16.967 41.3848 17.0727 41.3848 17.3896C41.066 17.6009 40.9597 17.6009 40.8534 17.4953C40.7471 17.3896 40.6408 17.284 40.6408 16.967Z" fill="#B58134"/>
</g>
<defs>
<clipPath id="clip0">
<rect width="78.8643" height="44.6892" fill="white" transform="translate(33.095)"/>
</clipPath>
</defs>
</svg>
