<svg width="342" height="59" viewBox="0 0 342 59" fill="none" xmlns="http://www.w3.org/2000/svg">
<path d="M339.173 47.2392C338.231 47.2392 337.053 47.2392 335.639 47.2392H327.394C324.332 47.2392 321.034 47.0432 318.913 46.4552C319.385 46.4552 319.856 46.2591 320.562 46.2591C321.269 46.2591 321.74 45.6711 321.74 45.0831C321.74 44.495 321.034 44.103 320.327 43.907H320.562C322.918 44.299 325.274 44.691 326.687 43.711C327.159 43.5149 327.63 42.9269 327.865 42.1429V41.9468C328.101 41.5548 327.865 40.9668 327.63 40.5748C326.452 39.5947 325.038 39.0066 322.918 38.4186C322.683 38.2226 322.211 38.0266 321.269 37.8306C324.096 37.2425 324.096 36.4585 324.096 36.0664C324.096 34.8904 321.976 34.6944 319.385 34.4983C319.385 34.4983 318.913 34.4983 318.442 34.4983C318.442 34.1063 317.971 33.7143 317.5 33.7143C315.851 33.3223 314.202 33.1262 312.553 32.7342H313.024C313.731 32.7342 314.202 32.3422 314.202 31.7542C314.202 31.1661 313.731 30.7741 313.024 30.7741H312.788C312.788 30.3821 312.317 30.186 311.61 29.99L311.375 29.794C311.846 29.598 312.082 29.402 312.317 29.01C312.553 28.6179 312.553 27.8339 311.61 27.0498C311.139 26.6578 310.668 26.4618 309.726 26.2658C309.49 26.2658 309.255 26.0698 309.019 26.0698C314.437 25.4817 314.437 24.6977 314.437 24.5017C314.437 24.3056 314.437 24.1096 314.437 23.9136C315.144 23.9136 316.086 23.9136 316.793 23.7176C317.5 23.7176 318.207 23.7176 318.442 23.5216C318.913 23.5216 319.149 23.5216 319.385 23.5216C320.798 23.5216 322.211 23.3256 322.211 22.3455C322.211 21.7575 322.211 21.3654 318.913 20.9734C319.149 20.5814 319.149 20.1894 319.149 19.9934C318.913 19.0133 317.264 18.8173 314.437 18.6213C314.202 18.6213 313.731 18.6213 313.495 18.4252C312.788 18.4252 312.317 18.2292 311.61 18.2292C317.029 18.0332 317.736 17.6412 317.971 17.0532C320.327 16.6611 323.154 16.0731 323.625 15.093C323.625 14.897 323.861 14.701 323.861 14.701C326.923 14.505 326.923 14.113 326.923 13.5249C326.923 12.3488 325.981 12.3488 322.683 12.1528C320.798 11.9568 318.678 11.9568 316.793 11.9568C318.678 11.1728 319.385 10.7807 319.62 10.1927C319.62 9.99668 319.62 9.40864 319.385 9.21262C318.678 8.23256 317.5 7.84053 316.322 7.4485C318.913 6.66445 319.62 6.07641 319.385 5.29236C319.149 4.11628 317.736 3.72425 309.726 3.92027C309.961 3.72425 310.197 3.52824 310.197 3.13621C310.668 3.13621 311.139 3.13621 311.375 3.13621C311.61 3.13621 312.082 3.13621 312.317 3.13621C313.024 3.13621 313.495 2.74419 313.495 2.15615C313.495 1.56811 313.26 1.17608 312.317 1.17608H312.082C311.61 1.17608 310.904 1.17608 309.961 1.17608H309.019C308.312 1.17608 307.606 1.17608 306.899 1.37209C306.663 1.37209 306.192 1.37209 305.957 1.37209V0.784053C305.957 0.196013 305.721 0 304.543 0C304.072 0 303.13 0 301.716 0C298.654 0.196013 293.235 0.392027 290.88 0.392027H289.466C287.582 0.392027 285.461 0.392027 283.577 0.58804L282.399 0.784053H282.163H56.7153C56.2442 0.784053 55.773 0.784053 54.8307 0.784053H54.5951H54.124C53.4173 0.784053 52.4749 0.784053 51.7682 0.784053C50.3547 0.58804 47.7634 0.58804 43.0518 0.58804H42.8163C42.5807 0.58804 42.3451 0.58804 42.1095 0.784053L41.8739 0.980066C41.6384 1.17608 41.6384 1.56811 41.8739 1.96013C40.9316 1.96013 40.2249 1.96013 39.2826 1.76412C36.4557 1.56811 33.3931 1.56811 30.5662 1.56811C29.8595 1.56811 29.3883 1.96013 29.3883 2.54817C28.2104 2.9402 28.2104 3.33223 28.2104 3.72425C28.2104 4.70432 29.3883 4.70432 29.8595 4.70432C31.7441 4.70432 33.8643 4.90033 35.7489 4.90033V5.09635C35.2778 5.29236 34.8066 5.68439 34.8066 6.07641C34.571 6.27243 34.3355 6.46844 34.3355 6.86047C28.6816 6.66445 27.9749 6.86047 27.5037 7.64452C27.5037 7.84053 27.2681 8.03654 27.5037 8.23256C26.797 8.23256 26.3258 8.23256 25.8547 8.23256C24.4412 8.23256 24.4412 8.62458 24.4412 9.21262C24.4412 10.1927 25.3835 10.1927 27.0325 10.1927C27.5037 10.1927 28.2104 10.1927 29.1527 10.1927V10.3887C29.1527 10.7807 29.1527 10.9767 29.3883 10.9767C29.1527 10.9767 28.9172 11.1728 28.6816 11.1728C27.7393 11.1728 27.2681 11.3688 26.797 11.5648C25.8547 11.9568 26.0902 12.7409 26.0902 12.9369C26.3258 13.9169 27.5037 13.7209 29.6239 13.7209C29.6239 13.7209 29.8595 13.7209 30.0951 13.7209C31.0374 13.9169 31.9797 13.9169 32.922 14.113C33.3931 14.113 33.6287 14.113 34.0999 14.113C34.0999 14.309 33.8643 14.505 33.8643 14.505V14.701H24.9123C24.6768 14.701 24.2056 14.897 23.97 15.093C22.7921 15.289 22.7921 15.485 22.5566 16.0731C22.5566 16.4651 22.5566 16.8571 23.4989 17.0532C23.2633 17.2492 23.2633 17.4452 23.2633 17.6412C23.0277 17.6412 22.7921 17.6412 22.5566 17.6412C17.6094 18.0332 17.1383 18.0332 17.1383 19.2093C17.1383 20.1894 17.1383 20.3854 28.9172 20.3854C28.9172 20.3854 28.9172 20.3854 28.9172 20.5814C28.6816 20.9734 29.1528 21.5615 29.6239 21.7575C30.3306 22.1495 31.2729 22.1495 31.9797 22.1495C32.2153 22.1495 32.4508 22.1495 32.6864 22.1495C33.8643 22.1495 34.8066 22.3455 35.7489 22.3455C34.8066 22.3455 34.571 22.5415 34.3355 22.7375C31.7441 22.7375 28.9172 22.7375 26.3258 22.7375C13.8402 22.7375 7.24402 22.7375 3.94593 22.7375C2.06131 22.7375 1.35457 22.7375 1.11899 22.7375V22.9336C0.412261 22.9336 0.176683 23.1296 0.176683 23.3256C-0.0588944 23.5216 -0.0588944 23.9136 0.176683 24.3056C0.412261 24.5017 0.412261 24.6977 1.11899 24.6977H3.23919C4.41708 24.6977 6.3017 24.6977 8.4219 24.6977C12.6623 24.6977 18.5517 24.6977 25.1479 24.6977C25.1479 24.8937 25.1479 24.8937 25.1479 24.8937H9.12864V26.8538H20.4364V27.0498C20.4364 27.8339 20.9075 28.0299 21.6143 28.0299H21.8498C21.8498 28.0299 21.8498 28.0299 22.0854 28.0299C22.0854 28.4219 22.5566 28.6179 23.0277 28.6179C22.7921 28.814 22.5566 29.01 22.5566 29.402C22.5566 29.598 22.5566 29.99 22.7921 29.99C21.6143 29.99 20.6719 30.186 20.2008 30.3821C16.6671 30.5781 13.1335 30.7741 9.59979 30.9701C1.59015 31.5581 1.11899 31.5581 1.35457 32.7342C1.35457 33.7143 1.35457 33.9103 10.3065 33.7143C9.36422 33.7143 8.65748 33.9103 8.18633 33.9103C7.95075 33.9103 7.95075 33.9103 7.95075 33.9103C6.53728 34.1063 6.53728 34.4983 6.53728 34.8904C6.53728 35.8704 7.24402 35.8704 10.5421 35.8704C15.2537 35.8704 22.5566 35.8704 29.1527 35.8704C26.0902 35.8704 23.0277 36.0664 20.2008 36.0664H19.2585C18.7873 36.0664 18.0806 36.0664 17.6094 36.0664C17.1383 36.0664 16.9027 36.0664 16.6671 36.2625C14.0758 36.4585 14.0758 36.6545 14.0758 37.2425C14.0758 37.6346 14.0758 37.8306 15.4892 38.0266C15.4892 38.0266 15.7248 38.0266 16.196 38.0266C17.3739 38.0266 19.0229 38.2226 21.3787 38.2226C20.6719 38.4186 19.9652 38.6146 19.2585 38.8106C18.7873 39.0066 18.5517 39.2027 18.3162 39.3987C12.1911 39.3987 9.36422 39.5947 7.95075 39.5947H6.77286C5.83055 39.5947 5.83055 39.7907 5.59497 39.9867C5.35939 40.1827 5.35939 40.5748 5.59497 40.9668C5.59497 41.1628 5.83055 41.1628 6.77286 41.3588V41.5548C6.77286 41.5548 7.24402 41.5548 8.4219 41.5548C10.5421 41.5548 13.8402 41.5548 20.2008 41.5548C20.6719 41.5548 21.3787 41.7508 22.321 41.7508C22.0854 41.9468 22.0854 42.1429 22.321 42.3389C22.321 42.5349 22.321 42.5349 22.321 42.7309C21.1431 42.9269 21.1431 43.1229 21.1431 43.711C21.1431 44.495 21.6143 44.691 23.2633 44.887C23.4989 45.0831 23.97 45.2791 24.2056 45.2791C25.1479 45.2791 27.5037 45.4751 28.2104 45.4751C29.1527 45.4751 30.0951 45.4751 31.0374 45.4751C30.5662 45.4751 29.8595 45.6711 29.3883 45.8671C29.1527 45.8671 28.9172 46.0631 28.9172 46.2591C26.0902 46.2591 23.4989 46.4552 20.6719 46.4552C19.9652 46.4552 19.4941 46.8472 19.4941 47.4352C19.4941 47.6312 19.7296 47.8272 19.7296 48.0233C19.4941 48.4153 19.7296 49.0033 19.9652 49.1993C20.2008 49.3954 20.4364 49.5914 20.9075 49.7874C19.9652 49.7874 19.2585 49.7874 18.5517 49.7874C17.3739 49.7874 16.6671 49.7874 16.4315 49.7874V49.9834C15.2537 50.1794 15.2537 50.3754 15.2537 50.7674C15.2537 51.3555 15.2537 51.5515 16.4315 51.7475H16.9027C17.845 51.7475 19.2585 51.7475 21.3787 51.7475H26.0902C25.8547 51.7475 25.8547 51.9435 25.8547 52.1395C25.6191 52.5316 25.6191 52.7276 25.8547 53.1196L26.0902 53.3156H15.2537C14.5469 53.3156 14.0758 53.7076 14.0758 54.2957C14.0758 54.8837 14.5469 55.2757 15.2537 55.2757H26.797C26.797 55.2757 26.797 55.2757 26.797 55.4718H25.8547C25.1479 55.4718 24.6768 55.8638 24.6768 56.4518C24.6768 57.0399 25.1479 57.4319 25.8547 57.4319H28.446C28.6816 57.6279 28.9172 57.6279 29.3883 57.6279C31.7441 57.8239 34.0999 58.0199 36.4557 58.0199C36.9268 58.2159 38.1047 58.216 42.1095 58.216C42.8163 58.216 43.2874 58.216 43.9941 58.216C44.7009 58.216 45.172 58.216 45.8788 58.216C46.8211 58.216 47.7634 58.216 48.9413 58.216C49.1769 58.216 49.4124 58.2159 49.648 58.0199C52.4749 58.0199 56.0086 58.216 59.7779 58.216C82.6289 58.608 107.129 59 132.336 59C159.192 59 186.99 58.608 214.788 57.4319C224.211 57.2359 233.87 57.0399 243.293 56.4518H282.87C290.173 56.8439 298.889 57.0399 307.606 57.0399H308.548C309.255 57.0399 309.726 56.6478 309.726 56.0598C309.726 55.4718 309.255 55.0797 308.548 55.0797H308.077C306.663 55.0797 305.25 55.0797 303.601 54.8837C302.187 54.8837 300.774 54.6877 299.36 54.6877C299.596 54.6877 300.067 54.6877 300.303 54.4917H301.009C301.245 54.4917 301.481 54.4917 301.716 54.4917C301.952 54.4917 301.952 54.4917 302.187 54.4917C303.365 54.4917 304.543 54.4917 305.721 54.6877H306.428C307.606 54.6877 308.548 54.6877 308.548 53.7076C308.548 53.5116 308.548 53.3156 308.548 53.1196C309.255 52.9236 309.255 52.7276 309.255 52.3356C309.255 51.3555 308.077 51.1595 306.899 51.1595C306.663 51.1595 306.428 51.1595 306.192 51.1595C306.192 51.1595 306.192 51.1595 306.192 50.9635C306.899 50.9635 307.37 50.7674 307.841 50.7674H319.385H322.211C323.861 50.7674 324.803 50.7674 324.803 49.7874V49.5914H331.399C332.106 49.5914 332.577 49.1993 332.577 48.6113V48.4153C336.817 48.4153 339.173 48.4153 340.351 48.4153H340.587C341.764 48.2193 341.764 48.0233 342 47.4352C340.587 48.0233 340.351 47.2392 339.173 47.2392ZM314.909 46.8472C314.673 46.8472 314.673 46.8472 314.437 46.8472C314.437 46.8472 314.673 46.8472 314.909 46.8472ZM49.1769 56.8439C48.7057 56.6478 48.4701 56.6478 47.7634 56.4518C49.8836 56.4518 52.2394 56.6478 54.5951 56.6478V56.8439C52.4749 56.8439 50.8259 56.8439 49.1769 56.8439ZM315.144 36.4585C314.437 36.4585 313.966 36.4585 313.26 36.6545H311.846C312.082 36.6545 312.317 36.6545 312.553 36.6545C313.495 36.4585 314.437 36.4585 315.144 36.4585ZM291.586 45.2791C291.586 45.2791 291.351 45.2791 291.351 45.0831C291.586 45.0831 291.822 45.0831 292.057 45.0831C291.822 45.0831 291.586 45.0831 291.586 45.2791ZM297.947 11.3688C297.476 11.5648 297.005 11.5648 296.534 11.7608H296.298C296.298 11.5648 296.062 11.3688 295.827 11.3688C295.827 11.1728 296.062 10.9767 296.062 10.7807C297.947 10.7807 299.125 10.7807 299.832 10.5847C299.36 10.7807 298.654 11.1728 297.947 11.3688ZM307.134 11.5648C306.899 11.5648 306.663 11.7608 306.192 11.7608C305.25 11.7608 304.308 11.7608 303.13 11.7608C303.836 11.5648 304.543 11.3688 305.25 11.3688C306.192 11.3688 306.663 11.3688 307.134 11.5648ZM297.476 45.6711C298.418 45.4751 299.125 45.2791 299.832 45.0831C302.659 45.2791 305.485 45.2791 308.548 45.4751C304.779 45.6711 301.009 45.8671 297.24 45.8671C297.476 45.8671 297.476 45.6711 297.476 45.6711ZM298.654 30.9701C295.827 30.9701 293 30.9701 290.408 31.1661V30.7741C290.644 30.7741 290.88 30.7741 291.351 30.7741C292.529 30.7741 294.178 30.7741 296.062 30.7741C296.769 30.7741 297.711 30.9701 298.654 30.9701ZM307.606 7.25249C307.37 7.25249 307.37 7.25249 307.606 7.25249C307.37 7.25249 307.37 7.25249 307.37 7.25249H307.606ZM49.1769 31.3621C47.5278 31.5581 45.8788 31.7542 44.4653 31.9502C43.9941 31.7542 43.2874 31.7542 42.5807 31.7542C44.7009 31.5581 46.8211 31.3621 49.1769 31.3621ZM40.2249 39.0066C41.8739 39.0066 43.2874 39.0066 44.9365 39.0066C44.4653 39.0066 43.7586 39.2027 43.2874 39.2027H42.1095C41.6384 39.2027 41.1672 39.2027 40.9316 39.3987H39.5182C39.2826 39.2027 39.047 39.2027 38.8114 39.2027C38.5759 39.2027 38.5759 39.2027 38.3403 39.2027H40.2249V39.0066ZM308.312 24.1096C306.428 24.3056 304.072 24.3056 301.481 24.5017C301.245 24.3056 301.009 24.3056 301.009 24.1096C301.952 24.1096 302.894 24.1096 303.836 24.1096H306.899C307.134 24.1096 307.134 24.1096 307.37 23.9136C307.606 23.9136 307.841 23.9136 308.077 23.9136C308.077 24.1096 308.312 24.1096 308.312 24.1096ZM65.9029 57.2359H68.0231C68.9654 57.2359 69.9077 57.2359 71.0856 57.2359H88.9895C94.4078 57.2359 99.8261 57.2359 105.244 57.2359H113.018C113.018 57.4319 113.018 57.6279 113.254 57.8239C96.9991 57.6279 81.2154 57.4319 65.9029 57.2359Z" fill="#1C1C1C"/>
</svg>
