<svg width="18" height="18" viewBox="0 0 18 18" fill="none" xmlns="http://www.w3.org/2000/svg">
<path d="M5.04567 10.1186L7.70979 7.31301L1.10127 0.363493C0.396029 1.10832 0 2.11724 0 3.16908C0 4.22091 0.396029 5.22983 1.10127 5.97466L5.04567 10.1186ZM11.4283 8.32421C12.8686 9.02808 14.8926 8.5324 16.3894 6.95612C18.1874 5.06259 18.5357 2.34624 17.1519 0.88892C15.7775 -0.558483 13.1981 -0.201589 11.3906 1.69193C9.89381 3.26821 9.42311 5.39966 10.0915 6.91646L0.903577 16.5923L2.23093 17.9901L8.71707 11.1794L15.1938 18L16.5212 16.6022L10.0444 9.78153L11.4283 8.32421Z" fill="#1C1C1C"/>
</svg>
