<svg width="108" height="45" viewBox="0 0 108 45" fill="none" xmlns="http://www.w3.org/2000/svg">
<path d="M28.9219 22.645C30.2037 22.3817 30.5041 23.1311 30.9447 23.1514C31.3853 23.1716 31.5255 22.7463 31.125 21.9361C30.7044 21.126 29.2624 20.8627 28.5614 21.0652C23.3944 22.5235 18.6679 26.4122 17.3461 31.0099C16.2246 34.9188 18.1272 36.1341 18.8281 36.7214C19.2487 37.0657 19.9497 37.248 20.6707 37.248C23.5746 37.248 26.779 33.2175 27.9806 31.4757C28.241 31.1111 28.4813 30.7466 28.6816 30.4022C28.5014 31.8605 28.0608 34.5138 27.1996 36.8227C22.7735 37.2075 19.2087 38.9494 18.007 41.4811C17.0257 43.5672 18.5878 45.2685 19.9296 44.9647C21.6921 44.5799 25.6775 43.4052 28.0207 39.5165C28.4012 38.9088 28.7217 38.2 29.0221 37.4303C29.3826 37.4303 29.683 37.4506 29.9433 37.4708C31.4053 37.5923 31.5255 36.924 30.7845 36.8227C30.2838 36.7822 29.7631 36.7619 29.2624 36.7619C30.444 33.3998 31.0248 29.3896 31.1049 28.7414C31.2051 27.8705 29.703 27.6275 29.3225 27.4249C29.1022 27.3034 28.982 27.6882 28.9019 28.3161C27.2997 30.9694 24.0152 36.0126 20.5305 34.8783C19.3889 34.5138 19.0885 32.3466 19.6292 30.9288C21.2114 26.8173 24.7763 23.4552 28.9219 22.645ZM26.1181 39.0506C24.4158 41.7849 20.4904 43.1824 19.5291 43.2432C18.5878 43.3242 19.5892 41.1165 22.353 39.2532C23.815 38.2607 25.4572 37.7949 26.8992 37.5721C26.6588 38.0987 26.3985 38.605 26.1181 39.0506Z" fill="white"/>
<path d="M36.5954 31.3744C36.8558 31.4149 37.056 31.1314 36.9158 30.9896C36.3751 30.382 35.2936 30.4022 34.6527 30.5845C34.0319 30.7668 31.7087 32.1441 31.5084 33.4808C31.2881 34.8176 32.67 35.3239 33.1307 35.1416C33.5713 34.9594 34.4124 34.7163 35.1334 34.291C34.7529 35.3847 35.9745 35.6682 36.5754 35.4454C37.1762 35.2429 40.0401 33.7441 41.0615 33.0757C42.0829 32.4074 42.7037 31.4352 41.9627 31.7187C41.2017 31.982 37.5968 33.2985 37.0961 33.6226C36.5754 33.9669 37.056 33.339 37.3765 32.9745C37.6168 32.7112 37.4766 32.2656 37.1962 32.0631C37.0761 31.982 33.9918 33.4201 33.8116 33.4606C33.8316 32.853 36.335 31.3542 36.5954 31.3744ZM37.036 26.4528C36.9359 26.4325 36.7756 26.4933 36.7957 26.554L36.6555 26.5945C36.1948 26.6958 35.2736 27.6275 34.833 28.1136C34.4124 28.5591 34.2121 29.6123 34.9732 29.7744C35.7342 29.9364 37.1562 29.2073 37.6168 28.1946C38.0975 27.1819 37.2964 26.5135 37.036 26.4528ZM36.6955 28.1541C36.295 28.6199 35.4939 28.944 35.574 28.7212C35.6541 28.5186 36.4352 27.7692 37.056 27.2832C36.9759 27.6477 36.8558 27.9718 36.6955 28.1541Z" fill="white"/>
<path d="M46.3434 32.3466C46.2633 31.4149 46.6839 30.2807 46.043 30.2807C45.6625 30.2807 44.8414 30.8478 44.0403 31.4149C44.7212 30.1389 43.84 30.5238 43.5796 30.1187C43.2792 29.6731 43.0189 29.8756 42.378 30.3212C41.9374 30.6453 42.0576 30.9896 41.7972 31.6377C41.5168 32.2858 39.3739 35.6075 39.8545 36.8632C40.0748 37.4303 40.5154 37.3898 41.0762 37.086C42.4581 36.3366 41.9975 35.7695 42.418 34.6758C42.5783 34.1492 42.8386 33.6023 43.2392 32.8732C43.6197 32.6909 43.9802 32.5289 44.1204 32.4479C44.5409 32.2453 44.9215 32.3669 44.8614 32.9137C44.7813 33.4606 45.6625 33.7644 46.043 33.7644C46.4235 33.7644 46.4435 33.2783 46.3434 32.3466Z" fill="white"/>
<path d="M57.4545 24.1641C57.5747 23.9413 57.3344 23.4754 57.034 23.3134C56.2929 22.8881 56.0126 23.0906 55.8924 23.3944C55.7722 23.6982 55.0513 25.3996 54.15 27.0199L52.3275 30.4225C52.1072 30.1997 51.7868 30.0782 51.3662 30.1795C50.2847 30.4225 48.5223 31.577 47.7012 32.4681C46.8601 33.3593 46.82 34.2505 46.9201 34.4328C47.0203 34.5948 47.1004 35.2429 47.9215 35.3644C48.7627 35.486 49.9643 34.5745 50.2847 34.2302C50.2847 34.2302 50.3448 34.9391 50.445 35.2834C50.5251 35.6075 50.9256 35.972 51.4864 36.0531C52.0672 36.1341 53.0285 35.4657 53.9097 34.6961C54.7909 33.9467 57.0139 32.4884 56.1127 32.4479C55.5319 32.4276 53.5292 33.5011 52.708 33.8251C52.9884 33.177 53.2488 32.4884 53.4691 31.901C54.5305 28.8022 57.3344 24.3666 57.4545 24.1641ZM49.0631 33.5011C49.1632 33.4403 50.6653 31.982 51.2461 31.7795L51.6867 31.658L51.2461 32.4884L51.0458 32.6302C50.3248 33.177 49.4636 33.3796 49.0631 33.5011Z" fill="white"/>
<path d="M59.5205 31.8403C59.0599 32.0631 58.4991 32.3669 57.9584 32.6909C57.9584 32.2251 58.0184 31.8403 58.1586 31.5162C58.439 30.8276 58.8396 30.4428 59.3603 30.4428C59.5405 30.4428 59.6006 30.4428 59.7007 30.3415C59.8209 30.2605 59.8209 29.7946 59.5005 29.6326C59.16 29.4503 57.8582 29.4301 57.0972 30.1997C56.5965 30.706 56.0558 31.6782 56.4363 32.8327C56.4964 33.0352 56.5965 33.2783 56.6566 33.4808C55.8755 34.0277 55.3147 34.534 55.0143 35.0201C54.6939 35.567 54.5737 36.3164 54.754 36.4581C54.9142 36.5999 55.0744 36.9037 55.2947 37.0658C55.7954 37.5316 56.7167 37.5923 57.4176 37.0455C58.1586 36.4784 58.3789 35.3644 58.1386 34.21C58.0985 34.0479 58.0785 33.8859 58.0585 33.7239C59.2601 32.8732 60.8823 31.8403 61.6834 31.4757C62.2242 31.2327 61.0225 31.1314 59.5205 31.8403ZM56.9169 35.8303C56.7567 36.3366 56.2761 36.5392 55.9556 36.5392C55.8555 36.4581 55.7954 36.3771 55.7754 36.2556C55.7553 36.0328 55.7754 35.4049 56.7567 34.6353C56.7767 34.615 56.8168 34.5745 56.8568 34.5543C56.9169 35.0809 57.0171 35.5062 56.9169 35.8303Z" fill="white"/>
<path d="M64.2218 29.6731C63.1803 29.8959 60.6769 32.853 60.2363 33.7441C59.7957 34.6353 59.9559 35.3037 60.2363 36.0531C60.5167 36.8024 61.3779 37.4506 62.2991 37.3088C63.5609 37.1265 69.2687 33.7644 69.8495 32.9947C70.4302 32.2251 70.2901 31.901 69.9296 32.1441C67.9869 33.4808 64.9628 35.0809 63.4407 35.567C61.9787 36.0328 61.6783 35.3847 62.0187 34.5138C62.3592 33.6429 64.0415 31.658 64.9227 31.1314C65.8039 30.6048 65.7238 31.2732 66.0643 31.2934C66.4047 31.3137 66.5249 30.9693 66.2045 30.3415C65.884 29.7136 64.7825 29.5516 64.2218 29.6731Z" fill="white"/>
<path d="M73.5796 31.3744C73.8399 31.4149 74.0402 31.1314 73.9 30.9896C73.3592 30.382 72.2778 30.4022 71.6369 30.5845C71.016 30.7668 68.6929 32.1441 68.4926 33.4808C68.2723 34.8176 69.6542 35.3239 70.1148 35.1416C70.5554 34.9594 71.3966 34.7163 72.1176 34.291C71.737 35.3847 72.9587 35.6682 73.5595 35.4454C74.1603 35.2429 77.0243 33.7441 78.0457 33.0757C79.0671 32.4074 79.6879 31.4352 78.9469 31.7187C78.1859 31.982 74.5809 33.2985 74.0802 33.6226C73.5595 33.9669 74.0402 33.339 74.3606 32.9745C74.6009 32.7112 74.4608 32.2656 74.1804 32.0631C74.0602 31.982 70.976 33.4201 70.7957 33.4606C70.8158 32.853 73.3192 31.3542 73.5796 31.3744Z" fill="white"/>
<path d="M83.2922 30.9896C82.7515 31.0706 81.9504 31.1314 81.1292 31.1921C81.8703 29.8756 83.2321 27.9718 84.0532 27.0199C84.6941 26.2907 85.5954 26.2705 85.6955 25.9262C85.9959 24.8932 84.3537 24.0831 83.7328 24.2653C82.6313 24.5894 80.3281 28.3971 79.0865 30.9896C79.0264 31.0909 78.9863 31.1921 78.9262 31.3137C78.6859 31.3137 78.5057 31.3339 78.4255 31.3339C77.7246 31.3542 77.8247 31.2732 77.304 31.4757C76.8033 31.6985 77.0637 33.2378 77.7646 33.2175C77.8247 33.2175 77.9249 33.1973 78.025 33.1973C76.6631 36.1341 74.36 41.6836 74.2398 43.0001C74.1197 44.7014 75.2813 45.2685 76.0022 44.7825C76.7232 44.2964 75.7619 43.6482 76.3026 41.9469C77.1037 39.3342 78.746 35.8303 80.228 32.8732C81.1292 32.7314 82.0505 32.5694 82.6914 32.4479C84.0733 32.2048 84.6941 31.2326 84.7542 31.0909C84.8143 30.9288 84.574 30.8073 83.2922 30.9896Z" fill="white"/>
<path d="M90.1497 33.4808C88.7678 34.3112 86.3846 35.1214 85.3632 35.1821C84.3418 35.2429 84.6422 34.5543 84.8224 34.3315C85.3632 35.1821 86.0241 34.6758 86.8051 34.3112C87.5862 33.9467 88.8479 33.2378 88.7678 32.4276C88.6677 31.5972 87.8666 30.6453 87.3258 30.6048C86.9053 30.5643 86.0841 30.6655 85.0427 31.658C83.9813 32.6707 83.1401 34.372 82.9999 35.1821C82.8397 36.0126 83.4405 37.1063 84.8625 36.8025C86.2644 36.4986 89.7492 34.615 90.35 34.2505C90.9508 33.8859 91.5316 32.6707 90.1497 33.4808ZM86.9854 32.3061C86.8652 32.8124 86.0841 33.177 85.7237 33.2783C86.1242 32.7922 86.3846 32.5491 86.9854 32.3061ZM87.2057 28.7009C86.7851 29.0655 86.4647 29.349 86.4647 29.5718C86.4847 29.8554 86.9653 29.8351 87.426 29.7136C87.8666 29.6123 88.4073 29.268 89.0882 28.5389C89.5689 28.0528 89.7492 27.6072 89.649 27.2426C89.4487 26.6148 88.8079 26.4528 88.7278 26.6553C88.7077 26.6755 88.7077 26.6958 88.7077 26.716C88.3472 27.6275 87.446 28.4984 87.2057 28.7009Z" fill="white"/>
<path d="M11.4202 11.2235C11.3288 11.5001 11.2984 11.7459 11.1767 11.961C11.0549 12.2375 10.9027 12.4526 10.7201 12.6369C10.5375 12.852 10.3244 12.9749 10.0809 13.1285C9.86786 13.2822 9.62437 13.3744 9.38087 13.4973C9.13737 13.5587 8.89387 13.6509 8.61994 13.7123C8.31557 13.7738 8.04163 13.7431 7.73726 13.7431C7.43289 13.7431 7.12852 13.7738 6.85458 13.7431C6.55021 13.6816 6.27627 13.5587 6.03278 13.4665C5.7284 13.3436 5.48491 13.19 5.27185 13.0364C4.99791 12.852 4.78485 12.6677 4.63267 12.4526C4.48048 12.176 4.38917 11.9302 4.23698 11.6844C4.11523 11.4079 4.02392 11.1621 3.90217 10.8856C3.81086 10.609 3.68911 10.3632 3.62824 10.0867C3.53693 9.81015 3.47605 9.53362 3.41518 9.25709C3.38474 8.94983 3.44561 8.67329 3.41518 8.39676C3.41518 8.0895 3.3543 7.81297 3.38474 7.53644C3.38474 7.2599 3.47605 6.98337 3.53693 6.67611C3.5978 6.39958 3.62824 6.12305 3.71955 5.84652C3.81086 5.56998 4.02392 5.3549 4.14567 5.07837C4.26742 4.80184 4.35873 4.5253 4.54135 4.31022C4.72398 4.06442 4.96747 3.88006 5.21097 3.69571C5.45447 3.51135 5.69797 3.35772 5.9719 3.23482C6.2154 3.11191 6.51977 3.05046 6.79371 2.98901C7.09808 2.92756 7.37201 2.86611 7.67638 2.89683C7.98076 2.89683 8.25469 2.95829 8.55906 3.01974C8.833 3.08119 9.16781 3.08119 9.44174 3.20409C9.71568 3.29627 9.95917 3.51135 10.2027 3.66498C10.4157 3.78788 10.7505 3.94151 11.0549 4.12587C11.3288 4.31022 11.6028 4.55603 11.8463 4.67893C12.1202 4.80184 12.3637 4.86329 12.5768 4.83256C12.8203 4.77111 13.0333 4.64821 13.2464 4.46385C13.429 4.31022 13.6116 4.12587 13.7943 3.88006C14.0682 3.5728 14.2204 3.26554 14.2204 2.98901C14.2813 2.68175 14.1899 2.34377 13.8856 2.06724C13.7029 1.88288 13.429 1.75998 13.216 1.60635C13.0029 1.45272 12.7898 1.29909 12.5463 1.14546C12.3028 1.02256 12.0898 0.807475 11.8463 0.715298C11.6028 0.592395 11.3288 0.561669 11.0854 0.469492C10.8114 0.377314 10.5679 0.285137 10.294 0.223684C10.02 0.162233 9.77655 0.100781 9.50262 0.0700559C9.22868 0.00860499 8.95475 0.00860377 8.68081 0.00860377C8.40688 -0.0221235 8.13294 0.0393298 7.85901 0.0393298C7.58507 0.0393298 7.31114 -0.0221235 7.0372 0.00860377C6.76327 0.0393292 6.48933 0.10078 6.24584 0.131506C5.94146 0.192958 5.69797 0.285137 5.42403 0.346588C5.11966 0.438766 4.87616 0.530942 4.60223 0.62312C4.32829 0.715298 4.05436 0.77675 3.81086 0.899654C3.53693 1.02256 3.29343 1.17619 3.08037 1.32981C2.83687 1.48344 2.59337 1.6678 2.38031 1.85215C2.16725 2.03651 2.01507 2.28232 1.83244 2.4974C1.61938 2.71248 1.43676 2.89683 1.28457 3.14264C1.13239 3.38845 0.949765 3.63425 0.828016 3.88006C0.736704 4.18732 0.67583 4.46385 0.614956 4.77111C0.523644 5.04764 0.46277 5.3549 0.401895 5.63143C0.341021 5.90797 0.280147 6.21523 0.219272 6.49176C0.188835 6.79902 0.158398 7.10628 0.127961 7.38281C0.0975234 7.69007 0.00621166 7.9666 0.00621166 8.27386C-0.0242255 8.58112 0.067086 8.85765 0.067086 9.16491C0.0975233 9.47217 0.067086 9.7487 0.0975233 10.056C0.12796 10.3632 0.188835 10.6397 0.249709 10.947C0.341021 11.2235 0.371458 11.5308 0.46277 11.8073C0.554081 12.0839 0.67583 12.3604 0.797579 12.6369C0.88889 12.9135 1.01064 13.1593 1.16283 13.4051C1.28457 13.6509 1.40632 13.8967 1.58895 14.1118C1.74113 14.3269 1.95419 14.5419 2.13682 14.7263C2.34988 14.9414 2.5325 15.1257 2.74556 15.3101C2.95862 15.4944 3.20212 15.6481 3.44561 15.8017C3.65867 15.9553 3.93261 16.0475 4.17611 16.1704C4.4196 16.2933 4.6631 16.4469 4.93704 16.5391C5.21097 16.6313 5.48491 16.6313 5.75884 16.6927C6.03278 16.7542 6.27627 16.8771 6.58065 16.9078C6.85458 16.9385 7.12852 16.9385 7.43289 16.9693C7.70682 16.9693 7.98076 16.8771 8.28513 16.8464C8.55906 16.8156 8.833 16.8464 9.13737 16.7849C9.41131 16.7235 9.68524 16.662 9.95917 16.6006C10.2331 16.5084 10.4766 16.3548 10.7505 16.2626C10.994 16.1397 11.268 16.0475 11.5419 15.9246C11.7854 15.8017 12.0289 15.6788 12.2724 15.4944C12.5159 15.3408 12.6985 15.095 12.9116 14.9106C13.1246 14.7263 13.3681 14.6034 13.5812 14.3883C13.7638 14.1732 13.8856 13.8967 14.0378 13.6509C14.1899 13.4358 14.3726 13.19 14.4943 12.9442C14.6161 12.6677 14.7074 12.4218 14.8291 12.1453C14.9204 11.8688 15.0117 11.623 15.0726 11.3157C15.1639 11.0392 15.1639 10.7627 15.1944 10.4861C15.2248 10.2096 15.2857 9.90233 15.2857 9.6258C15.3161 9.34926 15.3161 9.042 15.2857 8.73475C15.2857 8.45821 15.1639 8.18168 15.0117 7.93587C14.8596 7.72079 14.6769 7.50571 14.3421 7.41353C14.1291 7.32136 13.8247 7.32136 13.4899 7.32136C13.216 7.32136 12.942 7.32136 12.6681 7.32136C12.3941 7.29063 12.1507 7.29063 11.8767 7.29063C11.6028 7.2599 11.3288 7.2599 11.0854 7.2599C10.8114 7.2599 10.5375 7.19845 10.2635 7.19845C10.02 7.19845 9.74611 7.16773 9.47218 7.16773C9.19824 7.16773 8.92431 7.19845 8.65038 7.19845C8.40688 7.19845 8.13294 7.2599 7.85901 7.2599C7.58507 7.29063 7.34158 7.22918 7.0372 7.2599C6.85458 7.2599 6.76327 7.56716 6.67196 7.90515C6.58065 8.18168 6.48933 8.48894 6.4589 8.67329C6.4589 8.88837 6.4589 9.19563 6.55021 9.44144C6.61108 9.71797 6.79371 9.90233 6.97633 10.056C7.18939 10.1789 7.40245 10.271 7.67638 10.3018C7.91988 10.3325 8.19382 10.3018 8.43731 10.3018C8.74169 10.3018 8.98518 10.3939 9.22868 10.3939C9.50262 10.4247 9.74611 10.4554 10.02 10.4554C10.2635 10.4554 10.507 10.4554 10.8114 10.4554C11.0245 10.4861 11.2984 10.4247 11.6028 10.4247C11.5723 10.7012 11.481 10.9777 11.4202 11.2235Z" fill="white"/>
<path d="M20.8547 3.91079C20.8547 4.18732 20.7939 4.46385 20.7939 4.77111C20.7939 5.04764 20.8243 5.32418 20.8243 5.60071C20.8243 5.87724 20.8243 6.1845 20.8243 6.46103C20.8243 6.73757 20.8243 7.0141 20.8243 7.32136C20.8243 7.59789 20.8243 7.87442 20.8243 8.15096C20.8243 8.45821 20.8547 8.73474 20.8547 8.98055C20.8547 9.28781 20.7939 9.59507 20.7939 9.84088C20.7939 10.1789 20.7939 10.4554 20.7939 10.6705C20.7634 10.9777 20.7939 11.2543 20.8243 11.5308C20.8547 11.8073 20.8852 12.1146 20.9156 12.3911C20.9765 12.6677 21.0678 12.9442 21.1591 13.19C21.2504 13.4665 21.3417 13.7431 21.4635 13.9889C21.5852 14.2654 21.7679 14.4805 21.9505 14.6956C22.1027 14.9106 22.2853 15.1564 22.4983 15.3408C22.681 15.5559 22.9245 15.6788 23.168 15.8324C23.4115 15.986 23.6245 16.1704 23.8985 16.2933C24.142 16.4162 24.4159 16.4469 24.6898 16.5391C24.9333 16.6313 25.2073 16.6927 25.4508 16.7542C25.7247 16.8156 25.9986 16.8771 26.2726 16.9078C26.5465 16.9385 26.8204 17 27.0639 17C27.3379 17 27.6118 16.9693 27.8857 16.9385C28.1597 16.9385 28.4336 16.9078 28.7075 16.8464C28.9815 16.7849 29.2554 16.7235 29.4989 16.6313C29.7424 16.5391 29.9859 16.3855 30.2294 16.2626C30.4729 16.1397 30.7164 16.0168 30.9294 15.8631C31.1729 15.7095 31.3251 15.4637 31.5382 15.2794C31.7208 15.095 31.9643 14.9414 32.1469 14.7263C32.2991 14.5112 32.3904 14.2347 32.5426 13.9889C32.6644 13.7738 32.847 13.528 32.9383 13.2822C33.0296 13.0364 33.0905 12.7598 33.1514 12.4833C33.2122 12.2068 33.2427 11.9302 33.2731 11.6537C33.3035 11.3772 33.3035 11.1006 33.3035 10.8241C33.3035 10.5476 33.3035 10.271 33.3035 10.0252C33.3035 9.71797 33.3035 9.44144 33.3035 9.19563C33.3035 8.9191 33.334 8.64257 33.334 8.39676C33.334 8.0895 33.2731 7.8437 33.3035 7.59789C33.3035 7.29063 33.3644 7.0141 33.3644 6.79902C33.3644 6.49176 33.334 6.21523 33.334 5.96942C33.3644 5.69289 33.3949 5.44708 33.3949 5.17055C33.3949 4.92474 33.4253 4.67893 33.4253 4.37167C33.4253 4.12587 33.3949 3.88006 33.3949 3.5728C33.3949 3.327 33.3949 3.05046 33.3949 2.7432C33.3949 2.52812 33.3644 2.25159 33.3644 1.94433C33.3949 1.6678 33.3644 1.36054 33.3035 1.14546C33.2427 0.838201 33.0905 0.623121 32.8774 0.500217C32.6339 0.377313 32.36 0.346587 32.0556 0.315862C31.7817 0.285137 31.5078 0.346588 31.2338 0.346588C30.8381 0.346588 30.5338 0.315863 30.2903 0.408039C30.0163 0.500217 29.8337 0.715299 29.8033 1.14546C29.7728 1.32982 29.8033 1.60635 29.8033 1.85215C29.8337 2.09796 29.8337 2.34377 29.8337 2.58958C29.8641 2.86611 29.8337 3.11191 29.8337 3.327C29.8641 3.60353 29.8641 3.88006 29.8641 4.12587C29.8946 4.4024 29.9555 4.64821 29.9555 4.89401C29.9555 5.17055 30.0163 5.41635 30.0163 5.66216C30.0468 5.93869 30.0163 6.21523 30.0163 6.46103C30.0468 6.73757 30.0468 6.98337 30.0772 7.22918C30.0772 7.50571 30.0772 7.75152 30.0772 8.02805C30.0772 8.27386 30.1381 8.55039 30.1381 8.82692C30.1381 9.07273 30.1076 9.31854 30.1076 9.59507C30.1076 9.84088 30.1381 10.1174 30.1381 10.3939C30.1381 10.7012 30.0163 10.947 29.9859 11.2235C29.9555 11.5001 29.8641 11.7766 29.7728 12.0224C29.6815 12.2989 29.5902 12.5448 29.4076 12.7598C29.2554 12.9749 29.0423 13.1593 28.7988 13.2822C28.5858 13.4358 28.3423 13.5894 28.0684 13.6509C27.8249 13.7123 27.5205 13.7738 27.2465 13.7431C26.9422 13.7738 26.6378 13.7431 26.3639 13.6816C26.0899 13.5894 25.816 13.4665 25.6029 13.3129C25.3594 13.1593 25.1464 12.9442 24.9638 12.7291C24.8116 12.514 24.7203 12.2375 24.5985 11.961C24.4768 11.6844 24.3855 11.4386 24.3246 11.1621C24.2637 10.8856 24.2941 10.5783 24.2941 10.3018C24.2637 9.99451 24.2028 9.7487 24.2028 9.50289C24.2028 9.22636 24.2028 8.94983 24.2028 8.73475C24.2028 8.42749 24.2637 8.18168 24.2637 7.93587C24.2941 7.69007 24.2637 7.44426 24.2637 7.16773C24.2637 6.92192 24.2637 6.67611 24.2637 6.36886C24.2637 6.12305 24.2941 5.87724 24.2941 5.56998C24.2941 5.32418 24.3246 5.04764 24.3246 4.74038C24.2941 4.46385 24.2637 4.18732 24.2637 3.91079C24.2637 3.63425 24.3246 3.32699 24.3246 3.05046C24.3246 2.77393 24.2941 2.4974 24.2637 2.22086C24.2637 1.94433 24.2941 1.63707 24.2941 1.39127C24.2941 1.05328 24.2333 0.807475 24.142 0.653846C23.9898 0.438766 23.7767 0.377313 23.4723 0.346588C23.2593 0.315863 23.0158 0.285137 22.7114 0.315862C22.4375 0.315862 22.1635 0.25441 21.9505 0.25441C21.6461 0.25441 21.433 0.346589 21.22 0.469492C21.0678 0.592396 20.9156 0.746025 20.8547 1.08401C20.8243 1.29909 20.8243 1.69853 20.8547 2.06724C20.8547 2.46667 20.8243 2.86611 20.8243 3.08119C20.8243 3.327 20.8547 3.60353 20.8547 3.91079Z" fill="white"/>
<path d="M42.8099 12.7291C42.7795 12.4526 42.7491 12.176 42.7186 11.8688C42.7186 11.5922 42.7491 11.285 42.7186 10.9777C42.7186 10.7012 42.6882 10.3939 42.6578 10.1174C42.6578 9.81015 42.6273 9.50289 42.6273 9.22636C42.5969 8.9191 42.5664 8.64257 42.5664 8.36604C42.5664 8.02805 42.5664 7.72079 42.5664 7.47499C42.5664 6.95265 42.5969 6.64539 42.6882 6.64539C42.8099 6.64539 42.9926 6.89119 43.2361 7.22918C43.3578 7.44426 43.5404 7.65934 43.6926 7.90515C43.8448 8.12023 43.9361 8.39676 44.0883 8.61184C44.2405 8.88838 44.4231 9.10346 44.5753 9.28781C44.697 9.50289 44.8492 9.71797 45.0014 9.93305C45.1536 10.1481 45.2754 10.3939 45.4275 10.609C45.5797 10.7934 45.7928 10.9777 45.945 11.1928C46.0972 11.4079 46.2189 11.6537 46.3711 11.8688C46.5233 12.0531 46.6755 12.2682 46.8581 12.4833C47.0103 12.6984 47.2233 12.852 47.3755 13.0671C47.5277 13.2822 47.6495 13.528 47.8016 13.7431C47.9538 13.9581 48.106 14.1732 48.2886 14.3883C48.4408 14.5727 48.6234 14.7877 48.7756 15.0028C48.9278 15.2179 49.1104 15.433 49.2626 15.6173C49.4453 15.8017 49.6279 16.0168 49.8409 16.1704C50.054 16.2933 50.2975 16.4469 50.5714 16.5084C50.7845 16.5698 51.0584 16.5391 51.3628 16.5391C51.6672 16.5391 51.9107 16.6006 52.0628 16.5698C52.3977 16.5084 52.5194 16.324 52.5803 16.1089C52.6107 15.9246 52.6107 15.7095 52.6412 15.3715C52.6412 15.1257 52.6716 14.8492 52.702 14.5727C52.702 14.2961 52.702 14.0196 52.7325 13.7431C52.7325 13.4665 52.7325 13.19 52.7629 12.9135C52.7629 12.6369 52.702 12.3604 52.7325 12.0839C52.7325 11.8073 52.7629 11.5308 52.7933 11.2543C52.7933 10.9777 52.7325 10.7012 52.7325 10.4247C52.7325 10.1481 52.7933 9.8716 52.7933 9.59507C52.7933 9.31854 52.7933 9.042 52.7933 8.76547C52.7933 8.48894 52.8542 8.21241 52.8542 7.93587C52.8542 7.65934 52.7933 7.38281 52.8238 7.137C52.8238 6.86047 52.8542 6.58394 52.8542 6.3074C52.8542 6.03087 52.8238 5.75434 52.8542 5.4778C52.8542 5.20127 52.9151 4.92474 52.9455 4.64821C52.9455 4.37168 52.8542 4.09514 52.8542 3.81861C52.8542 3.54208 52.9151 3.26554 52.9151 3.01974C52.9151 2.71248 52.9455 2.46667 52.9455 2.19014C52.9455 1.85216 52.9151 1.5449 52.8847 1.29909C52.8238 0.930379 52.702 0.684571 52.489 0.530942C52.3063 0.408038 52.0324 0.315862 51.6367 0.315862C51.3932 0.315862 51.1193 0.408039 50.7845 0.438766C50.5105 0.500217 50.2062 0.500217 49.9018 0.561668C49.8714 0.807475 49.8409 1.11473 49.8409 1.39127C49.8409 1.6678 49.9018 1.94433 49.9018 2.22086C49.8714 2.4974 49.8714 2.7432 49.8714 3.05046C49.8714 3.29627 49.8105 3.5728 49.7801 3.84933C49.7801 4.12587 49.8409 4.4024 49.8409 4.67893C49.8409 4.95547 49.8105 5.232 49.8105 5.4778C49.8105 5.75434 49.7801 6.03087 49.7801 6.3074C49.7801 6.58394 49.7192 6.82974 49.7192 7.10628C49.7192 7.38281 49.6887 7.65934 49.6887 7.90515C49.6887 8.21241 49.6279 8.48894 49.6279 8.73475C49.6279 9.042 49.6583 9.31854 49.6583 9.53362C49.6279 10.056 49.5974 10.3632 49.567 10.3325C49.4452 10.056 49.2626 9.81015 49.1104 9.53362C48.9278 9.22636 48.7452 8.94983 48.6234 8.76547C48.4713 8.55039 48.3191 8.30458 48.1669 8.0895C48.0147 7.8437 47.8321 7.62862 47.6799 7.38281C47.5277 7.16773 47.3755 6.92192 47.2233 6.70684C47.0711 6.46103 46.919 6.24595 46.7668 6.00014C46.6146 5.78506 46.5233 5.50853 46.3711 5.26272C46.2189 5.04764 46.0058 4.83256 45.8537 4.58676C45.7015 4.37167 45.5493 4.12587 45.3971 3.91079C45.2449 3.66498 45.1536 3.38845 45.0014 3.17337C44.8492 2.92756 44.697 2.71248 44.5449 2.46667C44.3927 2.25159 44.2405 2.00578 44.0883 1.7907C43.9361 1.5449 43.7535 1.32982 43.6013 1.11473C43.4491 0.899654 43.2665 0.746024 43.0534 0.62312C42.8404 0.500217 42.6273 0.408039 42.3838 0.346588C42.1403 0.315863 41.8968 0.25441 41.6229 0.25441C41.4098 0.25441 41.1359 0.315863 40.8924 0.346588C40.4663 0.315863 40.1923 0.315862 40.0097 0.315862C39.614 0.346587 39.6445 0.438766 39.614 0.930378C39.614 1.17619 39.614 1.45272 39.614 1.72925C39.614 2.00578 39.6445 2.28232 39.6445 2.55885C39.6445 2.80466 39.614 3.08119 39.614 3.35772C39.614 3.63425 39.614 3.91079 39.614 4.18732C39.614 4.46385 39.5532 4.74039 39.5836 5.01692C39.5836 5.26272 39.6445 5.53926 39.6445 5.81579C39.6445 6.09232 39.614 6.36885 39.614 6.64539C39.614 6.92192 39.614 7.16773 39.614 7.44426C39.614 7.72079 39.614 7.99733 39.614 8.27386C39.614 8.55039 39.614 8.82692 39.614 9.07273C39.614 9.34926 39.614 9.6258 39.614 9.90233C39.614 10.1481 39.614 10.4247 39.614 10.7012C39.614 10.9777 39.6445 11.2235 39.614 11.5001C39.614 11.7766 39.614 12.0531 39.614 12.3297C39.614 12.6062 39.6445 12.8827 39.6445 13.1593C39.6445 13.4358 39.6445 13.6816 39.6445 13.9581C39.6445 14.2347 39.6445 14.5112 39.6445 14.757C39.6445 15.0335 39.6445 15.3101 39.6445 15.5866C39.6445 15.8939 39.7053 16.109 39.8271 16.2626C39.9488 16.4469 40.1619 16.5084 40.4358 16.5698C40.6489 16.6006 40.8924 16.6006 41.1663 16.6006C41.4707 16.6006 41.7142 16.6313 41.9273 16.6006C42.2316 16.5391 42.5056 16.4777 42.6578 16.324C42.8099 16.1397 42.8708 15.8939 42.8708 15.5559C42.8708 15.3101 42.8708 14.9414 42.8708 14.6034C42.8404 14.2347 42.8404 13.8967 42.8404 13.6202C42.8099 13.3436 42.8099 13.0671 42.8099 12.7291Z" fill="white"/>
<path d="M59.2006 3.54208C59.2006 3.78788 59.1702 4.06441 59.1702 4.37167C59.1702 4.64821 59.1702 4.92474 59.1702 5.232C59.1702 5.4778 59.2006 5.75434 59.2006 6.0616C59.2006 6.33813 59.231 6.61466 59.231 6.89119C59.231 7.16773 59.1397 7.44426 59.1702 7.72079C59.1702 7.99733 59.231 8.30458 59.231 8.58111C59.231 8.85765 59.2006 9.13418 59.2006 9.41071C59.2006 9.68725 59.2615 9.96378 59.2615 10.2403C59.2615 10.5168 59.1702 10.7934 59.1702 11.0699C59.1702 11.3464 59.231 11.6537 59.231 11.8995C59.231 12.2068 59.2006 12.4833 59.2006 12.7291C59.2006 13.0364 59.231 13.3129 59.231 13.5587C59.231 13.8967 59.231 14.1732 59.231 14.3883C59.231 14.7263 59.2615 15.0335 59.3224 15.2794C59.3832 15.6481 59.4745 15.9246 59.6267 16.0782C59.8093 16.2626 60.0833 16.2933 60.4485 16.3548C60.692 16.3855 60.966 16.4777 61.3008 16.4777C61.5747 16.5084 61.8486 16.4469 62.1835 16.4777C62.3965 16.4777 62.6704 16.5391 62.9444 16.5391C63.1879 16.5391 63.4618 16.5391 63.7357 16.5698C63.9792 16.5698 64.2532 16.5391 64.4967 16.5391C64.7706 16.5698 65.0445 16.5391 65.2576 16.5391C65.562 16.5084 65.8359 16.4777 66.1099 16.4162C66.3838 16.3855 66.6882 16.4162 66.9621 16.324C67.236 16.2626 67.4795 16.0782 67.723 15.986C67.997 15.8939 68.2404 15.771 68.5144 15.6481C68.7579 15.5252 69.0318 15.4637 69.2753 15.3101C69.5188 15.1564 69.7014 14.9106 69.9145 14.757C70.1276 14.5419 70.3406 14.3883 70.5537 14.1732C70.7363 13.9581 70.9189 13.7431 71.0711 13.4973C71.2233 13.2514 71.345 13.0056 71.4668 12.7291C71.5581 12.4833 71.619 12.2068 71.7103 11.961C71.8016 11.6844 71.9538 11.4386 72.0147 11.1621C72.106 10.8856 72.1364 10.6397 72.1973 10.3632C72.2582 10.0867 72.2582 9.81015 72.2886 9.53362C72.2886 9.25709 72.319 8.98055 72.319 8.70402C72.319 8.42749 72.3799 8.15096 72.3495 7.87442C72.3495 7.59789 72.2886 7.32136 72.2582 7.04482C72.2277 6.76829 72.1668 6.49176 72.106 6.21523C72.0451 5.93869 71.9538 5.69289 71.8929 5.41635C71.8016 5.13982 71.7712 4.86329 71.6799 4.61748C71.5885 4.31022 71.5277 4.03369 71.4059 3.75716C71.2842 3.48062 71.1015 3.23482 70.9798 2.98901C70.8276 2.7432 70.6146 2.52812 70.4319 2.28232C70.2493 2.06724 70.0667 1.85215 69.8536 1.63707C69.6406 1.45272 69.3971 1.29909 69.1536 1.14546C68.8796 0.991832 68.6666 0.807476 68.3926 0.684572C68.1187 0.592396 67.8143 0.623121 67.51 0.561668C67.2969 0.530943 67.023 0.438766 66.749 0.438766C66.5055 0.408039 66.2316 0.408039 65.9577 0.408039C65.7142 0.377313 65.4402 0.346588 65.1663 0.346588C64.9228 0.346588 64.6489 0.377314 64.4054 0.377314C64.1314 0.346589 63.8575 0.346588 63.614 0.346588C63.3401 0.346588 63.0661 0.315862 62.8226 0.315862C62.5487 0.346587 62.2748 0.377314 62.0313 0.377314C61.7573 0.377314 61.4834 0.377314 61.2703 0.377314C60.9355 0.40804 60.6312 0.438766 60.3877 0.530942C60.1137 0.653846 59.8702 0.838201 59.718 1.05328C59.5354 1.26836 59.3832 1.51417 59.2919 1.82143C59.231 2.09796 59.2615 2.40522 59.231 2.71248C59.231 2.92756 59.2006 3.20409 59.2006 3.54208ZM62.4269 12.176C62.4269 11.8995 62.3661 11.623 62.3661 11.3464C62.3661 11.0699 62.3661 10.7934 62.3661 10.5168C62.3661 10.271 62.3965 9.9945 62.3965 9.71797C62.3965 9.44144 62.3661 9.16491 62.3965 8.88838C62.3965 8.61184 62.3356 8.33531 62.3356 8.05878C62.3356 7.81297 62.3965 7.53644 62.3965 7.2599C62.4269 6.98337 62.3965 6.70684 62.3965 6.46103C62.3965 6.1845 62.3356 5.90797 62.3356 5.63143C62.3356 5.3549 62.3356 5.10909 62.3356 4.83256C62.3356 4.55603 62.3661 4.2795 62.3661 4.00297C62.3356 3.4499 62.5183 3.35772 62.8835 3.35772C63.127 3.35772 63.4618 3.41917 63.8879 3.41917C64.1619 3.38845 64.4662 3.35772 64.7402 3.38845C65.0141 3.41917 65.3185 3.51135 65.5924 3.60353C65.8664 3.66498 66.1098 3.78788 66.3838 3.91079C66.6273 4.03369 66.9012 4.12587 67.1447 4.2795C67.3882 4.43313 67.6317 4.61748 67.8448 4.80184C68.0274 5.01692 68.21 5.232 68.3926 5.4778C68.5448 5.72361 68.697 5.96942 68.7883 6.24595C68.8796 6.52248 68.8492 6.82974 68.8796 7.10628C68.9101 7.35208 69.0014 7.62862 69.0014 7.87442C69.0014 8.12023 68.9405 8.39676 68.9405 8.64257C68.9405 8.9191 68.9405 9.16491 68.9405 9.41071C68.9101 9.71797 68.8492 9.99451 68.7883 10.271C68.7274 10.5783 68.6666 10.8548 68.5448 11.1006C68.4231 11.3772 68.2709 11.5922 68.0883 11.8073C67.8752 12.0224 67.6621 12.176 67.4186 12.3604C67.1751 12.514 66.9317 12.6677 66.6577 12.7598C66.4142 12.8827 66.1403 12.9442 65.8359 13.0056C65.562 13.0364 65.288 13.0671 64.9837 13.0978C64.7097 13.1285 64.4358 13.1593 64.1314 13.1593C63.8575 13.1593 63.5836 13.0978 63.2792 13.0671C63.0053 13.0364 62.7009 13.0671 62.3965 13.0056C62.3965 12.7291 62.4574 12.4526 62.4269 12.176Z" fill="white"/>
<path d="M78.1368 4.70966C78.1368 4.98619 78.1064 5.29345 78.0759 5.60071C78.0759 5.87724 78.1368 6.15378 78.1368 6.46103C78.1368 6.73757 78.1368 7.0141 78.1368 7.32136C78.1368 7.59789 78.1064 7.90515 78.1064 8.18168C78.1064 8.48894 78.1064 8.76547 78.1064 9.07273C78.1064 9.34926 78.0455 9.65652 78.0455 9.93305C78.0455 10.2096 78.0759 10.5168 78.0759 10.7934C78.0759 11.1006 78.0151 11.3772 78.0455 11.6537C78.0455 11.961 78.0455 12.2375 78.0455 12.514C78.0455 12.852 78.0455 13.1285 78.0759 13.3743C78.0759 13.6202 78.1064 13.9274 78.1064 14.2654C78.1064 14.5419 78.0759 14.8492 78.0759 15.1257C78.0759 15.4637 78.0759 15.771 78.0759 16.0168C78.0759 16.2933 78.289 16.5391 78.5629 16.5391C78.8064 16.5391 79.1108 16.5084 79.4456 16.5084C79.7196 16.5084 80.0239 16.5698 80.2979 16.5698C80.6327 16.5698 80.9066 16.5084 81.1805 16.5084C81.4545 16.5084 81.7284 16.5084 82.0328 16.5391C82.3067 16.5391 82.5806 16.5698 82.8546 16.5698C83.1285 16.5698 83.4329 16.5391 83.7068 16.5391C83.9808 16.5391 84.2547 16.5698 84.5286 16.5698C84.833 16.5698 85.1069 16.5698 85.3809 16.5698C85.6548 16.5391 85.9287 16.4777 86.2331 16.4777C86.507 16.4777 86.781 16.5084 87.0549 16.5084C87.3593 16.4777 87.5723 16.4777 87.755 16.4777C87.9985 16.4777 88.2115 16.4469 88.4246 16.3855C88.6072 16.3548 88.8203 16.2933 89.0942 16.1704C89.2768 16.0782 89.3986 15.8631 89.429 15.6173C89.4595 15.3715 89.4899 15.095 89.4899 14.9106C89.4595 14.6956 89.429 14.3883 89.429 14.081C89.429 13.7431 89.429 13.4051 89.216 13.3129C88.942 13.19 88.6377 13.1593 88.3028 13.1285C87.9985 13.0978 87.6637 13.0978 87.3593 13.0978C87.0854 13.0978 86.8114 13.0671 86.5984 13.0671C86.294 13.0978 86.0505 13.0978 85.807 13.1285C85.5331 13.1285 85.2896 13.1285 85.0156 13.1593C84.7721 13.1593 84.5286 13.2207 84.2243 13.19C83.9808 13.19 83.7373 13.1593 83.4633 13.1593C83.2198 13.1593 82.9763 13.2207 82.7328 13.2207C82.4589 13.2207 82.185 13.1593 81.9719 13.1285C81.5458 13.1285 81.4545 13.4358 81.2414 13.1285C80.9675 12.7598 81.2719 12.7291 81.3023 12.2068C81.3327 11.8995 81.2719 11.5922 81.3023 11.2543C81.3023 10.9163 81.3327 10.609 81.3327 10.3018C81.3632 9.99451 81.3327 9.7487 81.3327 9.50289C81.3327 9.22636 81.424 8.94983 81.424 8.70402C81.424 8.42749 81.3632 8.18168 81.3632 7.93587C81.3632 7.65934 81.424 7.41353 81.424 7.16773C81.4545 6.89119 81.4545 6.64539 81.4849 6.36886C81.4849 6.12305 81.4545 5.87724 81.4545 5.60071C81.4849 5.3549 81.4849 5.07837 81.4849 4.80184C81.5154 4.55603 81.5153 4.31022 81.5153 4.00297C81.5153 3.75716 81.4849 3.51135 81.4849 3.20409C81.4849 2.95829 81.5458 2.71248 81.5458 2.46667C81.5458 2.22086 81.5458 1.97506 81.5762 1.72925C81.5762 1.48344 81.4849 1.23764 81.4849 0.991832C81.4849 0.746024 81.3023 0.592395 81.0588 0.500217C80.8457 0.408039 80.6327 0.315863 80.3892 0.285137C80.0848 0.25441 79.8109 0.315863 79.6587 0.346588C79.4456 0.377313 79.0499 0.315863 78.7151 0.438766C78.4108 0.500217 78.1977 0.653847 78.1673 1.08401C78.1673 1.36054 78.1368 1.69853 78.1368 2.00578C78.1368 2.31304 78.1368 2.6203 78.1673 2.92756C78.1673 3.26554 78.1368 3.5728 78.1064 3.84933C78.1064 4.09514 78.1368 4.4024 78.1368 4.70966Z" fill="white"/>
<path d="M98.4099 13.9274C98.7143 13.9274 99.0186 13.8967 99.323 13.8967C99.6274 13.8967 99.9318 13.8967 100.206 13.8967C100.51 13.866 100.814 13.8967 101.119 13.8967C101.332 13.866 101.575 13.8352 101.819 13.8352C102.062 13.8045 102.306 13.8352 102.549 13.8352C102.823 13.8045 103.067 13.8045 103.249 13.8045C103.402 13.7738 103.554 13.8967 103.615 14.0503C103.676 14.2654 103.767 14.6034 103.919 14.9721C104.01 15.2486 104.223 15.5559 104.345 15.8324C104.436 16.1704 104.65 16.324 104.954 16.4162C105.197 16.5084 105.502 16.6006 105.837 16.6006C106.141 16.6006 106.445 16.5391 106.75 16.5391C107.176 16.5391 107.48 16.4777 107.693 16.3548C107.998 16.2319 108.089 15.986 107.906 15.5252C107.815 15.3101 107.693 15.0643 107.571 14.757C107.48 14.5112 107.358 14.2654 107.237 13.9889C107.145 13.7431 107.084 13.4665 106.963 13.2207C106.871 12.9442 106.75 12.6984 106.658 12.4526C106.537 12.176 106.445 11.9302 106.324 11.6844C106.232 11.4079 106.171 11.1314 106.08 10.8856C105.958 10.6397 105.806 10.3939 105.684 10.1174C105.593 9.8716 105.502 9.56434 105.41 9.31854C105.319 9.042 105.258 8.76547 105.137 8.48894C105.045 8.21241 104.893 7.9666 104.771 7.72079C104.68 7.44426 104.589 7.16773 104.497 6.89119C104.376 6.61466 104.284 6.36885 104.163 6.09232C104.071 5.81579 103.919 5.56998 103.828 5.29345C103.736 5.04764 103.615 4.77111 103.493 4.49458C103.402 4.24877 103.341 3.94151 103.249 3.69571C103.158 3.41917 102.975 3.17337 102.854 2.89683C102.762 2.65103 102.671 2.37449 102.58 2.09796C102.458 1.82143 102.306 1.57562 102.215 1.32981C102.062 0.961104 101.971 0.653847 101.819 0.469492C101.575 0.223685 101.271 0.19296 100.936 0.162234C100.662 0.131507 100.358 0.131506 100.023 0.131506C99.7796 0.162233 99.4448 0.131506 99.0795 0.346588C98.8664 0.469492 98.623 0.684572 98.4099 1.05328C98.2881 1.29909 98.1664 1.60635 98.0751 1.97506C97.9838 2.25159 97.862 2.4974 97.7707 2.7432C97.649 3.01974 97.649 3.29627 97.5577 3.5728C97.4663 3.81861 97.3142 4.06442 97.2228 4.34095C97.1011 4.58676 97.0707 4.89401 96.9793 5.13982C96.888 5.41635 96.7358 5.66216 96.6445 5.90797C96.5532 6.1845 96.4619 6.46103 96.3706 6.70684C96.2793 6.98337 96.2184 7.25991 96.0967 7.50571C96.0054 7.78225 95.914 8.05878 95.8227 8.30458C95.7314 8.58112 95.6401 8.85765 95.5488 9.10346C95.4575 9.37999 95.3053 9.59507 95.214 9.8716C95.1227 10.1481 95.1227 10.4247 95.0314 10.7012C94.9096 10.947 94.8183 11.2235 94.727 11.4693C94.6357 11.7459 94.4835 11.9917 94.3922 12.2375C94.3009 12.514 94.2704 12.7906 94.1791 13.0671C94.0878 13.3129 93.9661 13.5587 93.8748 13.8352C93.8139 13.9581 93.6921 14.2347 93.5704 14.5419C93.4791 14.7877 93.3877 15.0335 93.3269 15.2794C93.2051 15.5866 93.1443 15.8939 93.1443 16.0168C93.0834 16.4777 93.2356 16.5698 93.6008 16.5698C93.8139 16.5698 94.1182 16.5391 94.4835 16.5698C94.6357 16.5698 94.9096 16.5698 95.1835 16.5391C95.427 16.5391 95.6705 16.5391 95.8836 16.4777C96.1575 16.4162 96.401 16.324 96.4923 16.1397C96.6445 15.8631 96.7358 15.6173 96.8272 15.4023C96.9489 15.1564 97.0402 14.9106 97.162 14.6648C97.2837 14.419 97.375 14.1732 97.4968 13.8967C97.8011 13.8967 98.136 13.9274 98.4099 13.9274ZM98.623 9.84088C98.7447 9.56434 98.9273 9.31854 99.0186 9.042C99.1404 8.76547 99.1708 8.42749 99.2926 8.15096C99.3839 7.87442 99.5056 7.59789 99.6274 7.32136C99.7491 7.04482 99.9013 6.79902 100.023 6.49176C100.145 6.21523 100.206 5.90797 100.297 5.60071C100.449 5.84652 100.601 6.09232 100.723 6.33813C100.875 6.58394 100.967 6.82974 101.088 7.04482C101.21 7.29063 101.332 7.53644 101.454 7.75152C101.575 7.99733 101.697 8.24313 101.819 8.48894C101.91 8.73475 101.971 9.01128 102.062 9.25709C102.184 9.50289 102.306 9.7487 102.397 9.9945C102.519 10.2403 102.671 10.4861 102.762 10.7319C102.458 10.7319 102.154 10.7627 101.849 10.7627C101.575 10.7627 101.271 10.7012 100.967 10.7012C100.693 10.7012 100.388 10.7319 100.084 10.7319C99.81 10.7319 99.5056 10.7319 99.2013 10.7319C98.9273 10.7319 98.5925 10.7319 98.2881 10.7319C98.4099 10.4554 98.5012 10.1174 98.623 9.84088Z" fill="white"/>
</svg>
