<svg width="119" height="40" fill="none" xmlns="http://www.w3.org/2000/svg">
  <path d="M10.644.052h.345c.123-.018.247-.026.37-.026.406 0 .856.043 1.35.129.495.086.945.18 1.351.283.141.035.256.078.344.13.089.034.186.068.292.103.123.068.247.12.37.154.141.035.265.086.371.155.159.017.282.06.37.13.107.068.204.154.292.257l.265.258c.106.069.23.12.37.155.053.017.097.06.133.129a.29.29 0 00.212.077c.123.052.23.13.317.232.089.086.168.18.239.284.14.138.29.258.45.361.176.103.3.25.37.439.071.034.142.086.212.154.071.07.124.147.16.233.017.137.079.249.185.335a.344.344 0 01.158.31c0 .068-.035.146-.106.232v.103c0 .051-.035.12-.105.206a2.858 2.858 0 01-.503.387.62.62 0 01-.186.052 2.94 2.94 0 01-.556.154c-.194.018-.335.095-.423.232-.3.138-.565.267-.795.387a6.297 6.297 0 01-.688.284c-.16.12-.371.224-.636.31a2.326 2.326 0 01-.582.103c-.089 0-.203-.043-.345-.13l-.423-.309-.344-.335c-.106-.103-.16-.163-.16-.18-.123-.224-.273-.345-.45-.362a2.857 2.857 0 01-.609-.232.94.94 0 01-.423-.129.652.652 0 00-.424-.129h-.132c-.018-.051-.053-.069-.106-.051a.511.511 0 01-.159-.026c-.018.051-.053.069-.106.051-.053-.017-.097-.008-.132.026-.053-.034-.15-.051-.291-.051a.705.705 0 00-.212.025.465.465 0 01-.186.026.485.485 0 01-.29-.077c-.16.034-.301.069-.425.103a3.335 3.335 0 01-.45.026.57.57 0 00-.37.129 4.158 4.158 0 01-.292.206h-.026c-.141.103-.3.19-.477.258a.803.803 0 00-.423.284.483.483 0 01-.265.36.684.684 0 00-.318.31c-.159.241-.318.49-.477.748a1.85 1.85 0 00-.211.903c-.053.12-.106.198-.16.232-.052.018-.079.112-.079.284 0 .292-.017.593-.053.903-.017.292-.026.585-.026.877v.284c.017.086.026.172.026.258a.311.311 0 01-.053.18.351.351 0 00-.026.155c0 .103.035.206.106.31.088.085.132.189.132.309 0 .103-.009.19-.026.258.035.086.07.18.106.284a.842.842 0 01.106.335c.088.069.15.155.185.258.053.103.106.215.159.335l.159.31c.07.086.167.154.29.206v.026c0 .052.01.086.027.103.036 0 .053.017.053.052.16.137.318.266.477.387.176.12.291.283.344.49.46.12.874.275 1.245.464.37.172.812.258 1.324.258.14 0 .247-.009.317-.026a.378.378 0 00.16.026c.14 0 .264-.017.37-.052.123-.051.265-.077.423-.077h.186c.194-.086.388-.164.582-.232l.583-.258c.23-.052.424-.146.583-.284.158-.155.335-.292.529-.413.194-.189.37-.378.53-.567a1.15 1.15 0 00.238-.722.315.315 0 00-.133-.258.56.56 0 00-.264-.18.511.511 0 00-.16.025h-.105c-.23 0-.459-.017-.688-.052a3.801 3.801 0 00-.61-.051 1.62 1.62 0 00-.662.129 1.517 1.517 0 01-.556.103c-.211 0-.423-.026-.635-.077a1.664 1.664 0 00-.556-.104c-.247-.103-.424-.24-.53-.412-.088-.172-.132-.43-.132-.774v-.542c.018-.189.026-.378.026-.567v-.31c.018-.017.027-.043.027-.077v-.18a.448.448 0 01-.053-.207c0-.138.018-.292.053-.464a1.12 1.12 0 01.212-.465c.017-.103.088-.189.212-.258.123-.068.256-.111.397-.129.141-.034.273-.051.397-.051.141-.017.23-.026.265-.026.423 0 .82.034 1.191.103.389.069.803.103 1.245.103h.265c.106 0 .211-.008.317-.025a.48.48 0 01.212.051c.07.017.141.026.212.026a.46.46 0 00.212-.077c.265-.018.52-.043.768-.078.265-.051.52-.077.768-.077.14 0 .264.017.37.051.124.035.256.052.397.052.142-.034.265-.069.371-.103.106-.035.23-.052.37-.052.09 0 .169.009.24.026.087.017.176.026.264.026h.159a1.01 1.01 0 01.45 0h.371c.017.051.061.077.132.077.088 0 .177.009.265.026.106 0 .203.017.291.052a.327.327 0 01.238.154c.071.327.124.602.16.826.035.223.052.464.052.722 0 .275-.035.516-.106.722-.053.052-.08.095-.08.13a.83.83 0 00.054.257.675.675 0 01.053.258.437.437 0 01-.106.284.531.531 0 00-.08.284.762.762 0 01.027.232c0 .155-.035.352-.106.593a2.142 2.142 0 01-.212.567c0 .19-.062.353-.185.49a.95.95 0 00-.212.465c-.035.189-.08.352-.132.49-.036.137-.133.258-.292.361a.93.93 0 00-.132.439c0 .189-.088.283-.265.283a.643.643 0 01-.08.155c-.035.034-.052.086-.052.155a.457.457 0 01-.133.258l-.185.18c-.07.052-.141.112-.212.18a.345.345 0 00-.132.233.886.886 0 00-.37.387.973.973 0 01-.319.387 1.872 1.872 0 00-.53.258 7.225 7.225 0 00-.423.335 9.89 9.89 0 01-.45.31 1.79 1.79 0 01-.556.232c-.194.051-.38.129-.556.232-.159.103-.335.189-.53.258a5.329 5.329 0 01-.794.206c-.282.052-.565.095-.847.13-.089.068-.239.102-.45.102a.446.446 0 01-.133-.025h-.106a.796.796 0 00-.291.051.602.602 0 01-.265.052c-.141 0-.238-.026-.291-.078-.159.07-.38.104-.662.104a10.09 10.09 0 01-.583.025c-.123 0-.194-.043-.211-.129-.248 0-.486-.017-.715-.051a4.302 4.302 0 00-.689-.052c-.088-.086-.23-.12-.423-.103-.177.034-.31.017-.398-.052a3.418 3.418 0 00-.45-.129 4.58 4.58 0 01-.476-.077 1.522 1.522 0 01-.424-.103.543.543 0 01-.265-.206 1.42 1.42 0 01-.318-.078 1.482 1.482 0 00-.29-.129c-.319-.052-.557-.18-.716-.387l-.317-.103a1.646 1.646 0 01-.292-.18.7.7 0 00-.185-.31 1.673 1.673 0 00-.318-.284 1.625 1.625 0 00-.344-.258 3.973 3.973 0 01-.265-.232.494.494 0 00-.212-.284 1.117 1.117 0 00-.29-.206 1.889 1.889 0 01-.292-.232.55.55 0 01-.16-.335.617.617 0 00-.21-.336 4.311 4.311 0 01-.292-.258 2.632 2.632 0 00-.186-.49 4.572 4.572 0 00-.211-.412L.82 14.34a1.446 1.446 0 01-.159-.412c-.035-.293-.097-.516-.185-.67-.071-.156-.124-.38-.16-.672a1.398 1.398 0 00-.105-.386 1.161 1.161 0 01-.08-.465 4.418 4.418 0 01-.106-.696 11.716 11.716 0 01-.026-.8c.053-.017.07-.051.053-.103-.018-.052 0-.095.053-.129a1.875 1.875 0 00-.08-.335A1.991 1.991 0 010 9.337c0-.36.053-.748.159-1.16.123-.43.203-.826.238-1.187a.55.55 0 01.159-.335.412.412 0 00.159-.335c.018-.241.062-.439.132-.594.089-.172.203-.326.345-.464v-.026c0-.034.008-.043.026-.026.035 0 .053-.017.053-.051A5.902 5.902 0 012.41 3.327c.194-.137.361-.258.503-.36.14-.104.256-.267.344-.49l.265-.156.264-.206a.498.498 0 00.345-.232.567.567 0 01.37-.258c.177-.086.336-.19.477-.31a.76.76 0 01.503-.206c.194-.051.362-.12.503-.206.159-.103.37-.198.636-.284.194 0 .344-.034.45-.103.123-.069.282-.12.476-.155.248-.034.503-.069.768-.103.283-.034.53-.112.742-.232A.953.953 0 019.32 0c.177 0 .336.026.477.077.159.035.309.052.45.052.124 0 .256-.026.397-.077zM9.4 2.192v-.025c0-.035-.018-.043-.053-.026a.207.207 0 01-.08-.026c0 .052.027.077.08.077H9.4zm-2.357.852v-.052c0-.051-.026-.077-.08-.077-.034 0-.06.008-.079.026h-.053c-.035 0-.061-.01-.079-.026-.035.017-.053.051-.053.103 0 .051.018.077.053.077.141 0 .238-.017.291-.051zm.636 1.625a.675.675 0 01-.16-.078c-.034-.051-.087-.077-.158-.077-.07 0-.106.026-.106.077 0 .035.009.086.027.155.035.052.097.077.185.077h.132c.053-.017.08-.043.08-.077V4.67zm-1.457.103h-.026c-.035 0-.053-.009-.053-.026 0-.034-.018-.052-.053-.052h-.026a.414.414 0 00-.16-.051c-.035 0-.105.009-.211.026s-.159.043-.159.077c0 .086.062.138.185.155a.64.64 0 01.292.103l.158-.052c.053-.034.08-.068.08-.103-.018 0-.027-.017-.027-.051v-.026zm-2.25 0a.414.414 0 00-.16-.052.624.624 0 00-.21.052c-.072.017-.107.051-.107.103 0 .034.009.052.027.052.017 0 .035-.009.053-.026 0 .034.017.051.053.051a.62.62 0 00.185-.051c.106-.052.159-.095.159-.13zm1.112 1.496c-.07.034-.185.043-.344.026-.16-.017-.239-.009-.239.026 0 .034.062.077.186.128.017.018.053.026.106.026.07 0 .14-.034.211-.103l.053.026c.018 0 .027-.009.027-.026v-.103zm-2.25 1.986a.257.257 0 00-.186-.077c-.088 0-.133.025-.133.077v.026c.018 0 .027.008.027.026h.185c.053 0 .089-.018.106-.052zm0 3.456v-.077c-.018.017-.045.026-.08.026h-.106a.24.24 0 00-.106-.026c-.035 0-.053.009-.053.026 0 .034.018.06.053.077h.212c.035 0 .062-.008.08-.026zm14.51.026c0-.051-.027-.077-.08-.077-.053 0-.097.026-.132.077-.018.035-.071.06-.16.078.018.017.054.025.107.025.07 0 .159-.034.264-.103zm.29.955v-.052c0-.052-.008-.077-.026-.077a.414.414 0 00-.159.051c-.07.017-.106.043-.106.078 0 .034.062.051.186.051.053 0 .088-.017.106-.051zm-1.244.257c-.018-.017-.035-.025-.053-.025-.035 0-.061.017-.08.051a.307.307 0 01-.079.052.17.17 0 01.08.077c.018.018.044.026.08.026h.026c0 .017.008.026.026.026v-.026c0-.017.009-.034.027-.051.017.017.035.025.053.025.017 0 .017-.008 0-.025 0-.035.009-.07.026-.104h-.053c-.035 0-.053-.008-.053-.026zm-11.439.645c0-.051-.035-.077-.105-.077a.742.742 0 00-.16.026c-.07 0-.105.008-.105.026l.053.051h.238c.053 0 .08-.008.08-.026zm11.572.387c0-.034-.036-.051-.106-.051-.089 0-.133.017-.133.051.036.035.062.052.08.052.035 0 .061-.009.08-.026.017-.017.043-.026.079-.026zm-.821.439v-.052h-.106a.307.307 0 01-.08.052c-.035.017-.053.051-.053.103a.334.334 0 00.239-.103zm1.165.516v-.078c0-.034-.027-.051-.08-.051-.017 0-.035.008-.053.026h-.053c-.035 0-.061-.01-.079-.026 0 .034-.018.06-.053.077s-.053.035-.053.052c0 .017.018.025.053.025.141 0 .247-.008.318-.025zm-10.645.154c-.035-.017-.053-.034-.053-.051 0-.017-.008-.026-.026-.026 0 .017-.009.026-.026.026h-.053c-.018-.017-.036-.026-.053-.026-.036 0-.115.017-.239.052-.106.017-.159.043-.159.077 0 .069.045.103.133.103.088 0 .185-.008.291-.026.106-.017.168-.06.185-.129zm-2.25.026c-.018-.034-.044-.043-.08-.026-.017 0-.035-.017-.053-.051h-.264c-.089 0-.133.026-.133.077.018.035.062.069.133.103.088.018.15.026.185.026s.08-.008.132-.026c.053-.034.08-.06.08-.077v-.026zm11.147.284v-.052c0-.034-.026-.051-.08-.051a.446.446 0 00-.132-.026c-.017.069-.053.103-.105.103-.053-.017-.08.009-.08.078h.238c.071 0 .124-.018.16-.052zm-.794.077c-.035-.034-.088-.051-.159-.051h-.132c0 .034-.018.051-.053.051-.036 0-.053.035-.053.103 0 .035.026.052.08.052.193 0 .3-.052.317-.155zm-7.282 1.496c0-.034-.07-.051-.212-.051-.053 0-.079.008-.079.026 0 .034.018.06.053.077h.132c.053 0 .089-.017.106-.052zM26.367.49c.194.086.414.12.662.103.247-.034.476-.034.688 0a.808.808 0 01.53.336c.14.189.211.55.211 1.083a.501.501 0 01-.053.232.83.83 0 000 .413.501.501 0 01.053.232c0 .137-.017.266-.053.387-.017.12-.026.25-.026.387 0 .086.009.18.026.283a.675.675 0 01.053.258c0 .12-.017.233-.053.336a.74.74 0 00-.053.283c0 .07.018.138.053.207a.449.449 0 01.053.206.448.448 0 01-.053.207.56.56 0 00-.026.18c0 .069.009.155.026.258a1.41 1.41 0 010 .542.312.312 0 01-.053.18c0 .155.018.318.053.49.036.155.053.31.053.465a.413.413 0 01-.026.129v.103a.431.431 0 01.026.18.531.531 0 01-.079.284.74.74 0 00-.053.284c0 .069.018.137.053.206a.562.562 0 01.053.258c0 .086-.018.18-.053.284a.675.675 0 00-.053.258.39.39 0 00.053.155c.053.068.08.146.08.232 0 .137-.018.249-.054.335a1.169 1.169 0 00-.026.232c0 .138.026.267.08.387.052.12.079.267.079.438a.675.675 0 01-.053.258.738.738 0 000 .387.5.5 0 01.053.232.408.408 0 01-.053.181c.035.155.07.301.106.439.035.12.053.266.053.438v.129c.07.138.106.318.106.542 0 .206.08.352.238.438.177.292.388.482.635.568.265.086.521.189.768.31l.318.102c.124.035.256.052.397.052h.08c.07.017.14.026.212.026h.211c.46 0 .839-.103 1.139-.31.176-.069.344-.129.503-.18a.758.758 0 00.397-.336c.053-.137.115-.266.185-.387.071-.12.15-.24.239-.36.053-.104.106-.267.159-.49.07-.224.106-.362.106-.414a.557.557 0 00-.027-.18.742.742 0 01-.026-.18c0-.087.035-.172.106-.258a.472.472 0 00.105-.31.338.338 0 00-.079-.206.675.675 0 01-.053-.258c0-.103.009-.207.027-.31.035-.12.053-.24.053-.361a.281.281 0 00-.027-.129.477.477 0 00-.026-.155c0-.034.008-.069.026-.103a.173.173 0 00.053-.129.582.582 0 00-.053-.206 1.116 1.116 0 01-.053-.361c0-.155.018-.318.053-.49a.827.827 0 01-.053-.207c0-.103.009-.198.027-.283a.951.951 0 00.053-.31 6.875 6.875 0 01-.027-1.058c.018-.378.009-.739-.026-1.083.053-.069.079-.172.079-.31a.36.36 0 00-.053-.206.449.449 0 01-.053-.206c0-.086.018-.163.053-.232a.675.675 0 00.053-.258v-.052c-.035-.034-.062-.112-.08-.232a2.033 2.033 0 01-.026-.258c0-.137.009-.258.027-.361.017-.12.026-.24.026-.361 0-.086-.009-.172-.026-.258a1.688 1.688 0 01-.027-.284c0-.155.018-.31.053-.464.035-.172.053-.353.053-.542v-.051c-.035-.035-.062-.112-.08-.232a2.033 2.033 0 01-.026-.258c0-.31.035-.534.106-.671a.784.784 0 01.265-.31c.106-.068.22-.12.344-.154.141-.052.265-.12.37-.207h.266c.247 0 .476.017.688.052a4.49 4.49 0 001.139.026c.14-.035.282-.052.423-.052.442 0 .848.026 1.218.077.389.035.6.078.636.13.088.12.185.232.29.335.107.086.16.223.16.412a.224.224 0 01-.027.104v.077c.036.482.044.963.027 1.444-.018.482 0 .955.053 1.42-.035.085-.08.18-.133.283a.827.827 0 00-.053.206c0 .086.01.172.027.258a.562.562 0 01.053.258.501.501 0 01-.053.232 1.01 1.01 0 00-.027.284 2 2 0 01.08.31c.017.103.026.214.026.335 0 .206-.017.421-.053.645a7.877 7.877 0 00-.08.593c.072.069.107.19.107.361a.951.951 0 01-.053.31c-.018.103-.027.18-.027.232v.18a.449.449 0 01.053.207c0 .103-.009.197-.026.283a.825.825 0 00-.027.207.74.74 0 00.053.283.562.562 0 01.053.258c0 .155-.017.379-.053.671-.017.275-.07.482-.159.62 0 .085.01.18.027.283a.883.883 0 01.053.284.477.477 0 01-.026.154.557.557 0 00-.027.18v.336c.018.103.027.206.027.31a.89.89 0 01-.08.36.826.826 0 00-.08.233c0 .017.01.06.027.129a.273.273 0 01.053.155c0 .137-.026.275-.08.412a.794.794 0 00-.079.31c0 .052.009.103.027.155a.28.28 0 01.026.129l-.026.103-.08.232c-.017.086-.044.18-.08.284a1.746 1.746 0 01-.052.206.47.47 0 00-.16.206l-.052.258a1.7 1.7 0 01-.027.284.389.389 0 01-.105.206 1.094 1.094 0 00-.292.465c-.035.172-.15.292-.344.36-.123.19-.273.38-.45.568-.159.172-.335.301-.53.387-.317.413-.723.68-1.218.8a.577.577 0 00-.344.155c-.07.086-.194.129-.37.129-.195.034-.38.094-.557.18a1.21 1.21 0 01-.582.13.24.24 0 01-.106-.027h-.08c-.088.086-.211.12-.37.104a1.3 1.3 0 00-.45.025l-.636.104a3.812 3.812 0 01-.609.051 2.25 2.25 0 01-.397-.026c-.088.017-.22.026-.397.026-.247 0-.486-.017-.715-.052a8.182 8.182 0 00-.662-.025c-.088 0-.168.008-.238.025a.481.481 0 01-.212.052.684.684 0 01-.318-.103.72.72 0 00-.318-.078h-.212a.377.377 0 01-.158-.025.823.823 0 01-.239.026.937.937 0 01-.582-.181.873.873 0 00-.53-.155 7.43 7.43 0 01-.662-.232 10.282 10.282 0 00-.635-.284l-.424-.103a.682.682 0 01-.344-.284.634.634 0 00-.238-.283 2.159 2.159 0 00-.345-.18 2.383 2.383 0 01-.344-.233.71.71 0 01-.185-.361c-.053-.103-.168-.232-.344-.387-.16-.172-.239-.301-.239-.387a.41.41 0 00-.08-.258.605.605 0 00-.132-.206c-.052-.07-.105-.138-.158-.207a.814.814 0 01-.053-.31v-.102a1.924 1.924 0 00-.212-.361.765.765 0 01-.133-.465c0-.069.01-.12.027-.155 0-.171-.027-.326-.08-.464a1.283 1.283 0 01-.079-.464c0-.138.018-.24.053-.31l-.159-.31c.018-.154.018-.309 0-.463 0-.155.018-.301.053-.439a.554.554 0 01-.106-.361c0-.086.009-.172.027-.258.017-.086.044-.172.08-.258a1.447 1.447 0 00-.08-.258 1.655 1.655 0 01.026-.722 1.827 1.827 0 00.027-.748 2.677 2.677 0 01-.027-.387v-.258a.951.951 0 00-.026-.542 1.997 1.997 0 01-.027-.335c0-.12.009-.284.027-.49a2.18 2.18 0 01.08-.49.906.906 0 01-.08-.232v-.258c0-.138.009-.258.026-.361.018-.103.027-.215.027-.336 0-.24-.01-.473-.027-.696a9.561 9.561 0 01-.026-.697c.035-.051.044-.12.026-.206 0-.086.018-.146.053-.18l-.026-.026a.56.56 0 01-.027-.18v-.233-.206a.56.56 0 01.027-.18.656.656 0 01-.027-.207c0-.12.018-.232.053-.335.035-.12.07-.233.106-.336l-.053-.026a.657.657 0 01-.026-.206c0-.12.008-.232.026-.335.018-.12.026-.232.026-.336a.501.501 0 00-.052-.232.408.408 0 01-.053-.18c0-.207.079-.361.238-.465.159-.103.335-.172.53-.206.211-.052.414-.069.608-.052h.477c.318 0 .6-.017.847-.051a5.77 5.77 0 01.795-.052.24.24 0 01.106.026h.106zm.159 4.308v-.052c0-.034-.018-.052-.053-.052-.018 0-.036.01-.053.026h-.027c-.035 0-.053-.017-.053-.051-.053.034-.123.043-.212.025-.088-.017-.132.018-.132.104.018.051.062.094.132.129a.665.665 0 00.239.051.46.46 0 00.211-.077c0-.069-.017-.103-.052-.103zm11.809.335c-.053-.052-.097-.077-.133-.077a.262.262 0 00-.132.051c-.035.035-.053.069-.053.103.018.018.027.035.027.052h.159c.052 0 .088-.009.105-.026.018 0 .027-.008.027-.026v-.077zM37.514 6.5c0-.034-.018-.052-.053-.052h-.185c0 .035-.01.052-.027.052s-.026.017-.026.052v.025c.035-.017.088-.017.159 0 .07 0 .114-.025.132-.077zm-10.538.155v-.052c0-.034-.018-.051-.053-.051-.089 0-.133.017-.133.051 0 .035.062.052.186.052zm-2.198.851a.617.617 0 00-.159-.103c-.07-.052-.106-.086-.106-.103h-.132c-.053 0-.08.017-.08.051 0 .069.027.112.08.13a.334.334 0 01.132.077h.027c.017-.018.035-.026.053-.026.035 0 .052.008.052.026h.053c.018 0 .045-.018.08-.052zm13.16-.052c-.018-.051-.07-.068-.16-.051a.6.6 0 01-.184-.026l-.053.052c0 .034.008.06.026.077.035.017.053.034.053.052a.23.23 0 01.212 0c.07.017.106-.018.106-.104zm-12.392.181c-.053-.086-.15-.129-.291-.129 0 .086.035.146.105.18.071.035.124.052.16.052.035 0 .052-.017.052-.051-.017-.018-.026-.035-.026-.052zM38.308 9.57c-.035-.018-.053-.035-.053-.052 0-.034-.008-.052-.026-.052s-.026.009-.026.026h-.08c-.018 0-.026-.017-.026-.051a.96.96 0 01-.265.077c-.089 0-.133.052-.133.155 0 .051.044.077.133.077.088 0 .176-.008.265-.026.105-.034.176-.086.211-.154zm-2.33 1.109l-.08-.078c-.017-.034-.043-.051-.079-.051-.017 0-.026.008-.026.025h-.026c0 .087.035.13.105.13.053 0 .089-.01.106-.026zm-9.823 2.295c0-.017-.036-.026-.106-.026s-.106.035-.106.104c0 .069.026.103.08.103a.207.207 0 00.079-.026c.035-.034.053-.069.053-.103v-.052zm9.956 1.238h-.106c-.018 0-.027-.008-.027-.025a.796.796 0 01-.291.051c-.088 0-.159.043-.212.13 0 .068.027.111.08.128.07.017.123.026.159.026.07 0 .15-.017.238-.052a.266.266 0 00.159-.258zm.688.774a.207.207 0 00-.08-.026c0-.017-.017-.025-.052-.025-.053 0-.08.017-.08.051v.103c.124 0 .194-.034.212-.103zm-.768.258c-.017-.017-.07-.026-.159-.026-.14 0-.23.035-.264.104a1.257 1.257 0 00-.08.129c.018.034.053.06.106.077.07.017.097.026.08.026.035 0 .061-.009.079-.026a.24.24 0 01.106-.026h.026c.089-.034.133-.086.133-.155 0-.017-.01-.034-.027-.051v-.052zm-1.032.49a4.571 4.571 0 00-.398-.18c-.053-.018-.079-.018-.079 0a.333.333 0 00-.238.103c.07.069.176.103.317.103h.212a.797.797 0 01.186-.026zm-6.911-.077c-.036 0-.053-.009-.053-.026s-.01-.026-.027-.026h-.053c0 .035-.026.052-.08.052-.052 0-.079.017-.079.052 0 .034.062.051.186.051.07 0 .106-.034.106-.103zm1.085 1.186c-.035-.051-.097-.077-.185-.077a.48.48 0 00-.212.052c0 .034.009.077.027.129.035.034.07.051.105.051h.08c.018-.017.044-.026.08-.026h.052c0-.034.01-.051.027-.051.018 0 .026-.017.026-.052v-.026zM46.144.464c.07-.017.177-.026.318-.026.159 0 .318.018.476.052.16.017.31.026.45.026h.292c.088-.017.176-.026.265-.026.14 0 .247.026.318.077.07.035.132.086.185.155.053.069.097.138.132.207a.407.407 0 00.212.103c.124.172.238.352.344.541.124.172.274.327.45.465.089.137.168.3.239.49.07.172.176.292.317.36.071.104.177.25.318.44.159.189.239.3.239.335.105.258.264.473.476.645.23.172.38.404.45.696.124.206.3.404.53.593.247.172.406.404.476.697a.832.832 0 00.239.438c.14.12.247.267.318.439.017.086.079.18.185.283.123.086.22.172.291.258v.052c0 .017.027.077.08.18.053.087.123.198.211.336l.318.361c.106.12.212.215.318.284 0 .154.044.31.132.464l.318.413c.123.12.238.249.344.387.106.12.177.232.212.335.106.138.185.3.238.49.07.172.23.258.477.258.141 0 .23-.043.265-.129a.413.413 0 01.185-.232c-.088-.138-.132-.335-.132-.593.017-.258.026-.473.026-.645V9.44c0-.086.009-.172.027-.258a.938.938 0 01-.027-.233v-.257-.233a.83.83 0 01.027-.206c0-.034-.01-.06-.027-.077v-.104-.232c.018-.086.027-.172.027-.258a.632.632 0 00-.08-.335.908.908 0 01-.08-.413V5.804c0-.344.018-.68.054-1.006-.106-.172-.16-.396-.16-.671 0-.24.01-.499.027-.774.018-.275.044-.507.08-.696a1.502 1.502 0 01-.08-.49c0-.19.01-.379.027-.568.035-.189.053-.378.053-.567-.018-.017-.027-.043-.027-.078 0-.103.053-.189.16-.258a.933.933 0 01.396-.18c.16-.035.336-.06.53-.078a6.05 6.05 0 011.51.052c.105-.034.211-.052.317-.052h1.483a.593.593 0 00.397.078c.176-.017.309.017.397.103.018.103.097.198.238.284.142.086.212.258.212.516 0 .103-.009.206-.026.31a1.962 1.962 0 00-.027.18c0 .034.01.086.027.155a.933.933 0 010 .438.742.742 0 00-.027.18.985.985 0 01.053.13.83.83 0 01.053.257c0 .138-.017.284-.053.439a3.23 3.23 0 00-.026.413v.36c.017.121.026.242.026.362V4.9a.675.675 0 01-.053.258c.035.051.053.137.053.258 0 .069-.009.146-.026.232a.938.938 0 000 .438c.017.07.026.155.026.258 0 .19-.017.31-.053.361a.413.413 0 01.053.233.933.933 0 01-.026.232.83.83 0 00-.027.206c0 .19.01.396.027.62.017.205.026.403.026.592v.516c0 .155-.017.301-.053.439a.449.449 0 01.053.206v.232c0 .103-.009.198-.026.284v.542c.017.086.026.172.026.258v1.573a.562.562 0 01.053.258c0 .155-.017.3-.053.438a3.441 3.441 0 00-.026.439v.619c.017.19.026.387.026.593 0 .12-.009.241-.026.361a1.697 1.697 0 00-.027.284c0 .086.01.163.027.232a.932.932 0 01.026.232.37.37 0 01-.08.233v.128a.225.225 0 01.027.104c0 .137-.017.275-.053.412a3.23 3.23 0 00-.026.413c0 .103.009.18.026.232a1.056 1.056 0 00-.026.258v.387c.017.103.026.215.026.335 0 .19-.08.379-.238.568-.141.189-.318.327-.53.413h-.688c-.194 0-.38-.018-.556-.052a2.902 2.902 0 00-.556-.052 5.37 5.37 0 00-.742.052c-.229.017-.467.026-.714.026a5.81 5.81 0 01-.503-.026 3.65 3.65 0 01-.583-.155 2.764 2.764 0 01-.503-.258.974.974 0 01-.318-.387.785.785 0 00-.265-.31.627.627 0 01-.212-.36 5.268 5.268 0 01-.794-.955c-.176-.31-.318-.55-.423-.722a.644.644 0 01-.292-.232l-.159-.31a.907.907 0 00-.158-.283.644.644 0 00-.292-.232.573.573 0 01-.212-.387c-.017-.155-.114-.276-.29-.361-.036-.172-.116-.293-.24-.362a.58.58 0 01-.237-.36.406.406 0 00-.16-.259 1.5 1.5 0 00-.238-.232l-.238-.232a.437.437 0 01-.106-.284.718.718 0 00-.291-.31.58.58 0 01-.239-.36c-.07-.035-.105-.086-.105-.155s-.044-.12-.133-.155a4.645 4.645 0 00-.291-.31 1.23 1.23 0 01-.212-.36.672.672 0 00-.238-.258.573.573 0 01-.185-.232c0-.207-.133-.379-.398-.516a.516.516 0 01-.159-.181.903.903 0 00-.079-.232.603.603 0 00-.132-.206c-.036-.07-.106-.112-.212-.13a1.404 1.404 0 01-.08-.18l-.053-.206c.036-.07.098-.104.186-.104a.185.185 0 00.159-.154c0-.052-.044-.086-.133-.103a3.557 3.557 0 00-.265-.052l-.317-.052a.607.607 0 01-.239-.129.724.724 0 00-.212-.18c-.105.051-.158.146-.158.284.017.137-.044.223-.186.258h-.106c-.088 0-.211.034-.37.103a.564.564 0 00-.344.283h-.106a.546.546 0 00-.398.155c0 .086.027.146.08.18a.262.262 0 00.132.052c.088 0 .16-.043.212-.129.07-.103.159-.154.265-.154a5.92 5.92 0 00.53-.13.556.556 0 00.37-.309h.291c.089 0 .15.026.186.077a.855.855 0 01-.16.336.888.888 0 00-.105.36l.026.053c.018.085.027.18.027.283v.568c0 .086-.009.172-.027.258.018.12.027.24.027.36v.749c0 .103-.009.206-.027.31.053.188.08.378.08.567.017.189.026.404.026.645.036.034.053.111.053.232 0 .137-.026.24-.08.31a.501.501 0 00-.052.231c0 .104.017.215.053.336.035.103.053.223.053.36a.673.673 0 01-.08.31.842.842 0 00-.08.387v.49a.173.173 0 01.054.13v.102c0 .052.009.104.026.155a.477.477 0 01.027.155c0 .138-.018.267-.053.387-.018.12-.027.25-.027.387a1.893 1.893 0 010 .645v.284c0 .085.01.171.027.257s.026.172.026.258a.46.46 0 01-.185.361 1.844 1.844 0 00-.265.258c-.159.035-.326.06-.503.078a2.918 2.918 0 00-.503.103 13.873 13.873 0 00-1.483-.026c-.53.017-1.024.009-1.483-.026-.07 0-.15.009-.238.026a.48.48 0 01-.212.052c-.194 0-.37-.103-.53-.31-.14-.223-.22-.43-.238-.619l.053-.103a.474.474 0 00.027-.155c0-.034-.009-.06-.027-.077a.224.224 0 01-.026-.103v-.052c.018-.017.026-.043.026-.077a.672.672 0 00-.053-.258 1.284 1.284 0 01-.026-.258c0-.224.018-.439.053-.645.053-.206.08-.43.08-.67a.95.95 0 00-.08-.388 1.654 1.654 0 01-.053-.412c0-.155.018-.31.053-.465.035-.154.053-.3.053-.438-.018-.19-.035-.396-.053-.62v-.592a.244.244 0 00.08-.18.511.511 0 00-.107-.336.843.843 0 01-.079-.387c0-.172.009-.301.026-.387a.36.36 0 01-.052-.206.74.74 0 01.053-.284.674.674 0 00.052-.258.312.312 0 00-.053-.18.448.448 0 01-.052-.207.83.83 0 01.026-.206.932.932 0 00.026-.232.474.474 0 00-.026-.155.741.741 0 01-.026-.18c0-.104.008-.19.026-.259a.501.501 0 00.053-.232.413.413 0 00-.053-.232v-.696a9.59 9.59 0 01.08-.774.825.825 0 01-.053-.207c0-.206.017-.412.052-.619.053-.223.08-.438.08-.645 0-.24-.018-.472-.053-.696a9.902 9.902 0 01-.027-.722c0-.241.01-.387.027-.439a.36.36 0 00.053-.206c0-.172-.018-.318-.053-.439a2.677 2.677 0 01-.027-.386c0-.224.027-.456.08-.697-.035-.034-.053-.06-.053-.077v-.052c.018-.017.026-.034.026-.051a.413.413 0 00-.026-.13.416.416 0 01-.027-.128c0-.086.01-.164.027-.233a.675.675 0 00.053-.257.562.562 0 00-.053-.258.562.562 0 01-.053-.258c0-.293.106-.542.318-.748.23-.207.573-.31 1.032-.31h.583c.053-.052.141-.077.265-.077.159 0 .309.017.45.051.159.017.318.026.476.026.142 0 .248-.009.318-.026zm-.82 3.147c-.018-.034-.062-.051-.133-.051-.07-.018-.088-.026-.053-.026-.035 0-.062.008-.08.026h-.079v.025c0 .086.027.13.08.13h.053c.07 0 .14-.035.211-.104zm14.06.026V3.61c0-.034-.018-.051-.053-.051 0 .068.008.103.026.103 0-.017.009-.026.026-.026zm-12.101.206v-.051c0-.035-.027-.052-.08-.052-.159 0-.238.026-.238.077 0 .018.026.026.08.026.017.052.052.078.105.078v-.026c.018-.035.062-.052.133-.052zm.926.568c-.017-.017-.053-.026-.105-.026-.089 0-.168.043-.239.129-.053.086-.185.129-.397.129a.755.755 0 01-.318-.052.664.664 0 00-.29.155.682.682 0 01-.319.103 2.358 2.358 0 00-.317-.026.725.725 0 01-.265-.051 1.91 1.91 0 01-.239.077c-.07 0-.123.035-.158.103a.653.653 0 00.185.207c.106.069.185.103.238.103.07 0 .142-.009.212-.026s.15-.026.238-.026c.089 0 .177.018.265.052a.725.725 0 00.265.052c.053 0 .088-.01.106-.026.035-.172.141-.267.318-.284a3.43 3.43 0 00.476-.077c.053-.086.097-.172.133-.258.053-.086.123-.172.212-.258zm1.14.232c-.09-.086-.23-.13-.425-.13h-.158c.07.104.176.164.317.181.16.018.23.026.212.026.035 0 .053-.008.053-.026v-.051zm10.273-.026h-.053c-.018-.017-.044-.026-.08-.026-.088 0-.14.026-.158.078.035.034.061.051.079.051a.24.24 0 00.106-.026.414.414 0 01.106-.077zm-14.352.284a.182.182 0 00-.132-.052.262.262 0 00-.132.052 1.04 1.04 0 00-.133.051c.018.035.018.086 0 .155-.017.052.018.078.106.078.053 0 .088-.026.106-.078.018-.051.053-.077.106-.077h.026c.036 0 .053-.009.053-.026v-.103zm3.23.67a1.38 1.38 0 00-.264.026h-.265c-.194 0-.317-.017-.37-.051-.036-.035-.098-.052-.186-.052-.106 0-.159.026-.159.077.036.104.097.181.186.233.105.051.203.12.29.206a.168.168 0 01.133-.129.686.686 0 01.265 0h.238c.071-.017.124-.069.16-.155a.352.352 0 00-.027-.155zm-1.667.13h-.08c-.017-.018-.044-.026-.08-.026a1.02 1.02 0 00-.396.077.837.837 0 01-.556.052.414.414 0 00-.16-.052.414.414 0 00-.158.052c-.07.034-.106.06-.106.077v.155c.088.034.194.06.318.077.123.017.247.026.37.026.124 0 .3-.017.53-.052.247-.051.37-.137.37-.258 0-.017-.008-.025-.026-.025h-.026l-.027-.026v-.026c.018-.017.027-.034.027-.052zm3.257.206a.516.516 0 00-.16-.18.437.437 0 00-.264-.078c-.106 0-.16.008-.16.026 0 .017-.017.094-.052.232.07.086.203.129.397.129h.133c.07 0 .105-.026.105-.078v-.051zm9.082-.13c0-.05-.036-.068-.106-.05a.378.378 0 01-.16-.027.862.862 0 01-.132.104c-.053.034-.079.077-.079.129 0 .051.035.077.106.077.159 0 .247-.026.265-.077a.25.25 0 01.106-.155zm-11.227.465c-.089-.086-.177-.129-.265-.129.018 0-.035.026-.159.078-.106.034-.23.086-.37.154a2.76 2.76 0 00-.398.18c-.123.07-.185.121-.185.156 0 .068.035.12.106.154.07.018.15.035.238.052.088 0 .168.017.238.052.071.034.106.086.106.154 0 .086-.044.138-.132.155a.837.837 0 00-.186.052.724.724 0 00-.264-.052.254.254 0 01-.212-.103h-.212c-.088 0-.132.034-.132.103.035.086.097.13.185.13a.717.717 0 01.185.231c.089.12.133.164.133.13h.185c.053 0 .088-.01.106-.027.159 0 .291.026.397.078a.95.95 0 00.291.051.333.333 0 00.239-.103 1.06 1.06 0 01.265-.155c0-.103-.018-.172-.053-.206V7.3c.017-.018.026-.035.026-.052 0-.086-.026-.137-.08-.155a.333.333 0 00-.185-.051L47.6 6.99a.233.233 0 01-.132-.155c0-.12.027-.197.08-.232a.419.419 0 01.158-.103.676.676 0 01.16-.077c.052-.018.079-.06.079-.13v-.05zm1.509.67c-.141 0-.282-.025-.424-.077a.96.96 0 00-.423-.103c-.089 0-.194.017-.318.052-.106.017-.159.086-.159.206 0 .052.035.095.106.13.088.016.185.034.291.05h.583a.706.706 0 00.212-.025.676.676 0 00.158-.077.352.352 0 00-.026-.155zm-.053.904h-.106c-.141 0-.273-.01-.397-.026a2.01 2.01 0 00-.344-.078c0 .018-.01.035-.027.052v.026c0 .051.044.094.133.129.106.017.185.026.238.026h.318c.123 0 .185-.043.185-.13zm-3.575.232a.862.862 0 00-.132-.103c-.035-.052-.088-.078-.159-.078h-.132a.24.24 0 00-.106-.026c-.212 0-.353.06-.424.18.07.052.15.095.239.13.105.034.194.06.264.077.089.017.16.035.212.052h.053v-.026l.027-.026c.017 0 .026.009.026.026h.053a.275.275 0 00.08-.206zm1.298.258a.48.48 0 00-.212-.052c-.106 0-.159.06-.159.18 0 .035.018.052.053.052.053 0 .097.017.133.052.123-.035.185-.095.185-.18v-.052zm-.794.412l-.08-.077c-.018-.017-.053-.026-.106-.026a.261.261 0 00-.132.052c-.035.034-.053.069-.053.103 0 .034.026.069.08.103a.261.261 0 00.132.052c.088 0 .132-.018.132-.052a.474.474 0 00.027-.155zm13.556.104c0-.052-.052-.078-.158-.078-.071 0-.106.017-.106.052 0 .051.062.077.185.077.018 0 .044-.017.08-.051zm-11.941 1.212c-.036-.086-.089-.13-.16-.13h-.184c-.071.035-.142.061-.212.078a.254.254 0 00-.133.103c0 .052.027.086.08.104.053 0 .097.017.132.051.106 0 .185-.026.238-.077a.608.608 0 01.239-.13zm10.856.335c-.053-.051-.133-.077-.238-.077-.053 0-.08.026-.08.077 0 .034.009.069.027.103h.159c.088 0 .132-.034.132-.103zm-.847.361c.017-.017.026-.043.026-.077 0-.052-.026-.078-.08-.078-.088 0-.15.018-.185.052.018.034.018.077 0 .13-.017.05.01.076.08.076.035 0 .061-.008.08-.025a.171.171 0 01.079-.078zm-.345.723c-.035-.104-.132-.155-.29-.155-.107 0-.186.025-.24.077v.18c0 .035.036.07.107.104a.725.725 0 00.264.051c.106 0 .16-.025.16-.077v-.18zm-1.72.386c-.036-.051-.08-.077-.133-.077a.29.29 0 00-.159.052c-.053.017-.08.043-.08.077s.01.06.027.077c.035.018.07.043.106.078a.29.29 0 01.159-.052c.053-.017.08-.069.08-.155zm.926.155a.262.262 0 00-.238-.129c-.07 0-.106.035-.106.103 0 .018.017.06.053.13.035.068.088.102.159.102.088 0 .132-.051.132-.154v-.052zm1.218.052c0-.052-.026-.078-.08-.078h-.185a.466.466 0 01-.132.13c-.053.016-.08.06-.08.128 0 .086.036.138.106.155h.265a.986.986 0 00.053-.129.273.273 0 00.053-.155v-.051zm.847.438c0-.017-.009-.025-.026-.025v-.052a.435.435 0 00-.185-.052.953.953 0 00-.265.026c-.053.017-.115.095-.186.232v.052c.018 0 .027.008.027.026 0 .086-.053.146-.159.18a1.665 1.665 0 01-.212.026c-.088 0-.22-.034-.397-.103-.088-.138-.238-.207-.45-.207-.194 0-.344-.051-.45-.154h-.133a.511.511 0 00-.159-.026c-.176 0-.264.052-.264.155 0 .034.017.051.053.051h.026v.026c.141-.034.238-.052.291-.052.071 0 .16.026.265.078.124.051.23.12.318.206.106.069.194.146.265.232.07.07.106.12.106.155a.275.275 0 01-.08.206.34.34 0 01-.159.078c-.07.017-.14.043-.212.077-.052.017-.088.06-.105.13a.273.273 0 01.053.154c.017.051.07.077.158.077.142-.069.3-.103.477-.103s.335-.017.477-.052a.238.238 0 00-.16-.18c-.07-.052-.105-.129-.105-.232 0-.086.062-.13.185-.13.106 0 .212.01.318.027.106.017.159.043.159.077.035-.034.07-.043.106-.026.035.017.062 0 .08-.051a.906.906 0 00.396.077c.124 0 .22-.026.292-.077.07-.052.123-.078.158-.078h.08c.017 0 .026-.008.026-.025 0-.035-.017-.043-.053-.026h-.105a.724.724 0 00-.265.051 1.687 1.687 0 01-.318.026.463.463 0 01-.291-.103c-.089-.069-.133-.146-.133-.232 0-.069.027-.112.08-.13a.435.435 0 01.185-.05c.07-.018.133-.035.185-.052.071-.018.106-.06.106-.13v-.077zm-3.813.155c-.053-.052-.097-.077-.132-.077-.053 0-.08.025-.08.077h.027c.035 0 .053.017.053.052.018.017.044.025.08.025.035 0 .052-.017.052-.051v-.026zm.821.593a.333.333 0 01-.185-.051c-.035-.035-.097-.052-.185-.052-.071 0-.106.026-.106.078 0 .034.035.068.106.103.07.017.15.043.238.077a.963.963 0 01.238.077c.07.018.106.035.106.052.07 0 .133-.043.185-.129a.572.572 0 01-.185-.103c-.035-.035-.106-.052-.212-.052zm4.104.774c-.035 0-.061.009-.079.026h-.026a.302.302 0 01-.133-.026.301.301 0 00-.132-.026c-.036 0-.062.009-.08.026h-.026l-.027.026h-.053c-.017-.017-.035-.026-.053-.026-.053.052-.079.086-.079.103 0 .07.026.103.08.103h.423c.088-.017.15-.025.185-.025h.133c0-.07-.027-.103-.08-.103-.035 0-.053-.026-.053-.078zm-4.263.052a.603.603 0 00-.264-.052c-.124 0-.195.034-.212.103 0 .086.044.13.132.13h.106a.24.24 0 01.106-.027h.053c.053-.017.08-.051.08-.103v-.051zm2.78.026v-.026c0-.035-.026-.043-.079-.026-.035 0-.062-.009-.08-.026 0 .052.018.078.054.078h.106zm-1.588.36v-.128c0-.052-.009-.078-.027-.078-.035 0-.088.026-.158.078-.053.051-.106.077-.16.077h-.026c-.017.034-.053.052-.106.052-.035 0-.053.025-.053.077 0 .086.071.129.212.129a.743.743 0 00.16-.026.328.328 0 00.158-.18zm1.96 0a.307.307 0 00-.08-.051c-.018-.034-.044-.052-.08-.052-.07 0-.105.07-.105.207 0 .069.035.103.105.103a.416.416 0 00.106-.077.173.173 0 00.053-.13zm-.927 0c-.036-.051-.089-.077-.16-.077a.743.743 0 00-.158.026c-.053.017-.08.043-.08.077 0 .07.027.112.08.13l.106.05c.07 0 .114-.025.132-.076a.322.322 0 01.08-.13zm-12.366.336a.414.414 0 00-.159-.052.89.89 0 00-.265.052c-.105.034-.158.077-.158.129 0 .034.017.06.053.077a.24.24 0 00.105.026.511.511 0 00.16-.026.48.48 0 01.211-.051l.027.025c.017 0 .026-.017.026-.051v-.13zm12.26.206a.501.501 0 00-.318-.103c-.07 0-.168.017-.291.052-.124.034-.186.077-.186.129 0 .068.044.12.133.154.088.018.185.035.291.052.106 0 .203.009.291.026.088 0 .133.008.133.026a.378.378 0 00.158.025c.16 0 .283-.077.371-.232-.017-.069-.097-.103-.238-.103h-.185a.377.377 0 01-.16-.026zm-1.192.464c-.017-.034-.044-.051-.08-.051h-.105c0 .052.017.077.053.077h.08c.017-.017.035-.026.052-.026zm3.284.465v-.052c0-.051-.036-.077-.106-.077-.142 0-.212.034-.212.103a.31.31 0 01.08.052c.017.017.043.025.079.025.035 0 .061-.008.079-.025.018-.018.044-.026.08-.026zm-2.33.051c-.036-.051-.106-.077-.212-.077a.435.435 0 00-.186.052c.035.068.097.103.185.103h.027c.018-.017.035-.026.053-.026h.08c.035 0 .052-.017.052-.052zm.582.903a.41.41 0 00-.291-.129c-.071 0-.106.026-.106.078 0 .034.008.06.026.077.035 0 .062.017.08.052h.158c.071 0 .115-.026.133-.078zm.794.13c-.035-.052-.097-.078-.185-.078h-.212v.026c0 .034.009.06.027.077.017 0 .044.017.079.052h.185c.07 0 .106-.018.106-.052v-.026zM65.925.464a3.5 3.5 0 00.424.026h.45c.23 0 .45-.017.662-.052.212-.034.415-.051.609-.051.123 0 .238.017.344.051.124.018.256.026.397.026a.706.706 0 00.212-.026c.07.035.132.06.185.078h.477a1.98 1.98 0 01.318-.026c.176 0 .344.009.503.026.176.017.362.026.556.026h.688c.23-.018.46-.026.689-.026.423 0 .812.034 1.165.103.353.052.706.077 1.059.077.3 0 .556.052.768.155.23.086.494.13.794.13.3.085.539.206.715.36.194.155.415.275.662.361a.607.607 0 01.265.104c.07.034.141.077.212.129.106.086.22.146.344.18a.426.426 0 01.318.18c.176.138.344.259.503.362.176.103.326.25.45.438.159.103.309.215.45.336.159.12.291.266.397.438.07.086.203.232.397.439.195.206.292.404.292.593.14.206.29.464.45.774.176.292.265.498.265.619v.154c0 .138.044.241.132.31.088.052.132.12.132.206 0 .052-.008.086-.026.104 0 .12.035.257.106.412.07.138.106.301.106.49a.35.35 0 01-.027.155c.018.069.035.129.053.18l.08.155c-.018.086-.027.181-.027.284a.406.406 0 01-.026.258.565.565 0 00.08.18.405.405 0 01.105.155l-.053.852v.722c0 .103.009.206.026.31.018.102.027.197.027.283a.489.489 0 01-.08.258.501.501 0 00-.052.232v.13a.224.224 0 01.026.102c0 .035-.009.06-.026.078-.018.017-.027.043-.027.077v.078c0 .034-.026.068-.08.103-.035.034-.052.094-.052.18s.009.164.026.232a.414.414 0 01.027.13c-.07.292-.186.575-.344.85a2.38 2.38 0 00-.318.877c0 .104-.027.181-.08.233a.666.666 0 01-.159.154 1.046 1.046 0 00-.158.13.36.36 0 00-.053.206 1.57 1.57 0 01-.398.516c-.158.154-.3.318-.423.49a1.23 1.23 0 01-.212.36 4.27 4.27 0 01-.291.259c-.106.069-.221.146-.344.232a1.352 1.352 0 00-.292.258.904.904 0 00-.317.155c-.071.068-.16.129-.265.18a.262.262 0 00-.239.13.315.315 0 01-.212.154.588.588 0 01-.344.232.519.519 0 00-.344.18 1.193 1.193 0 01-.53.155.874.874 0 00-.503.207c-.14.103-.326.154-.556.154-.23-.017-.415.026-.556.13h-.106c-.017-.018-.044-.026-.079-.026a.676.676 0 00-.344.077.677.677 0 01-.344.077.465.465 0 01-.186-.025c-.07.068-.185.103-.344.103-.159 0-.309-.017-.45-.052l-1.298.052c-.423.017-.838.06-1.244.129v-.052h-.318c-.106 0-.176-.017-.212-.051-.035.034-.106.051-.212.051h-.476a2.008 2.008 0 01-.874-.052c-.035.035-.097.052-.185.052h-.583a1.979 1.979 0 01-.317.026 5.74 5.74 0 01-.557-.026h-.556a1.682 1.682 0 01-.397.052c-.424 0-.803-.043-1.138-.13-.318-.085-.477-.292-.477-.618 0-.138.018-.267.053-.387a.839.839 0 00.08-.335c0-.138-.01-.267-.027-.387V16.56v-.49c0-.172-.009-.344-.027-.516a.653.653 0 00.027-.207c0-.086-.009-.172-.027-.258a1.697 1.697 0 01-.026-.283c0-.086.009-.164.026-.232a.511.511 0 00-.053-.542.78.78 0 01-.079-.361c0-.052.018-.103.053-.155a.446.446 0 00.053-.129.58.58 0 00-.053-.18 1.17 1.17 0 01-.026-.233c0-.103.017-.189.053-.258a.501.501 0 00.052-.232c-.088-.034-.132-.137-.132-.31v-.257a.938.938 0 00-.026-.232v-.258c0-.224.026-.353.079-.387.053-.035.08-.069.08-.103a5.259 5.259 0 00-.133-.207 1.192 1.192 0 01-.026-.284.58.58 0 01.079-.309.596.596 0 00.08-.258c-.124-.172-.186-.327-.186-.464 0-.086.018-.164.053-.232a.501.501 0 00.053-.233c0-.103-.009-.206-.026-.309a1.838 1.838 0 01-.027-.31.83.83 0 01.053-.258.455.455 0 01-.08-.283c0-.017.01-.095.027-.232.035-.155.08-.241.132-.258a5.073 5.073 0 01-.105-.284.95.95 0 01-.053-.31c0-.086.008-.154.026-.206a.5.5 0 00.053-.232c0-.12-.026-.198-.08-.232a.275.275 0 01-.079-.207v-.232c.018-.086.027-.172.027-.258a.825.825 0 01-.053-.206c0-.086.017-.172.053-.258a.675.675 0 00.053-.258c0-.086-.01-.172-.027-.258a1.417 1.417 0 01-.026-.284v-.232a.56.56 0 01.026-.18.78.78 0 01-.08-.361c0-.12.01-.241.027-.361.035-.138.053-.276.053-.413.053-.069.07-.164.053-.284 0-.12.018-.223.053-.31a.675.675 0 00-.053-.257 1.827 1.827 0 01-.026-.31c0-.155.079-.352.238-.593.176-.258.37-.387.582-.387.089 0 .16.017.212.051.07.018.142.026.212.026zm3.919 1.703c0-.052-.035-.078-.106-.078h-.159c-.018.035-.044.052-.08.052-.017 0-.026.017-.026.051 0 .018.009.035.027.052h.053c.035 0 .061.009.08.026h.105c.07 0 .106-.035.106-.103zm-2.383.902a.616.616 0 00-.16-.103c-.07-.051-.123-.077-.158-.077s-.053.017-.053.052c0 .017-.009.034-.026.051.017.034.08.086.185.155.124 0 .194-.026.212-.078zm8.844 0v-.051c0-.017-.01-.026-.027-.026-.018 0-.044.017-.08.052-.017.017-.035.025-.052.025v.026c.07 0 .123-.008.159-.026zm-7.917.13a1.916 1.916 0 00-.239-.078.384.384 0 00-.212-.052c-.035.018-.052.043-.052.078 0 .051.017.077.052.077.071 0 .124.035.16.103.035.052.088.078.158.078.088 0 .133-.017.133-.052v-.155zm2.41-.026c0-.035-.036-.052-.107-.052-.035 0-.053.009-.053.026v.026c.018.017.035.025.053.025.07 0 .106-.008.106-.025zm-.742.49a3.209 3.209 0 01-.239-.103.384.384 0 00-.211-.052c-.053 0-.08.017-.08.052 0 .086.053.163.159.232a.546.546 0 00.291.103c.124 0 .186-.052.186-.155 0-.017-.018-.026-.053-.026-.036 0-.053-.017-.053-.051zm3.6.051V3.69c0-.052-.026-.078-.079-.078h-.106a.352.352 0 00-.026.155h.106c.053 0 .088-.017.106-.052zm-2.515.361c0-.017-.009-.025-.026-.025-.018 0-.027-.009-.027-.026v-.026c-.07.034-.167.069-.29.103-.107.017-.16.069-.16.155 0 .069.027.103.08.103.035 0 .114-.017.238-.051.124-.052.185-.13.185-.233zm1.457.104c0-.052-.018-.078-.053-.078-.053 0-.08.017-.08.052 0 .034.036.051.106.051h.027V4.18zm-3.178.258c-.159 0-.273-.052-.344-.155h-.132c-.053 0-.08.017-.08.051.106.07.203.13.291.18.177.121.327.181.45.181.071 0 .124-.008.16-.025 0-.103-.045-.155-.133-.155a1.05 1.05 0 01-.212-.077zm2.33.31c0-.053-.017-.078-.053-.078l-.053.051c0 .017.036.026.106.026zm-3.15.257c-.071-.103-.177-.155-.318-.155a2.887 2.887 0 00-.397-.026c-.036.035-.053.06-.053.078 0 .051.061.094.185.129.141.017.256.026.344.026a.443.443 0 00.238-.052zm3.865.335a1.06 1.06 0 01-.344.078c-.141 0-.282-.017-.424-.052a1.02 1.02 0 00-.397-.077c-.088 0-.23.043-.424.129a.501.501 0 00-.29.438c.07.12.105.284.105.49 0 .172-.035.344-.106.516a.575.575 0 01.133.387v.413a.37.37 0 01-.08.232c-.035.052-.053.146-.053.284 0 .24.01.49.027.748.017.24.026.481.026.722 0 .12-.009.24-.026.361a1.828 1.828 0 00-.027.31c0 .085.018.18.053.283a.74.74 0 01.053.284c0 .086-.017.18-.053.284a.674.674 0 00-.053.258c0 .137.018.275.053.412.035.138.053.284.053.439a.48.48 0 01-.132.361c-.07.069-.106.198-.106.387v.284c.017.103.026.197.026.283 0 .12-.017.232-.053.336a1.838 1.838 0 00-.026.31c.141.068.212.188.212.36 0 .155.044.284.132.387.07.069.15.103.239.103a.95.95 0 01.29.052c.054-.017.16-.026.319-.026h.264a.706.706 0 00.212-.026.6.6 0 01.185-.025c.071 0 .133.008.186.025a.511.511 0 00.159.026.254.254 0 00.212-.103c.229-.069.45-.12.661-.155.212-.051.415-.146.61-.283.176-.12.379-.215.608-.284.23-.069.442-.172.636-.31a1.29 1.29 0 01.318-.516c.159-.137.309-.292.45-.464a.55.55 0 00.159-.335.701.701 0 01.159-.387c.088-.12.114-.284.079-.49-.018-.207.035-.353.159-.439.017-.017.026-.051.026-.103a.312.312 0 00-.053-.18.738.738 0 01-.026-.181c.018 0 .026-.017.026-.052v-.077a.539.539 0 00.133-.361.897.897 0 00-.106-.413 1.425 1.425 0 01-.08-.464c0-.052.01-.103.027-.155a.78.78 0 00-.132-.67.938.938 0 01-.133-.516V8.15c.018-.017.027-.035.027-.052a.233.233 0 01-.133-.154 4.801 4.801 0 00-.053-.233.501.501 0 00-.053-.232.233.233 0 00-.132-.155 2.84 2.84 0 01-.212-.232 1.021 1.021 0 01-.159-.258 5.815 5.815 0 00-.635-.438 8.104 8.104 0 00-.61-.361 3.928 3.928 0 00-.45-.232c-.123-.07-.185-.112-.185-.13-.3 0-.547-.042-.741-.128-.106 0-.186-.035-.239-.103-.052-.07-.15-.104-.29-.104zm5.402.516v-.051c0-.035-.018-.052-.053-.052a.207.207 0 00-.08.026h-.052c-.036 0-.062-.009-.08-.026-.035.052-.106.077-.212.077a.603.603 0 00-.264.052h-.053c-.036 0-.053.026-.053.077v.052h.079c.124 0 .256-.009.397-.026a.862.862 0 00.37-.129zm.9.361c-.035-.103-.123-.154-.265-.154-.106 0-.158.034-.158.103 0 .12.044.189.132.206h.212c.07 0 .106-.026.106-.077-.018 0-.027-.009-.027-.026v-.052zm-.026.98c-.036 0-.053-.008-.053-.025s-.018-.026-.053-.026h-.053c-.018 0-.027-.017-.027-.052h-.212c-.07 0-.114.026-.132.078.07.034.124.077.159.129.035.034.097.051.185.051a.442.442 0 00.106-.026c.053-.017.08-.043.08-.077v-.051zm-11.227.362c0-.052-.018-.078-.053-.078l-.027.026-.026.026c0 .017.035.026.106.026zm1.27 1.083v-.052c0-.017-.008-.025-.026-.025h-.026c0 .051.017.077.053.077zM78.82 9.879l-.106-.052c-.017-.034-.053-.051-.106-.051a.46.46 0 00-.212.077c-.088.035-.132.086-.132.155 0 .052.026.077.08.077h.079a.24.24 0 01.106-.025h.08a.334.334 0 01.132-.078c.053-.017.08-.051.08-.103zm.742.722c-.018-.034-.053-.051-.106-.051-.106 0-.16.043-.16.129.036 0 .063.008.08.025h.08c.07 0 .105-.034.105-.103zm-.821.31v-.052h-.265c-.07 0-.115.026-.132.078 0 .068.017.12.052.154h.239c.088-.017.132-.068.132-.154l-.026-.026zm2.25 1.109c-.053-.069-.167-.103-.344-.103-.07 0-.123.017-.159.051 0 .07.036.112.106.13.088.016.15.025.186.025.105 0 .176-.034.211-.103zm-1.986 1.393l-.079-.078c0-.034-.018-.051-.053-.051.018 0-.009.008-.08.026-.052.017-.079.043-.079.077 0 .069.018.112.053.129h.133c.07 0 .105-.034.105-.103zm-10.617.593c0-.069-.027-.103-.08-.103a.334.334 0 01-.132-.078 1.04 1.04 0 01-.291.104 4.035 4.035 0 00-.398.077 1.985 1.985 0 00-.37.078c-.106.017-.16.051-.16.103 0 .086.027.129.08.129.053-.018.097-.009.133.025a.606.606 0 01.264-.103c.124-.017.239-.026.345-.026.123-.017.238-.034.344-.051a.42.42 0 00.265-.155zm1.535 1.006c-.053-.103-.14-.155-.264-.155a.95.95 0 00-.292.052 1.54 1.54 0 01-.264.077c.088.035.167.078.238.13a.963.963 0 00.344.05c.088 0 .15-.016.185-.05h.027c.017 0 .026-.01.026-.027v-.077zm-1.509.129a.911.911 0 00-.397-.103h-.08c0 .051.018.086.053.103a.17.17 0 01.08.077.306.306 0 01.212-.025c.07.017.114 0 .132-.052zm-.98.335c-.017-.017-.044-.026-.08-.026h-.184v.026c0 .035.035.086.105.155.071.052.124.078.16.078.017 0 .043-.018.079-.052a.224.224 0 01-.027-.103c.018-.052 0-.078-.053-.078zm9.877.078c-.018-.07-.08-.104-.186-.104h-.211c0 .052.017.087.053.104.035 0 .061.017.079.051h.159c.053 0 .088-.017.106-.051zm-9.03.49a.308.308 0 01-.079-.052c0-.017-.009-.026-.026-.026.017 0-.01.018-.08.052-.053.017-.08.043-.08.077 0 .035.018.052.054.052.123 0 .194-.034.212-.103zm-1.43.438l-.079-.077c-.035 0-.053.017-.053.051 0 .035.036.052.106.052l.027-.026zm2.57-.026a3.251 3.251 0 00-.45.104.48.48 0 00-.345.258c0 .068.026.094.08.077a.179.179 0 01.158.026c.124-.035.265-.052.424-.052.159-.017.238-.129.238-.335 0-.034-.009-.043-.026-.026-.018 0-.044-.017-.08-.052zm7.28.104l.027-.026c.018 0 .036-.009.053-.026.018 0 .027-.008.027-.026 0-.034-.036-.051-.106-.051h-.133c0 .086.045.129.133.129zm-2.064.206a1.046 1.046 0 01-.16-.129.29.29 0 00-.211-.077c-.089 0-.133.026-.133.077 0 .086.036.155.106.206a.624.624 0 00.212.052c.124 0 .186-.043.186-.129zm-3.654.052c-.036-.07-.089-.095-.16-.078a.334.334 0 01-.185-.051.598.598 0 01-.185.077.436.436 0 00-.186.052c0 .086.018.146.053.18h.318a.384.384 0 00.212-.051l.133-.13zm2.144.129v-.052c0-.086-.053-.12-.159-.103-.106 0-.176-.017-.212-.052 0 .035-.026.052-.079.052h-.08c-.017 0-.026.008-.026.026 0 .034.044.077.133.129a.89.89 0 00.264.051.414.414 0 00.16-.051zm-4.978.129c0-.035-.026-.07-.08-.104-.035-.034-.07-.051-.105-.051-.035 0-.062.008-.08.026 0 .086.018.146.053.18a.115.115 0 01.106 0c.053 0 .089-.017.106-.051zM90.227.774c.142.223.212.49.212.8a.951.951 0 01-.053.309 1.283 1.283 0 00-.026.258c0 .086.017.18.053.284a.894.894 0 01.053.335c0 .052-.018.138-.053.258-.018.103-.036.155-.053.155 0 .103.009.206.026.31a.74.74 0 01.053.283.825.825 0 01-.026.206.56.56 0 00-.027.18c0 .087.01.164.027.233a.825.825 0 01.026.206.371.371 0 01-.08.232c0 .138.018.276.054.413.035.138.053.275.053.413 0 .223-.018.456-.053.696-.018.241-.027.482-.027.723v.257c0 .086.01.172.027.258a.413.413 0 01-.027.13v.128c0 .035.01.06.027.078 0 .344-.027.662-.08.954-.053.275-.08.55-.08.826 0 .137.01.266.027.386.018.104.027.207.027.31 0 .086-.018.198-.053.335.035.138.053.25.053.336 0 .086-.009.171-.027.257v.207c0 .155.018.3.053.438.053.138.08.284.08.439 0 .31-.027.516-.08.619-.035.103-.053.25-.053.438 0 .138.018.25.053.336a.58.58 0 01.08.31v.206c0 .189.115.326.344.412.247.07.503.104.768.104h.37a2.13 2.13 0 01.794.026c.177.034.275.05.292.05a.886.886 0 00.212-.05c.106-.035.212-.052.318-.052.247 0 .485.017.715.051.23.018.467.026.715.026.176 0 .344-.008.503-.026.159-.017.353-.025.582-.025.159 0 .274.025.344.077.071.034.133.086.186.155a.688.688 0 01.132.18c.035.052.097.086.186.103 0 .086.008.164.026.232a.56.56 0 01.026.181.433.433 0 01-.026.18c.035.138.053.25.053.336 0 .12-.018.224-.053.31a1.276 1.276 0 00.026.619c.053.103.08.215.08.335a.488.488 0 01-.08.258.501.501 0 00-.052.232.74.74 0 00.052.284.37.37 0 01.08.232.37.37 0 01-.08.232v.129c0 .19-.07.327-.211.413l-.424.258h-.185c-.142 0-.274.008-.398.025a2.685 2.685 0 01-.37.026c-.353 0-.715-.008-1.086-.026a21.76 21.76 0 00-1.059-.025h-.98c-.317.017-.626.025-.926.025a.537.537 0 01-.239-.051.706.706 0 00-.212-.026c-.14 0-.29.017-.45.052a1.896 1.896 0 01-.45.051.512.512 0 01-.159-.026.446.446 0 01-.132-.025.72.72 0 01-.344.025.875.875 0 00-.318.052 1.259 1.259 0 00-.238-.026h-.239c-.194 0-.397.009-.609.026a7.851 7.851 0 01-.635.026c-.742 0-1.412-.052-2.013-.155-.282-.138-.45-.292-.503-.464a2.56 2.56 0 01-.053-.516c0-.086.018-.172.053-.258a.675.675 0 00.053-.258.41.41 0 00-.08-.258.675.675 0 01-.052-.258c0-.069.017-.137.053-.206a.37.37 0 00.08-.232c0-.224-.018-.448-.054-.671a9.228 9.228 0 01-.026-.722v-.542c0-.172.009-.344.026-.516-.035-.051-.053-.137-.053-.258 0-.103.01-.206.027-.31.017-.103.026-.206.026-.309a.414.414 0 00-.026-.129v-.155a.74.74 0 01.053-.283.814.814 0 00.053-.31v-.103a.724.724 0 00.08-.335c0-.086-.01-.172-.027-.258a1.698 1.698 0 01-.027-.284c0-.12.027-.275.08-.464-.036-.018-.062-.095-.08-.232a9.896 9.896 0 00-.08-.542 99.03 99.03 0 01-.052-.645v-.542-.206a.83.83 0 01.026-.206.91.91 0 01-.08-.413c0-.138.027-.258.08-.361a.612.612 0 00.08-.207.41.41 0 00-.08-.257.371.371 0 01-.08-.233c0-.086.01-.223.027-.412.018-.207.053-.361.106-.465-.035-.051-.053-.137-.053-.258 0-.103.01-.206.027-.31.017-.102.026-.197.026-.283a1.24 1.24 0 01-.106-.464c0-.138.036-.25.106-.335a2.117 2.117 0 01-.08-.62c0-.137.01-.257.027-.36a.951.951 0 00.053-.31c0-.155-.017-.301-.053-.439a1.655 1.655 0 01-.053-.412c0-.155.036-.301.106-.439a1.765 1.765 0 01-.08-.567v-.155a.413.413 0 00.027-.129.474.474 0 00-.026-.155v-.155a.44.44 0 01.159-.36 1.33 1.33 0 01.397-.233c.159-.069.3-.112.424-.129.123-.017.203-.026.238-.026.123 0 .238.01.344.026.124.017.247.026.37.026.107 0 .204-.009.292-.026a.963.963 0 01.344-.051c.318 0 .662.008 1.033.025.37.018.706.026 1.006.026.07 0 .124-.026.159-.077a.257.257 0 01.185-.078c.141 0 .247.052.318.155.07.086.15.146.238.18zm-1.244 5.081V5.83c0-.017-.009-.025-.027-.025h-.106v.025c0 .018.01.026.027.026h.106zm-2.118 3.199c-.018-.018-.044-.026-.08-.026h-.159v.026c0 .034-.008.051-.026.051s-.027.009-.027.026.018.034.053.052c.07 0 .115-.009.133-.026l.106-.103zm0 1.006h-.08c0-.018-.009-.026-.026-.026-.036 0-.053.017-.053.051 0 .018.026.026.08.026.052 0 .079-.017.079-.051zm.132 2.785c-.053-.086-.124-.129-.212-.129h-.132c-.035 0-.053.026-.053.078 0 .051.035.094.106.129.088.017.15.025.185.025.07 0 .106-.034.106-.103zm-.08 1.006a.334.334 0 00-.238-.103c-.07 0-.106.017-.106.052 0 .103.062.154.186.154.106 0 .159-.034.159-.103zm1.51.232c-.036 0-.053-.008-.053-.025 0-.035-.018-.052-.053-.052h-.027a.377.377 0 00-.158-.026.775.775 0 00-.345.078 3.586 3.586 0 01-.238.129c.035.034.097.051.185.051a3.5 3.5 0 00.424-.026c.159-.034.247-.077.265-.128zm.132 1.832a.83.83 0 00-.503-.155.537.537 0 00-.238.052c-.07.017-.106.068-.106.154 0 .018.026.043.08.078a.445.445 0 00.132.026.963.963 0 00.344-.052c.088-.034.185-.069.291-.103zm3.151.49c.018-.017.027-.035.027-.052 0-.017-.018-.026-.053-.026h-.08v.026c0 .035.01.052.027.052h.08zm-1.588.387c-.018-.035-.053-.052-.106-.052h-.239c-.088.069-.22.103-.397.103h-.238a.876.876 0 00-.318.052c-.07.017-.106.095-.106.232.07.035.115.052.132.052a.24.24 0 00.106-.026.378.378 0 01.16-.026.394.394 0 01.238-.077c.106-.017.203-.026.29-.026.107-.017.204-.034.292-.052a.316.316 0 00.185-.18zm1.456 1.083c0-.051-.053-.077-.16-.077-.07 0-.105.026-.105.077 0 .017.009.035.026.052h.186c.035 0 .053-.017.053-.052zM110.209.516h.185a1.02 1.02 0 01.239-.026c.141 0 .247.009.318.026.088-.017.185-.035.291-.052.123-.017.247-.026.37-.026.124 0 .248.035.371.104.124.068.238.146.344.232.106.086.186.163.239.232l.106.077c.035.293.114.55.238.774a1.6 1.6 0 01.238.774.458.458 0 01.133.258c.035.086.061.18.079.284l.053.31c.035.102.097.18.185.231a.676.676 0 00-.026.207c0 .189.062.335.185.438.141.086.212.232.212.439 0 .034-.009.06-.026.077v.077c.088.035.141.112.158.233.036.12.062.24.08.36.018.121.035.233.053.336.035.086.088.129.159.129a.345.345 0 00-.027.155c0 .155.044.275.133.36a.499.499 0 01.185.336c.106.172.159.378.159.62a.681.681 0 00.265.515c.053.413.185.774.397 1.083v.104a.22.22 0 01-.027.103v.103c0 .086.053.206.159.361a.82.82 0 01.159.516v.103c.071.034.124.112.159.232.035.12.053.164.053.13 0 .188.053.335.159.438.106.086.159.223.159.412a.643.643 0 01-.027.207c.035.12.088.223.159.31.088.068.132.188.132.36v.078c.036.189.115.344.239.464.123.12.185.284.185.49a.232.232 0 01-.026.103v.078c.106.12.185.266.238.438.071.172.132.353.185.542l.159.567c.071.172.159.319.265.439.035.172.079.378.132.619.053.24.15.421.292.542.053.086.088.189.106.31.017.102.035.214.052.334.036.138.098.267.186.387s.132.267.132.439c0 .155.044.275.133.361.088.086.132.215.132.387a.882.882 0 00-.238.206l-.159.258a.603.603 0 01-.212.206.4.4 0 01-.291.104.863.863 0 01-.239-.052l-.026.026h-.265c-.247 0-.512-.009-.794-.026a11.866 11.866 0 00-.768-.026c-.194 0-.38.009-.556.026a2.514 2.514 0 01-.53.052c-.388 0-.759-.052-1.112-.155a1.039 1.039 0 01-.715-.568c.036-.137.053-.232.053-.283a.622.622 0 00-.185-.464.78.78 0 01-.159-.49c0-.052.018-.147.053-.284 0-.138-.053-.232-.159-.284a.344.344 0 01-.159-.31v-.18c0-.24-.088-.387-.265-.439a1.45 1.45 0 00-.45-.077h-.397a1.377 1.377 0 01-.371.052h-.37c-.406 0-.768-.018-1.086-.052a9.358 9.358 0 00-1.006-.052c-.088.035-.194.078-.318.13a1.199 1.199 0 01-.37.05c-.195 0-.389-.008-.583-.025a6.593 6.593 0 00-.583-.026c-.158 0-.317.009-.476.026h-.424a.431.431 0 00-.344.155 1.158 1.158 0 00-.159.335c-.035.12-.062.241-.079.361l-.027.155c-.07.172-.115.378-.132.62-.018.24-.088.403-.212.49a3.192 3.192 0 00-.079.438.812.812 0 01-.133.36c-.141.121-.291.233-.45.336-.159.12-.291.18-.397.18-.247 0-.486-.017-.715-.05a3.98 3.98 0 00-.45-.053.91.91 0 00-.45.104.77.77 0 01-.424.103c-.194 0-.388-.017-.583-.052a5.717 5.717 0 00-.556-.026h-.344c-.106.018-.22.026-.344.026-.282 0-.538-.069-.768-.206-.23-.12-.344-.301-.344-.542 0-.258.035-.447.106-.567a.888.888 0 00.132-.49c0-.138.036-.25.106-.336a.447.447 0 00.132-.335v-.103a.54.54 0 01.186-.284.44.44 0 00.159-.36v-.13c.123-.395.23-.688.317-.877.106-.189.186-.335.239-.438.07-.104.123-.18.159-.232a.707.707 0 00.053-.31v-.129c0-.138.044-.24.132-.31a.411.411 0 00.159-.335.362.362 0 00-.053-.206c.018 0 .044-.043.079-.13l.159-.309c.053-.12.097-.215.133-.284.035-.085.053-.111.053-.077a1.36 1.36 0 00.079-.31c.035-.12.071-.232.106-.335.07-.24.15-.473.238-.696a6.01 6.01 0 00.265-.722.614.614 0 00.132-.413c0-.172.053-.301.159-.387.036-.103.071-.198.106-.284l.106-.258c.088-.154.141-.318.159-.49.035-.189.123-.36.265-.516v-.077c0-.224.053-.404.159-.542a.857.857 0 00.211-.516.637.637 0 00.159-.257c.036-.104.062-.207.08-.31.017-.12.035-.232.053-.335a.591.591 0 01.132-.284c.053-.052.088-.18.106-.387.018-.224.079-.37.185-.438a.94.94 0 00.212-.62c.018-.24.097-.43.238-.567a.337.337 0 00.027-.232c0-.103.018-.19.053-.258a.885.885 0 01.185-.361.518.518 0 00.159-.387.797.797 0 00.106-.413c0-.172.044-.3.132-.387a.862.862 0 00.265-.645v-.18a.58.58 0 01.265-.31.84.84 0 00.318-.335c.194-.103.379-.163.556-.18.194-.018.388-.026.582-.026.459 0 .892.025 1.298.077.423.034.865.052 1.324.052h.317c.124 0 .248-.009.371-.026zm-1.403 2.58c-.088-.087-.177-.13-.265-.13a.446.446 0 00-.132.026l-.159.052c0 .034.009.06.026.077a.398.398 0 01.106.077h.212c.124 0 .194-.034.212-.103zm2.25.231c0-.103-.017-.154-.053-.154a.299.299 0 00-.132-.026c-.123 0-.212.034-.265.103l-.212.206c.036.035.115.052.239.052a.673.673 0 00.238-.026h.027c.053 0 .079-.017.079-.051a.418.418 0 01.079-.104zm-1.006.233c-.017-.035-.044-.043-.079-.026-.018 0-.035-.017-.053-.052h-.185c-.089 0-.142.035-.159.103a.251.251 0 01-.106.13c.017.068.079.103.185.103h.238a.4.4 0 00.08-.104.63.63 0 01.079-.154zm-1.933.773c0-.034-.026-.051-.079-.051h-.212c0 .034-.035.06-.106.077-.053.017-.079.052-.079.103 0 .018.017.026.053.026h.079a.431.431 0 00.344-.155zm2.728.104a.965.965 0 00-.424-.104.445.445 0 00-.132.026c-.036.017-.053.06-.053.13 0 .016.008.034.026.05h.08c.035 0 .079.01.132.027h.132c.159 0 .239-.043.239-.13zm-1.218.722a.241.241 0 00-.186-.155.793.793 0 00-.291-.052h-.45a3.995 3.995 0 01-.291.13c-.089.017-.133.12-.133.309.036 0 .062.009.08.026h.053c.141 0 .273-.026.397-.078.123-.051.256-.077.397-.077.141 0 .229.026.265.077a.41.41 0 01.106.155l.106.155c.035.051.105.077.211.077.053 0 .124-.008.212-.026.088-.017.133-.043.133-.077 0-.172-.08-.266-.239-.284a.74.74 0 01-.37-.18zm1.615.129a.255.255 0 00-.212-.103h-.265c-.035 0-.053.025-.053.077s.027.086.08.103h.264a3.17 3.17 0 01.186-.077zm-3.151.567c0-.034-.035-.051-.106-.051s-.106.017-.106.051c0 .069.009.12.027.155.035 0 .061-.017.079-.052l.106-.103zm1.191.103c-.035-.034-.097-.051-.185-.051-.229 0-.379.06-.45.18-.053.12-.097.241-.132.361v.078a.276.276 0 01-.027.129.985.985 0 00-.053.129c0 .223-.062.395-.185.516-.106.103-.159.249-.159.438v.18a.577.577 0 01.026.181l-.159.258c-.035.069-.07.155-.105.258v.13c0 .188-.045.343-.133.463-.07.12-.132.25-.185.387v.13c0 .188-.044.352-.133.49-.07.12-.132.257-.185.412-.035.086-.071.19-.106.31a3.13 3.13 0 01-.079.335l-.106.413c0 .103.053.197.159.283a.754.754 0 01.238.232c.088-.017.168-.025.238-.025h.265c.335 0 .644.034.927.103.3.051.618.077.953.077h.265c.106 0 .212-.017.318-.051a.405.405 0 01.211-.104 9.89 9.89 0 00.292-.051.59.59 0 00.211-.077c.071-.035.106-.104.106-.207 0-.086-.035-.24-.106-.464a5.99 5.99 0 00-.211-.697 5.348 5.348 0 00-.239-.696 3.445 3.445 0 00-.211-.464.94.94 0 00-.133-.516 1.275 1.275 0 01-.159-.516.884.884 0 01-.185-.567c.018-.224-.053-.387-.212-.49a1.124 1.124 0 01-.053-.362c0-.12.018-.206.053-.258.053-.051.106-.094.159-.129l.159-.077a.172.172 0 00.079-.155.438.438 0 00-.265.078.613.613 0 01-.211.129c-.177-.035-.265-.13-.265-.284a1.13 1.13 0 00-.027-.439zm-2.436.258c-.035-.051-.079-.077-.132-.077a1.433 1.433 0 01-.185-.077.185.185 0 01-.133.051c-.035 0-.053.017-.053.052 0 .086.027.137.08.155.07.017.15.042.238.077.035-.035.071-.052.106-.052.053-.017.079-.051.079-.103v-.026zm4.687.671c-.018-.034-.062-.052-.132-.052h-.265c0 .035-.009.052-.027.052-.017-.017-.026-.009-.026.026v.026h.265c.106 0 .167-.018.185-.052zm-4.898.31a.418.418 0 00-.159-.052c-.071 0-.124.017-.159.052.017.068.079.103.185.103h.212c0-.07-.009-.103-.027-.103h-.052zm6.963 2.27c0-.035-.017-.052-.053-.052h-.132v.026c0 .034.009.051.027.051h.079c.018-.017.044-.026.079-.026zm-6.937.515v-.077c0-.035-.018-.052-.053-.052a.24.24 0 00-.106.026h-.106c0 .034-.017.06-.053.077-.017 0-.026.018-.026.052 0 .052.035.077.106.077a.299.299 0 00.132-.025.414.414 0 01.106-.078zm4.793.336c-.036-.035-.071-.052-.106-.052a.185.185 0 00-.133.052l.106.051a.472.472 0 00.133-.051zm2.171.103c-.035-.052-.088-.078-.159-.078-.124 0-.185.035-.185.104v.025c.017 0 .026.018.026.052a.23.23 0 01.212 0c.071.017.106-.017.106-.103zm-6.911.619v-.078c0-.051-.035-.077-.106-.077h-.159a.169.169 0 01-.079.077c-.018.018-.027.043-.027.078l.053.051a.758.758 0 00.318-.051zm-1.271.18c-.035-.051-.079-.068-.132-.051-.053.017-.097 0-.133-.052a.602.602 0 01-.185.026c-.071 0-.124.043-.159.129.088.069.229.103.424.103h.238c.088-.017.168-.026.238-.026a2.77 2.77 0 00-.291-.129zm7.07.465l-.027-.026c-.017 0-.035.008-.053.026h-.079v.025c0 .035.009.052.026.052h.106v-.026c.018-.017.027-.034.027-.051zm1.244.464a.79.79 0 00-.185-.026.302.302 0 00-.132-.026c-.053 0-.151.018-.292.052v.026c0 .034-.017.051-.053.051-.017-.017-.026-.008-.026.026s.035.06.106.077c.07.018.141.026.212.026h.238c.088-.017.132-.069.132-.155v-.051zm-1.059.516h-.424v.051c0 .035-.008.052-.026.052s-.027.034-.027.103a.488.488 0 00.53 0v-.129c0-.034-.018-.06-.053-.077zm1.748.155c0-.035-.018-.052-.053-.052-.018.017-.027.034-.027.052 0 .017.009.025.027.025.017 0 .035-.008.053-.025zm-8.844.18a.431.431 0 00-.344-.155c-.106 0-.221.018-.345.052a3.375 3.375 0 00-.317.103c0 .052.053.103.159.155.105.034.229.052.37.052.124 0 .23-.01.318-.026.106-.017.159-.06.159-.13v-.05zm7.917.103v-.025c0-.035-.018-.052-.053-.052 0 .069.009.103.026.103l.027-.026zm-1.907.13c-.035 0-.052-.01-.052-.027 0-.034-.027-.051-.08-.051-.035.034-.053.069-.053.103 0 .052.018.077.053.077.088 0 .132-.017.132-.051v-.052zm-4.607.18c-.035-.069-.079-.103-.132-.103.017 0-.009.008-.08.025-.053 0-.079.018-.079.052 0 .017.009.034.026.052.018 0 .027.008.027.025v.026c.035 0 .062.009.079.026h.08c.035 0 .044-.009.026-.026 0-.017.018-.043.053-.077zm7.97.31a.355.355 0 00-.291-.13c-.194 0-.38.035-.556.104-.177.068-.38.103-.609.103-.212 0-.397-.026-.556-.078a1.39 1.39 0 00-.9-.051h-.027c0-.017-.009-.026-.026-.026-.018.017-.027.034-.027.052 0 .086.027.146.08.18.07.017.15.026.238.026h.106a.895.895 0 00.344.077c.159 0 .309-.017.45-.051.159-.052.318-.078.477-.078.088 0 .203.017.344.052l.212.051c.123-.034.256-.051.397-.051.159-.017.274-.078.344-.18zm-3.839-.052a.183.183 0 00-.133-.052.511.511 0 00-.158.026.513.513 0 01-.159.026h-.053a1.097 1.097 0 00-.133.051c-.035 0-.053.026-.053.078a.765.765 0 00.556.206c.089 0 .133-.043.133-.129v-.206zm-7.626.232h-.132a.306.306 0 00-.133-.026c-.07 0-.106.017-.106.052 0 .051.044.103.133.155.088.051.194.094.318.128l.37.104c.141.017.247.025.318.025a.433.433 0 00.265-.103c.088-.069.132-.146.132-.232 0-.034-.026-.052-.079-.052-.036 0-.071-.017-.106-.051a2.526 2.526 0 01-.477.051c-.159 0-.326-.017-.503-.051zm5.11.232c0-.034-.026-.051-.079-.051-.088 0-.132.025-.132.077 0 .017.008.034.026.051.106 0 .168-.025.185-.077zm-6.699.929v-.052c0-.017-.008-.026-.026-.026-.035 0-.062.009-.08.026h-.026l-.027.026c0 .017.018.026.053.026h.106zm2.41.412c0-.051-.035-.077-.106-.077h-.159c0 .034-.018.043-.053.026-.035-.017-.053-.009-.053.025 0 .018.009.035.027.052-.018.034-.036.052-.053.052 0 .034.017.051.053.051l-.027.052c0 .034.018.052.053.052a.63.63 0 00.186-.052c.088-.034.132-.095.132-.18zm.953.026c-.035 0-.053-.009-.053-.026s-.017-.026-.053-.026h-.053c-.017 0-.026-.017-.026-.051h-.159c-.053 0-.088.026-.106.077a.3.3 0 01.079.052.398.398 0 01.106.077h.186c.053 0 .079-.017.079-.051v-.052zm10.433.103c-.036-.086-.15-.129-.345-.129 0 .035-.008.06-.026.078v.025c0 .035.026.06.079.078a.45.45 0 00.106.026.258.258 0 00.186-.078zm-1.536.13c0-.052-.018-.078-.053-.078-.053 0-.079.026-.079.077v.026c0 .017.017.026.052.026.018 0 .027-.009.027-.026s.018-.026.053-.026zm-9.453.721v-.025h-.026l-.027.025c0 .018.009.026.027.026l.026-.026zm-2.065.31a4.366 4.366 0 01-.186-.129.289.289 0 00-.211-.077c-.071 0-.106.026-.106.077 0 .086.035.155.106.206.088.035.15.052.185.052.123 0 .194-.043.212-.129zM34.432 35.063c-.017-.136-.104-.254-.33-.237a1.176 1.176 0 01-.539-.102c-.313-.135-.59-.203-.782.034-.173-.017-.278-.05-.382-.034-.191.051-.365.085-.521.22-.313.254-.313.643.034.83a.854.854 0 00.73.05c.104-.033.209 0 .365 0-.087.136-.208.22-.191.305 0 .254-.156.39-.295.559-.053.05-.105.101-.105.17 0 .338-.4.405-.538.693-.052.136-.313.186-.504.27-.122.069-.278.187-.4.17-.156-.05-.243.017-.348.051a1.836 1.836 0 01-.868-.779c-.14-.254-.33-.474-.278-.795.087-.474.121-.982.19-1.456.07-.339.053-.694.175-1.016.243-.592.364-1.218.66-1.777.035-.085.052-.17.07-.237.138-.338.26-.677.434-.999.122-.237.226-.474.382-.694.174-.22.296-.474.47-.71.33-.424.73-.66 1.25-.78.226-.05.47-.084.695-.186.383-.135.435-.253.365-.643 0-.017-.017-.034-.017-.05.104-.271-.139-.305-.313-.373-.121-.034-.278-.034-.417-.068-.07-.017-.121-.067-.191-.084-.278-.102-.539.034-.817.05-.365.017-.677.204-1.007.373-.296.17-.487.474-.835.592-.034.017-.052.119-.087.17-.017.05-.052.101-.052.152-.052.237-.295.338-.434.49-.174.204-.156.492-.382.661-.087.068-.07.305-.209.423-.087.102-.122.254-.174.373-.07.237-.121.474-.19.71-.07.22-.192.424-.261.644-.052.135-.052.27-.087.406l-.26.762c-.036.084-.105.186-.088.27.087.44-.19.78-.243 1.186-.035.237-.174.474-.087.744a.196.196 0 01-.017.17c-.157.304-.105.643-.122.948-.017.304 0 .643.087.914.087.27.122.592.417.778.052.034.07.119.104.186.035.085.66.627.747.644.226.067.47.101.66.22.21.118.383.152.609.084.052-.017.122-.033.174-.017.625.17 1.13-.118 1.598-.406.33-.186.608-.44.834-.761.487-.678.87-1.389.921-2.235.018-.186 0-.406.261-.508.087-.017.156-.237.139-.355zM42.035 39.108a.49.49 0 01-.034-.169v-.559c-.035-.389-.053-.761-.087-1.15-.052-.491-.122-.982-.192-1.456-.034-.254-.104-.508-.139-.779-.017-.186.035-.39 0-.592-.086-.542-.225-1.067-.295-1.608-.087-.695-.191-1.372-.4-2.032a5.486 5.486 0 01-.208-.71c-.104-.542-.382-1.016-.73-1.44-.174-.236-.4-.456-.695-.541.209-.051.365-.186.521-.322.383-.305.487-.762.539-1.252-.017-.119-.052-.271-.07-.424-.069-.321-.225-.609-.538-.71-.313-.136-.66-.305-1.043-.17-.087.034-.156.068-.243.085a1.166 1.166 0 00-.851 1.456c.086.27.208.541.278.812.052.237.19.39.4.474.017.017.051.017.069.017a.76.76 0 00-.33.203c-.209.203-.487.356-.626.576-.243.423-.539.812-.66 1.303-.087.322-.226.626-.348.931-.07.22-.121.457-.174.677-.104.339-.226.677-.295 1.033-.122.575-.191 1.15-.313 1.726-.017.085-.156.17-.243.22-.209.102-.47.153-.608.322a.628.628 0 00-.07.592c.087.203.191.322.435.288.139-.017.19.068.173.186-.017.187-.052.356-.069.525-.017.27-.017.525-.017.796-.035.541-.087 1.1-.122 1.659.174.033.278.05.452.067.017-.254.034-.474.07-.694.138-.761.277-1.506.416-2.268.018-.152.087-.27.278-.288.313-.017.608-.101.904-.135.243-.034.486-.034.73-.051.156-.017.313-.034.469-.034.139 0 .278.034.417.034.382.017.782.017 1.181.05.07 0 .209.085.226.136.053.322.07.627.105.948.052.559.104 1.1.173 1.659.035.17.105.322.174.508 0 .017-.052.05-.07.101-.017.254.435.796.713.847.122.017.278.068.382.034.278-.102.47-.593.365-.88zm-3.857-12.627a.54.54 0 01.365-.407c.017-.017.052 0 .087-.017.451-.101.642 0 .66.44.017.34-.14.678-.556.813-.226.068-.348-.084-.4-.186-.087-.186-.104-.406-.156-.643zm1.529 8.159c-.209-.068-.452-.034-.678-.051-.156-.017-.33 0-.434-.068-.122-.102-.226-.068-.33-.034-.209.034-.4.119-.591-.05-.365.169-.782.05-1.164.118-.035 0-.052.05-.07.085-.035-.034-.087-.085-.087-.102.14-.61.278-1.202.452-1.794.191-.677.382-1.354.643-1.998.208-.541.47-1.083.956-1.472.208-.187.295-.17.469.067.121.153.19.322.26.508.087.288.244.559.278.88 0 .068.105.119.174.204-.121.287-.052.609.07.846.104.17-.035.27.035.423.121.254.173.542.26.83 0 .016 0 .05-.017.084-.105.237-.018.474.035.711.069.254.034.508.052.796-.07.067-.157.084-.313.017zM50.835 28.63c.07-.186-.156-.186-.174-.321-.07-.39-.469-.39-.712-.576a.462.462 0 00-.26-.118c-.227-.051-.453-.068-.661-.119-.626-.169-1.234-.101-1.86-.118-.034 0-.086 0-.086.017-.243.27-.626.101-.904.288-.243.152-.573.22-.869.321-.034-.152-.121-.355-.139-.542 0-.27-.121-.49-.347-.558-.191-.034-.417-.152-.643.034-.122.118-.226.254-.382.321.07.186-.174.22-.174.356-.035.508-.33.982-.278 1.523.017.17.017.339-.052.491-.087.237-.052.474-.122.694-.017.05-.017.136.017.152.191.136.018.288 0 .424 0 .084-.087.169-.07.237.036.237 0 .474-.034.694-.017.118.07.237.035.338-.07.203-.017.39-.035.593 0 .321-.121.643-.052.998.052.254-.052.525-.087.796-.017.22-.035.457-.035.677-.017.22-.017.44-.034.66-.018.186.052.356.104.525.052.152-.157.39-.104.542.07.237.07.49.034.677-.07.355.053.643.14.948.034.118.173.304.382.254.208-.051.451.033.556-.254.104-.237.208-.457.243-.745.035-.356.174-.694.243-1.05.052-.372.018-.761.122-1.134.121-.423.104-.863.243-1.354.087.17.14.305.191.423.087.22.174.423.26.627.053.084.157.152.192.236.226.542.59.965 1.095 1.304.017.017.07.05.07.068.051.321.364.389.555.524.191.136.417.254.626.407.191.135.4.287.626.372.364.135.764.237 1.146.339.209.05.417.033.695.067-.052-.169-.07-.288-.139-.372-.33-.44-.677-.88-1.146-1.219-.348-.237-.73-.457-1.026-.779-.486-.49-1.094-.88-1.511-1.438-.278-.373-.609-.745-.643-1.27.19-.085.434-.203.59-.203.383 0 .696-.203.99-.339.748-.355 1.478-.727 2.103-1.27.417-.355.765-.76 1.095-1.184.209-.27.296-.626.382-.965.07-.338.122-.71-.156-.999zm-1.181.88c-.018.085-.105.17-.14.255-.086.135-.382.507-.504.592-.312.186-.573.457-.85.694-.07.05-.123.135-.192.152-.296.051-.487.22-.695.39-.104.067-.278.067-.382.152-.192.152-.504.085-.643.339-.383.016-.678.253-1.043.321-.122.017-.191-.068-.174-.203.052-.406.174-.812.07-1.236.208-.304.035-.66.104-.981.035-.136.035-.288.017-.424-.034-.253.053-.44.279-.541.33-.136.695-.254 1.025-.39.347-.169.747-.169 1.112-.186.59-.017 1.199.068 1.737.373.122.084.192.22.244.287.017.187.052.288.035.407zM57.767 33.37c-.018-.237-.052-.457-.087-.694a4.123 4.123 0 00-.157-.626 4.204 4.204 0 00-.208-.61c-.052-.135-.122-.27-.191-.406-.209-.372-.4-.728-.626-1.083a1.63 1.63 0 00-.365-.407c-.104-.067-.26-.084-.312-.169-.313-.508-.887-.592-1.356-.846-.07-.034-.156 0-.226-.017-.278-.085-.52-.22-.799-.27-.243-.035-.504-.085-.73.1-.035-.05-.07-.1-.121-.185-.226.321-.504.541-.556.913-.018.254-.07.491-.07.745-.035.322-.035.627-.035.948 0 .406 0 .813-.017 1.219 0 .372 0 .728-.017 1.1-.018.423-.07.864-.087 1.287-.035.83-.07 1.642-.07 2.471 0 .474 0 .965.07 1.439.034.237 0 .39-.174.542a.458.458 0 00-.104.203c-.035.084.19.643.278.677.26.068.451.237.747.27.4.052.695-.118 1.008-.236.278-.102.538-.288.816-.44.174-.119.365-.203.487-.356a.508.508 0 01.278-.186c.052-.017.104-.05.122-.085.278-.338.712-.524.938-.914.087-.152.243-.27.347-.423.07-.119.087-.305.192-.406.156-.17.243-.339.364-.542.226-.39.296-.83.487-1.236.052-.118.07-.253.087-.372.104-.457.104-.931.087-1.405zm-2.05.423c0 .186-.018.356-.035.525-.018.068-.035.135-.07.17a.43.43 0 00-.087.473c-.243.085-.26.305-.33.491-.07.22-.174.423-.417.542-.052.017-.07.084-.122.135-.07.068-.173.136-.243.22-.121.136-.295.271-.313.423 0 .22-.173-.033-.173.102 0 .118-.087.17-.191.135-.21-.05-.261.051-.226.22 0 .034-.035.085-.053.102-.4-.05-.434.474-.816.474 0-.237.017-.474.035-.71.052-.424.104-.847.139-1.254.034-.575.086-1.134.121-1.71.017-.507 0-1.015.017-1.54.018-.338.053-.677.087-1.015 0-.203.018-.407.035-.61 0-.304 0-.626.017-.93.018-.153.087-.271.122-.424.191.085.383.153.556.237.243.119.521.22.747.39.174.135.296.355.435.524.174.22.33.44.382.728 0 .017 0 .017.017.034.192.254.209.559.296.846.139.491.122.948.07 1.422zM63.493 35.723c-.017-.474-.052-.948-.313-1.388-.26-.44-.382-.999-.938-1.236a.522.522 0 01-.07-.101c-.156-.305-.364-.576-.764-.593-.017 0-.052-.034-.07-.068-.139-.355-.608-.524-.66-.947-.017-.136-.07-.271-.07-.424 0-.186.035-.372.053-.558.052-.457.4-.745.625-1.084.07-.084.14-.186.209-.254.174-.152.365-.287.521-.44.174-.152.348-.338.521-.507.191-.22.4-.424.556-.644.105-.152.087-.321-.139-.389.14-.118.157-.22-.052-.27a6.31 6.31 0 00-.677-.22c-.018.016-.07.067-.122.084-.313.101-.643.152-.852.423-.225.305-.695.322-.834.728 0 .017-.017.017-.017.017-.191-.085-.139.152-.278.169-.087.017-.191.152-.243.254-.087.17-.191.203-.296.17-.104.152-.139.372-.243.389-.208.067-.26.236-.4.355-.052.05-.052.186-.087.288-.034.05-.069.101-.104.17-.017.033-.035.084-.052.118-.052.169-.104.338-.174.49-.087.22-.173.424-.173.66 0 .22-.105.44-.087.678 0 .203-.035.389.07.575.051.102.051.22.104.322a.501.501 0 00.069.17c.209.253.417.507.573.676.174.068.348.085.348.119.052.254.26.288.452.338.052.017.121.034.174.068.33.203.677.406 1.094.39.035 0 .087.016.105.05.121.102.225.203.347.305.382.39.643.795.452 1.388-.035.084 0 .203 0 .321-.209.102-.296.339-.452.525-.139.152-.208.356-.47.39a.422.422 0 00-.242.084c-.244.203-.47.44-.852.373-.035 0-.087.033-.121.05-.313.17-.643.288-.956.491-.243.17-.417.339-.521.576-.14.254-.087.423.173.558.296.153.626.288.99.305.21 0 .435-.034.661-.05.521 0 1.008-.187 1.425-.475.295-.203.626-.355.834-.677.243-.39.486-.779.66-1.219.087-.169.087-.389.157-.541.121-.322.173-.66.156-.982zM70.066 28.546c-.07-.17-.174-.356-.33-.457-.33-.22-.643-.474-1.095-.423a.661.661 0 01-.365-.034c-.174-.102-.295-.017-.434.034-.053.033-.105.084-.174.101-.452.017-.765.254-1.043.559-.226.237-.469.44-.695.66-.191.203-.295.457-.452.694-.156.254-.26.525-.4.796-.017.084.018.203-.034.236-.243.22-.191.542-.313.796-.174.339-.156.779-.278 1.151-.104.373-.017.762-.191 1.117-.035.051 0 .136 0 .22v.17c-.052.304-.191.592-.087.93.017.035-.035.102-.052.153-.017.068-.052.118-.052.17-.017.27 0 .524 0 .727.017.271.035.457.052.66.035.203.035.407.104.593.07.237.157.49.296.71.121.204.312.373.469.56.174.22.452.202.695.304.33.119.678.135 1.025-.017.26-.102.521-.22.8-.322.538-.186.886-.592 1.25-.981.383-.407.574-.898.696-1.44 0-.084.017-.168.017-.236 0-.203-.104-.254-.295-.17-.14.068-.313.12-.452.187-.209.135-.452.237-.626.406-.121.136-.278.237-.4.355a1.505 1.505 0 01-.416.39c-.279.135-.556.304-.835.44-.208.102-.434.017-.573-.136-.191-.203-.226-.473-.278-.71a5.588 5.588 0 01-.122-1.862c.035-.322-.07-.66.105-.965.034-.034 0-.102.017-.153.07-.541.122-1.083.209-1.608.069-.355.278-.677.312-1.032.07-.457.313-.813.504-1.185.226-.457.574-.88 1.078-1.134.295-.153.608-.271.938-.237.365.05.956.694.973 1.066.017.22.122.288.313.322.208.034.26-.136.33-.271.156-.423-.035-.779-.191-1.134zM77.663 38.804a.59.59 0 01-.034-.17v-.558c-.035-.39-.052-.779-.087-1.151-.052-.491-.122-.982-.191-1.456-.035-.27-.105-.525-.14-.779-.017-.203.035-.406 0-.592-.086-.542-.225-1.066-.295-1.608-.087-.694-.19-1.371-.4-2.031a5.486 5.486 0 01-.208-.711c-.104-.559-.382-1.033-.73-1.456-.208-.254-.469-.525-.851-.542-.382-.034-.782-.152-1.112.17-.209.203-.487.355-.626.592-.243.423-.538.812-.66 1.286-.087.322-.226.627-.348.948-.07.22-.121.44-.173.66-.105.356-.226.694-.296 1.05-.121.575-.19 1.151-.313 1.727-.017.084-.156.152-.243.22-.208.101-.469.152-.608.304a.655.655 0 00-.07.61c.087.203.192.321.435.288.139-.017.191.067.174.186-.018.169-.052.355-.07.524-.017.254-.017.525-.017.796-.035.542-.087 1.083-.122 1.659.174.017.278.034.452.068.017-.271.035-.491.07-.694.138-.762.278-1.524.416-2.269.018-.169.087-.27.278-.288.313-.016.609-.101.904-.135.243-.034.487-.034.73-.05a4.38 4.38 0 01.47-.035c.138 0 .277.034.416.034.382.017.782.017 1.182.051.07 0 .208.085.226.136.052.304.07.626.104.947.052.542.104 1.1.174 1.66.034.152.104.32.173.507 0 0-.052.05-.07.085-.017.254.435.812.713.846.122.034.278.085.383.034.278-.085.469-.575.364-.863zm-2.328-4.47c-.208-.084-.452-.033-.678-.05-.156-.017-.33 0-.434-.084-.122-.085-.226-.051-.33-.034-.209.05-.4.135-.591-.034-.365.17-.782.034-1.164.118-.035 0-.052.051-.07.085-.034-.05-.087-.085-.087-.102.14-.609.278-1.218.452-1.81.191-.661.382-1.338.643-1.981.209-.542.47-1.084.956-1.473.208-.186.295-.17.469.068.122.152.191.321.26.508.088.287.244.558.279.88 0 .067.104.118.173.186-.121.305-.052.626.07.846.104.186-.035.288.035.44.121.254.174.542.26.83 0 .017 0 .05-.017.068-.104.253-.017.49.035.727.07.237.034.508.052.796-.07.068-.156.085-.313.017zM85.662 28.055c0-.017-.018-.034-.018-.034-.208-.068-.382-.152-.556-.17-.173-.016-.364.052-.556.035-.034 0-.086-.085-.19-.051-.14.017-.296-.017-.47-.017-.087.017-.208.101-.295.068-.278-.119-.574-.051-.817.034-.226.067-.452 0-.695.101-.26.119-.608.085-.886.119-.018-.119-.087-.22-.07-.288.087-.203-.104-.153-.156-.22-.07-.085-.122-.17-.191-.254-.122-.034-.26-.051-.383-.102-.26-.118-.573-.034-.625.237-.052.22-.191.288-.365.373-.017 0-.035.017-.035.017-.174.321-.26.626-.174.998-.034.017-.086.034-.104.085-.017.101.018.22-.017.305-.191.423-.052.897-.209 1.354-.121.338-.052.728-.087 1.1-.052.542.035 1.083-.104 1.625-.087.339-.017.694-.035 1.05 0 .338.018.694-.017 1.032-.017.186.017.356.035.542.017.237-.105.49-.087.745.017.541-.07 1.083.122 1.625.139.406.104.423.469.49.07 0 .139.051.19.068.348-.186.505-.474.522-.846 0-.203.07-.39.122-.593.087-.355.19-.71.226-1.066.017-.136.017-.27.07-.406.086-.254.051-.542.138-.813.07-.27.052-.558.122-.846.087-.44.087-.914.121-1.371.296-.034.609-.068.921-.102.278-.034.574-.034.852-.084.486-.085.99-.187 1.477-.305.139-.017.278-.119.417-.136.243 0 .417-.135.573-.27a.389.389 0 00-.121-.66c-.33-.102-.678-.22-1.008-.085-.191.068-.26-.085-.4-.068-.417.102-.834.17-1.25.237-.07.017-.175-.017-.261-.017-.087 0-.192.017-.226.05-.14.187-.296.035-.435.052-.243.034-.243.05-.33.017.017-.407.156-.762.139-1.168-.035-.39.104-.796.191-1.22.313 0 .66.035.99 0 .487-.05.956-.118 1.443-.152.504-.016.99-.101 1.477-.203.226-.033.452-.152.625-.304.174-.153-.052-.339-.07-.508zM89.262 27.09c.226-.237.4-.525.573-.813.157-.253.296-.507.4-.778.105-.27.226-.542.157-.846-.035-.136-.07-.271-.122-.407-.139.068-.33.085-.452.187-.486.389-.677.964-.956 1.49-.156.32-.26.66-.4 1.049.07.05.14.118.21.169.277.203.347.22.59-.051zm2.363 10.681c-.365.017-.73.017-1.077.085-.33.05-.66-.051-.99.067-.174.051-.348.085-.522.119-.087.017-.19-.017-.243.017a.476.476 0 01-.452.017c-.243-.102-.504-.186-.747-.288-.035-.017-.087-.05-.104-.085-.14-.236-.244-.474-.383-.694a1.594 1.594 0 01-.208-.727c-.017-.424.017-.83.191-1.236.504.254 1.008.203 1.512.068.191-.051.382-.153.573-.254.174-.085.348-.17.487-.305.4-.39.73-.846.712-1.439 0-.372-.121-.71-.521-.863a1.338 1.338 0 00-.573-.119c-.209-.017-.4-.118-.626 0-.14.085-.348.017-.521.119-.191.135-.4.22-.574.406-.104.136-.313.186-.469.27-.017-.016-.052-.033-.07-.05.018-.22.018-.457.035-.677a3.44 3.44 0 01.556-1.591c.365-.576.748-1.151 1.321-1.54.434-.288.886-.491 1.442-.339.157.05.296.119.452.119a.496.496 0 00.382-.119c.105-.102.018-.474-.087-.542-.347-.27-.73-.457-1.164-.49-.226-.034-.504-.085-.66.016-.417.22-.921.322-1.234.694-.295.051-.33.424-.625.491-.018.237-.209.322-.365.44-.105.085-.157.22-.209.339l-.365.61c-.017.033-.104.016-.156.033-.017.102 0 .22-.035.322-.156.39-.486.71-.452 1.168-.208.135-.121.372-.173.541-.14.559-.087 1.118.243 1.625.087.119.174.305.139.424-.122.304-.348.575-.33.93-.313.305-.192.712-.209 1.067-.035.44.122.88.243 1.32.174.61.609 1 1.026 1.388.208.187.538.339.868.322.14 0 .313 0 .418.05.278.136.59.085.868.069.487 0 .939-.17 1.39-.322.626-.22 1.06-.643 1.495-1.083.07-.068.07-.204.104-.305-.104-.017-.208-.068-.313-.068zm-2.571-4.57c-.296.406-.678.626-1.182.694.139-.39.817-.796 1.182-.694z" fill="#fff"/>
  <path stroke="#fff" d="M20.484 34.535H.625M118.953 34.535H99.094"/>
</svg>
